<?xml version="1.0" standalone="no"?>
<!DOCTYPE svg PUBLIC "-//W3C//DTD SVG 20010904//EN"
 "http://www.w3.org/TR/2001/REC-SVG-20010904/DTD/svg10.dtd">
<svg version="1.0" xmlns="http://www.w3.org/2000/svg"
 width="810.000000pt" height="386.000000pt" viewBox="0 0 810.000000 386.000000"
 preserveAspectRatio="xMidYMid meet">

<g transform="translate(0.000000,386.000000) scale(0.100000,-0.100000)"
fill="#000000" stroke="none">
<path d="M4242 3765 c2 -52 0 -95 -4 -95 -11 0 1 -70 14 -87 5 -7 5 -14 -1
-17 -14 -9 -6 -41 10 -41 11 0 15 32 17 168 3 165 2 167 -19 167 -21 0 -21 -3
-17 -95z"/>
<path d="M4459 3828 c-1 -55 -1 -192 1 -208 1 -10 4 -8 9 5 12 33 14 235 2
235 -6 0 -11 -15 -12 -32z"/>
<path d="M1765 3830 c3 -5 8 -10 11 -10 2 0 4 5 4 10 0 6 -5 10 -11 10 -5 0
-7 -4 -4 -10z"/>
<path d="M730 3810 c0 -5 5 -10 10 -10 6 0 10 5 10 10 0 6 -4 10 -10 10 -5 0
-10 -4 -10 -10z"/>
<path d="M1213 3758 c3 -11 -1 -37 -9 -56 -18 -44 -18 -52 1 -52 11 0 14 7 9
24 -3 13 -1 27 5 30 14 9 14 76 0 76 -7 0 -9 -9 -6 -22z"/>
<path d="M7236 3743 c-3 -3 -22 -7 -43 -9 -98 -7 -179 -30 -238 -67 -72 -45
-144 -110 -145 -132 0 -5 -12 -35 -27 -65 -23 -49 -26 -68 -28 -174 -1 -109 0
-121 22 -153 13 -18 23 -44 23 -56 0 -13 4 -27 10 -33 5 -5 12 -27 14 -47 3
-21 21 -70 40 -110 19 -40 38 -84 41 -99 13 -52 43 -67 143 -74 51 -4 95 -11
98 -16 3 -4 16 -8 30 -8 38 0 61 -16 80 -56 23 -48 69 -92 107 -102 34 -10 57
-4 37 8 -19 11 -4 28 48 54 43 22 90 57 337 256 175 140 194 161 195 212 0 22
-6 28 -32 34 -18 3 -47 13 -64 22 -23 10 -45 13 -78 8 l-47 -7 7 -49 c9 -66
-1 -100 -28 -100 -12 0 -30 7 -40 17 -10 9 -28 21 -41 27 -19 10 -23 22 -28
86 -7 82 -20 126 -55 181 -12 20 -26 54 -30 75 -6 33 -38 108 -74 176 -6 10
-7 24 -4 33 3 8 1 15 -6 15 -6 0 -8 -5 -4 -12 5 -7 3 -8 -5 -4 -7 5 -10 10 -7
13 3 3 0 15 -6 27 -7 11 -11 25 -10 30 2 5 -3 13 -10 17 -7 5 -13 16 -13 26 0
11 -15 23 -45 34 -52 19 -116 30 -124 22z m-416 -327 c0 -23 -26 -77 -33 -69
-4 3 -7 -1 -7 -11 0 -9 -4 -14 -10 -11 -12 8 -13 55 -1 55 5 0 7 10 4 23 -4
18 -3 19 6 7 9 -13 11 -13 11 3 0 9 7 17 15 17 8 0 15 -6 15 -14z"/>
<path d="M1570 3712 c-66 -33 -186 -150 -219 -212 -144 -275 -203 -407 -195
-435 4 -14 3 -16 -4 -7 -7 10 -16 -2 -36 -43 -14 -30 -26 -59 -26 -63 0 -15
-194 -392 -202 -392 -4 0 -8 -7 -8 -15 0 -19 -51 -118 -57 -111 -3 2 0 14 7
25 7 14 7 21 0 21 -13 0 -121 -163 -150 -229 l-23 -50 -76 -17 c-53 -11 -86
-14 -111 -8 -32 8 -295 1 -418 -12 l-52 -5 0 -295 0 -294 42 5 c24 3 67 7 97
9 29 3 54 6 56 8 6 6 147 253 190 333 24 44 58 107 77 140 l33 59 50 -2 c54
-3 68 3 78 32 4 10 10 17 12 14 3 -2 -9 -39 -25 -80 -62 -162 -150 -599 -150
-747 0 -17 -1 -31 -2 -31 -2 0 -75 -7 -163 -15 -88 -9 -190 -18 -227 -22 l-68
-6 0 -159 0 -158 57 7 c32 4 70 8 85 8 14 0 24 3 21 8 -2 4 8 7 24 8 45 2 84
6 152 18 70 11 77 10 68 -14 -5 -12 -23 -15 -86 -15 -44 0 -101 -4 -128 -10
-26 -5 -81 -14 -120 -20 l-73 -12 0 -34 c0 -20 3 -33 8 -31 4 3 88 15 187 27
99 12 189 23 201 25 13 3 28 22 42 52 29 63 78 222 93 300 6 35 18 71 26 80
13 17 14 16 8 -4 -8 -29 -8 -338 -1 -378 3 -16 9 -49 12 -73 5 -32 10 -42 23
-40 14 3 16 -6 12 -64 -3 -66 3 -80 26 -57 13 13 33 4 33 -15 0 -8 7 -19 15
-26 22 -19 82 31 107 89 45 105 152 487 163 586 8 71 7 392 -1 445 -14 83 -1
295 22 370 14 46 93 185 129 227 23 27 62 55 113 79 65 32 88 38 147 39 39 0
82 4 97 9 21 6 34 2 62 -19 l36 -27 0 23 c0 19 2 21 10 9 8 -13 13 -12 37 6
15 11 35 34 43 50 17 32 99 124 110 124 4 0 10 -15 12 -34 3 -24 -1 -37 -13
-44 -10 -6 -20 -26 -24 -44 -4 -18 -16 -45 -26 -60 -11 -14 -34 -53 -52 -85
l-33 -58 28 -60 c15 -33 28 -71 28 -84 0 -13 15 -51 34 -86 55 -102 83 -183
106 -305 14 -77 31 -132 50 -165 15 -27 35 -73 44 -101 10 -30 31 -64 52 -85
l36 -34 -14 29 c-10 24 -10 30 0 34 9 3 3 11 -16 22 -22 14 -31 28 -34 54 -5
43 1 44 43 9 30 -25 31 -26 25 -5 -9 28 5 28 30 1 10 -11 28 -26 39 -31 11 -6
1 10 -23 35 l-42 47 6 263 c6 260 6 263 -20 364 -14 56 -26 104 -26 108 0 16
23 -11 45 -53 26 -50 31 -48 16 6 -5 17 -6 32 -2 32 11 0 31 -47 31 -73 1 -19
2 -20 11 -5 7 12 2 60 -16 162 -31 179 -31 189 -5 157 l20 -23 0 43 c0 52 17
42 26 -16 3 -22 12 -47 20 -56 8 -8 14 -34 14 -57 0 -22 4 -52 10 -66 6 -16 6
-27 0 -31 -6 -4 -7 -17 -4 -31 5 -18 2 -24 -11 -24 -16 0 -17 -10 -12 -116 3
-63 8 -118 11 -121 3 -4 6 5 6 20 0 14 4 29 10 32 6 3 10 15 10 26 0 11 4 17
10 14 6 -4 6 4 0 21 -12 30 -6 59 9 49 6 -3 8 -13 5 -23 -5 -15 -4 -15 6 1 6
10 12 46 13 81 1 35 5 62 9 60 4 -3 6 28 4 68 -2 40 -2 62 1 48 2 -14 12 -36
23 -50 18 -24 18 -23 4 30 -19 72 -19 239 -1 246 11 4 13 30 10 117 -7 216 -9
226 -42 186 -14 -17 -20 -39 -21 -74 0 -27 -5 -66 -10 -86 -14 -49 -87 -158
-138 -206 -23 -21 -42 -46 -42 -55 0 -16 -25 -42 -52 -51 -19 -7 -114 28 -138
50 -12 11 -11 13 8 13 12 0 22 3 22 8 0 4 18 7 40 7 50 1 61 12 67 69 5 42 4
46 -16 46 -28 0 -29 47 -1 83 11 14 20 31 20 37 0 7 9 29 19 49 11 20 22 44
25 54 8 24 46 22 46 -3 0 -10 -6 -23 -13 -27 -7 -4 -18 -26 -25 -48 -10 -35
-10 -42 5 -52 9 -7 23 -13 30 -13 17 0 34 35 27 54 -4 9 -1 22 5 29 5 7 17 40
26 72 9 36 26 71 44 89 15 17 37 46 47 64 16 28 17 34 4 42 -12 7 -12 16 3 63
9 29 17 67 17 83 0 37 19 104 29 104 14 0 73 -91 92 -143 19 -52 42 -165 41
-200 -1 -15 2 -16 14 -7 17 15 15 17 20 -40 2 -25 6 -56 8 -70 2 -14 -1 -33
-6 -42 -5 -12 -5 -18 2 -18 5 0 10 7 10 16 0 8 4 13 9 10 4 -3 8 26 9 65 0 77
3 84 45 94 21 6 27 4 27 -9 0 -20 16 -21 24 -1 5 15 -9 21 -63 27 -21 3 -25 9
-28 45 -2 23 1 44 7 48 5 3 10 14 10 23 -1 15 -3 14 -17 -3 -12 -15 -14 -16
-10 -3 3 9 1 19 -6 22 -7 2 -4 5 6 5 17 1 21 11 18 41 -1 12 0 12 7 2 15 -22
37 15 33 56 -1 9 -9 11 -23 7 -22 -6 -22 -5 -4 9 15 12 17 18 7 30 -7 8 -20
12 -29 9 -13 -4 -14 -3 -4 5 11 7 6 16 -18 41 -46 46 -58 50 -153 52 l-86 3
-84 65 c-131 103 -252 153 -382 158 -71 3 -86 0 -135 -25z m579 -335 c-1 -45
-2 -48 -9 -22 -11 45 -11 87 0 80 6 -3 9 -30 9 -58z m264 -12 c-3 -9 -8 -14
-10 -11 -3 3 -2 9 2 15 9 16 15 13 8 -4z m-353 -11 c0 -8 -5 -12 -10 -9 -6 4
-8 11 -5 16 9 14 15 11 15 -7z m383 -19 c-3 -9 -8 -14 -10 -11 -3 3 -2 9 2 15
9 16 15 13 8 -4z m-302 -78 c-13 -13 -15 21 -3 50 6 15 8 13 10 -11 2 -16 -1
-33 -7 -39z m-986 -237 c-3 -5 -11 -10 -16 -10 -6 0 -7 5 -4 10 3 6 11 10 16
10 6 0 7 -4 4 -10z m-28 -82 c-3 -7 -5 -2 -5 12 0 14 2 19 5 13 2 -7 2 -19 0
-25z m703 -179 c0 -12 -29 -38 -42 -39 -13 0 -9 18 8 34 18 19 34 21 34 5z
m-780 -9 c0 -5 -5 -10 -11 -10 -5 0 -7 5 -4 10 3 6 8 10 11 10 2 0 4 -4 4 -10z
m-17 -50 c-5 -19 -23 -29 -23 -12 0 7 20 32 26 32 1 0 0 -9 -3 -20z m-28 -117
c-31 -60 -73 -136 -94 -170 -22 -35 -43 -73 -47 -85 -4 -13 -15 -34 -25 -47
-11 -13 -19 -29 -19 -35 0 -7 -7 -21 -16 -32 -15 -18 -15 -18 -9 10 3 15 13
35 20 43 8 8 15 22 15 31 0 9 7 30 15 45 8 15 17 44 21 63 4 20 13 38 20 41 8
3 14 12 14 20 0 8 4 12 8 9 11 -7 39 42 45 80 6 38 24 74 37 74 6 0 10 9 10
20 0 13 5 18 15 14 8 -4 17 1 21 10 3 9 10 16 15 16 5 0 -16 -48 -46 -107z
m1012 -145 c-3 -8 -6 -5 -6 6 -1 11 2 17 5 13 3 -3 4 -12 1 -19z m-1206 -89
c-12 -23 -21 -51 -21 -61 0 -20 -40 -101 -52 -106 -4 -2 -8 -11 -8 -19 0 -9
-11 -35 -24 -57 -23 -40 -50 -114 -76 -206 -26 -92 -32 -110 -37 -110 -15 0
26 153 84 315 24 68 115 257 136 283 19 24 18 3 -2 -39z m1079 -89 c12 -71 9
-100 -10 -100 -6 0 -10 26 -10 63 0 34 -3 72 -6 85 -4 12 -2 22 4 22 6 0 16
-32 22 -70z m100 -68 c0 -26 -4 -41 -10 -37 -5 3 -10 30 -10 58 0 37 3 48 10
37 5 -8 10 -34 10 -58z m-1215 -69 c-10 -26 -20 -42 -23 -34 -2 7 0 23 6 34 6
12 13 31 16 41 4 10 9 16 13 13 3 -4 -2 -28 -12 -54z m-165 -827 c0 -3 -4 -8
-10 -11 -5 -3 -10 -1 -10 4 0 6 5 11 10 11 6 0 10 -2 10 -4z m-157 -28 c7 -24
-7 -150 -23 -208 l-10 -38 -48 16 c-26 9 -69 16 -95 16 -45 1 -49 3 -54 28 -8
43 -28 53 -47 26 -9 -12 -16 -17 -16 -11 0 7 5 15 10 18 17 10 1 25 -28 25
-41 0 -59 15 -42 34 10 13 23 15 61 10 42 -6 49 -4 49 10 0 24 -47 38 -102 31
-40 -6 -48 -4 -48 9 0 19 32 24 371 55 9 0 19 -9 22 -21z m144 -35 c-3 -10 -5
-4 -5 12 0 17 2 24 5 18 2 -7 2 -21 0 -30z m-3 -203 c-11 -111 -18 -54 -8 69
7 80 10 94 12 56 2 -27 0 -84 -4 -125z m-403 12 c-5 -2 -7 -10 -4 -19 4 -11 3
-14 -6 -9 -8 5 -10 19 -5 39 10 47 19 56 22 22 2 -16 -1 -31 -7 -33z"/>
<path d="M710 3720 c0 -5 7 -10 16 -10 8 0 12 5 9 10 -3 6 -10 10 -16 10 -5 0
-9 -4 -9 -10z"/>
<path d="M198 3703 c7 -3 16 -2 19 1 4 3 -2 6 -13 5 -11 0 -14 -3 -6 -6z"/>
<path d="M1263 3658 c2 -8 16 -12 33 -10 46 5 48 18 3 21 -30 1 -40 -2 -36
-11z"/>
<path d="M2919 3652 c-9 -4 -35 -24 -59 -45 -37 -34 -44 -48 -61 -119 -14 -58
-27 -88 -45 -105 -14 -13 -34 -44 -46 -70 -18 -40 -19 -57 -13 -122 4 -42 9
-88 10 -103 2 -18 -1 -25 -10 -22 -8 4 -11 -3 -9 -18 7 -47 25 -113 35 -122 5
-6 9 -21 9 -35 0 -15 5 -33 10 -41 7 -11 10 -8 10 16 0 16 6 36 12 42 10 10
10 15 -2 22 -9 6 -10 10 -3 10 12 0 26 -17 29 -35 1 -5 6 -19 10 -29 5 -13 4
-17 -3 -13 -6 4 -13 -4 -17 -17 -3 -13 -15 -26 -27 -29 -11 -3 -18 -3 -15 0 3
4 -1 14 -10 24 -9 10 -14 25 -11 34 4 8 2 15 -3 15 -6 0 -10 12 -10 28 0 39
-20 103 -30 97 -4 -3 -7 -21 -6 -40 1 -26 -5 -42 -21 -57 -13 -12 -23 -29 -23
-39 0 -10 -5 -21 -11 -25 -8 -4 -9 1 -4 16 4 14 3 20 -3 16 -5 -3 -12 -23 -16
-45 -3 -21 -22 -63 -42 -92 -19 -29 -38 -67 -41 -83 -3 -17 -10 -39 -15 -49
-5 -10 -11 -38 -13 -63 -2 -25 -11 -56 -19 -69 -27 -41 13 -139 63 -152 69
-17 80 -38 107 -203 13 -80 14 -116 4 -228 -10 -115 -9 -142 5 -200 18 -77 54
-172 64 -172 6 0 31 -58 31 -72 0 -8 -91 -17 -107 -11 -7 3 -10 9 -7 14 3 5 0
9 -5 9 -18 0 -12 -19 9 -30 11 -6 42 -8 69 -5 l49 5 18 -56 c15 -50 19 -55 41
-49 13 3 23 1 23 -5 0 -6 -6 -8 -12 -5 -7 4 -6 1 2 -7 8 -7 16 -19 18 -26 1
-7 11 -23 22 -34 10 -11 22 -34 25 -50 6 -27 9 -29 48 -24 23 3 74 8 112 11
137 11 142 13 137 44 -2 18 -13 33 -28 40 -40 18 -29 35 22 34 15 -1 11 30 -5
35 -7 2 -19 -4 -27 -14 -13 -18 -15 -18 -25 -1 -11 18 -68 51 -76 44 -2 -3 5
-8 16 -12 24 -7 28 -35 5 -35 -8 0 -12 5 -9 10 3 6 -1 10 -10 10 -9 0 -13 -5
-10 -10 3 -6 2 -10 -4 -10 -5 0 -13 5 -16 10 -9 15 -35 12 -35 -5 0 -7 -6 -18
-14 -22 -8 -5 -13 -23 -12 -45 1 -48 -17 -50 -27 -2 -4 20 -16 49 -28 65 l-20
29 21 0 c12 0 30 5 41 10 10 6 40 15 66 19 42 8 61 5 153 -26 58 -19 114 -40
125 -48 19 -12 25 -8 73 45 52 58 61 75 42 82 -5 2 -31 24 -59 51 l-49 47 -30
-25 c-27 -23 -30 -23 -25 -5 3 11 9 18 13 15 14 -9 22 33 11 53 -6 11 -18 22
-27 26 -13 5 -15 21 -13 96 2 49 0 92 -3 95 -7 7 14 55 25 55 4 0 7 18 7 39 0
22 4 42 9 45 4 3 12 20 16 38 8 31 9 41 14 76 0 8 9 10 24 7 35 -9 74 10 81
39 3 14 12 26 19 26 15 0 20 67 6 75 -4 3 -6 12 -3 19 4 10 -5 12 -35 9 -44
-4 -52 2 -40 32 6 17 8 17 8 3 1 -10 5 -18 11 -18 5 0 14 8 19 18 9 15 15 11
53 -30 41 -46 45 -48 86 -44 80 9 101 17 123 49 12 18 29 38 38 45 13 10 13
16 3 32 -6 11 -12 28 -11 37 0 14 2 13 9 -5 12 -28 91 -102 103 -95 5 3 4 10
-1 15 -6 6 -5 18 2 34 15 32 28 31 16 -2 -12 -31 -12 -37 -1 -30 5 4 20 2 33
-3 27 -10 78 -3 78 10 0 5 -20 9 -45 9 -41 0 -45 2 -45 24 0 13 -6 26 -14 29
-7 3 -16 17 -18 31 -4 21 -1 26 16 26 20 1 20 2 4 14 -10 7 -18 18 -18 23 0
16 59 21 78 7 23 -18 42 -17 42 0 0 10 -16 17 -45 22 -28 4 -45 11 -45 20 0 8
7 14 15 14 8 0 15 -5 15 -11 0 -5 4 -8 9 -4 5 3 12 1 16 -5 8 -12 42 -13 49
-1 3 5 1 23 -5 41 -15 41 0 76 38 91 26 10 27 12 11 23 -23 17 -23 26 0 26 10
0 30 19 46 45 16 25 32 45 35 45 4 0 6 11 6 24 -2 27 -39 79 -50 68 -10 -9 3
15 27 50 11 17 15 29 8 33 -14 9 -13 62 2 67 7 3 22 3 34 0 17 -3 24 -15 33
-59 13 -64 9 -75 -27 -71 -20 2 -27 -2 -30 -17 -2 -15 -1 -17 6 -6 8 11 25 13
74 8 42 -5 58 -4 48 3 -12 8 -11 10 6 10 17 0 23 8 28 38 15 84 25 100 56 98
l30 -2 0 168 0 168 -85 0 c-84 0 -85 0 -85 25 0 15 -7 28 -16 32 -25 9 -49
-11 -47 -39 1 -17 -4 -24 -15 -24 -10 0 -43 -1 -74 -2 l-58 -2 0 -40 c0 -22 5
-40 10 -40 6 0 10 -5 10 -11 0 -5 -4 -7 -10 -4 -5 3 -10 -2 -10 -12 0 -16 7
-18 60 -15 l60 4 0 -55 c0 -60 -4 -64 -70 -63 -34 1 -35 2 -36 43 0 24 -4 46
-8 50 -4 4 -6 -51 -4 -123 2 -85 -1 -130 -7 -128 -12 5 -62 -89 -70 -131 -9
-49 -11 -54 -20 -62 -4 -4 -5 -2 -1 5 4 6 2 12 -3 12 -6 0 -11 -12 -11 -26 0
-23 -2 -25 -16 -13 -15 12 -16 11 -10 -8 5 -16 -2 -34 -30 -70 -20 -26 -41
-51 -48 -54 -6 -4 -42 -10 -81 -14 -38 -3 -74 -11 -79 -16 -13 -12 36 -12 87
0 45 11 47 1 6 -33 -41 -35 -85 -57 -94 -48 -4 4 -4 -4 0 -18 11 -36 14 -100
4 -105 -4 -3 -11 15 -15 40 -3 25 -9 44 -11 41 -3 -3 -16 -33 -29 -68 -21 -53
-24 -57 -20 -25 4 32 0 43 -27 75 -67 77 -64 75 -71 57 -3 -9 -11 -13 -17 -9
-8 4 -7 9 2 15 11 6 11 11 2 20 -9 9 -16 8 -29 -5 -23 -24 -30 -11 -10 20 10
14 16 27 14 28 -2 1 -24 10 -50 20 -53 20 -56 25 -30 49 22 20 82 22 101 5 11
-11 13 -10 9 2 -2 8 -27 21 -54 28 -71 20 -114 40 -114 53 0 6 7 9 15 6 27
-11 25 11 -4 34 -16 13 -27 27 -25 31 3 4 2 8 -3 8 -14 0 -35 59 -28 80 3 11
3 20 -2 21 -29 2 -59 11 -67 19 -6 6 -18 10 -28 10 -19 0 -58 55 -57 80 0 8 5
4 11 -10 9 -21 12 -22 15 -7 4 17 15 21 41 18 9 -2 7 4 -5 17 -10 10 -27 18
-37 18 -26 -1 -40 53 -30 114 l7 45 9 -45 c12 -56 30 -78 21 -25 -5 29 -3 36
6 31 7 -5 10 -10 7 -13 -6 -6 31 -43 43 -43 5 0 14 7 21 15 7 9 29 15 50 15
49 0 70 8 70 27 0 8 -4 11 -10 8 -5 -3 -12 6 -16 20 -5 20 -9 23 -20 14 -11
-9 -14 -8 -14 5 0 9 7 16 15 16 13 0 14 4 5 20 -6 11 -9 24 -6 28 2 4 -3 23
-11 42 -9 19 -17 42 -18 51 -2 18 26 22 38 5 4 -7 9 -3 13 12 4 12 11 22 16
22 6 0 8 -7 4 -15 -3 -9 0 -15 9 -15 8 0 15 3 15 8 -1 15 -25 39 -37 35 -6 -2
-13 2 -16 9 -2 7 -3 5 -2 -4 2 -9 -4 -19 -12 -22 -21 -8 -25 -7 -18 4 3 6 2
10 -3 10 -5 0 -7 11 -5 24 3 16 -2 30 -15 41 -18 16 -18 20 -5 46 8 16 18 31
24 34 5 4 9 17 9 30 0 13 6 25 12 27 7 3 -17 19 -54 37 -67 33 -164 49 -199
33z m191 -299 c0 -10 3 -29 5 -43 l6 -25 -12 25 c-17 36 -20 60 -9 60 6 0 10
-8 10 -17z m-84 -35 c5 -8 2 -9 -10 -5 -13 5 -17 3 -13 -6 3 -8 1 -20 -3 -28
-7 -11 -10 -10 -16 4 -6 17 11 47 27 47 4 0 11 -5 15 -12z m929 -48 c3 -5 -3
-10 -14 -10 -12 0 -21 5 -21 10 0 6 6 10 14 10 8 0 18 -4 21 -10z m75 0 c0 -5
-12 -10 -27 -10 -22 0 -25 2 -13 10 20 13 40 13 40 0z m-1003 -27 c3 -7 -3 -9
-16 -6 -12 3 -21 10 -21 15 0 13 32 6 37 -9z m1003 -17 c0 -3 -4 -8 -10 -11
-5 -3 -10 -1 -10 4 0 6 5 11 10 11 6 0 10 -2 10 -4z m120 -85 c0 -10 -100 -20
-106 -10 -7 11 6 15 56 18 27 1 50 -2 50 -8z m60 -1 c0 -5 -9 -10 -20 -10 -11
0 -20 5 -20 10 0 6 9 10 20 10 11 0 20 -4 20 -10z m65 0 c-3 -5 -13 -10 -21
-10 -8 0 -14 5 -14 10 0 6 9 10 21 10 11 0 17 -4 14 -10z m-120 -47 c3 -10
-11 -13 -54 -13 -42 0 -58 4 -58 14 0 18 105 17 112 -1z m46 -11 c-28 -4 -40
6 -21 18 9 6 20 4 29 -3 12 -10 11 -13 -8 -15z m63 8 c-10 -4 -21 -6 -24 -3
-8 7 24 22 34 16 5 -4 1 -10 -10 -13z m-298 -210 c6 -28 8 -52 6 -55 -10 -10
-32 18 -32 41 0 29 -16 32 -25 4 -6 -20 -25 -28 -25 -11 0 12 49 71 59 71 4 0
12 -23 17 -50z m-1290 15 c1 -8 -2 -15 -7 -15 -5 0 -9 10 -9 22 0 23 12 17 16
-7z m434 -50 c0 -8 -4 -15 -10 -15 -5 0 -10 7 -10 15 0 8 5 15 10 15 6 0 10
-7 10 -15z m-512 -57 c-9 -24 -16 -56 -17 -72 -1 -36 -8 -45 -17 -21 -4 10 1
39 10 64 15 39 21 59 25 80 1 2 4 1 7 -2 4 -4 0 -26 -8 -49z m139 -30 c-3 -8
-6 -5 -6 6 -1 11 2 17 5 13 3 -3 4 -12 1 -19z m-7 -49 c0 -6 -4 -7 -10 -4 -5
3 -10 11 -10 16 0 6 5 7 10 4 6 -3 10 -11 10 -16z m45 11 c3 -5 -1 -10 -9 -10
-9 0 -16 5 -16 10 0 6 4 10 9 10 6 0 13 -4 16 -10z m-65 -32 c0 -6 -6 -5 -15
2 -8 7 -15 14 -15 16 0 2 7 1 15 -2 8 -4 15 -11 15 -16z m57 -18 c-1 -17 -3
-18 -15 -6 -8 8 -11 19 -7 25 9 16 24 4 22 -19z m3 -50 c0 -5 -2 -10 -4 -10
-3 0 -8 5 -11 10 -3 6 -1 10 4 10 6 0 11 -4 11 -10z m-20 -36 c0 -8 -4 -14
-10 -14 -5 0 -10 9 -10 21 0 11 5 17 10 14 6 -3 10 -13 10 -21z m996 -120 c-4
-9 -9 -15 -11 -12 -3 3 -3 13 1 22 4 9 9 15 11 12 3 -3 3 -13 -1 -22z m-31
-52 c-8 -9 -35 20 -28 31 4 6 11 3 19 -8 8 -10 12 -21 9 -23z m-90 18 c3 -5 2
-10 -4 -10 -5 0 -13 5 -16 10 -3 6 -2 10 4 10 5 0 13 -4 16 -10z m57 -27 c15
-15 28 -33 28 -41 0 -8 6 -12 15 -8 8 3 14 2 14 -2 -4 -24 3 -42 16 -42 8 0
15 -4 15 -10 0 -5 -3 -10 -7 -10 -13 1 -43 26 -43 36 0 5 -18 28 -40 52 -22
24 -40 45 -40 47 0 12 16 3 42 -22z m-62 -57 c0 -6 -7 -2 -15 8 -8 11 -15 25
-15 30 0 6 7 2 15 -8 8 -11 15 -25 15 -30z m-345 -44 c0 -28 4 -36 15 -34 8 2
11 0 7 -4 -4 -4 -14 -9 -22 -10 -12 -2 -15 10 -15 49 0 27 3 47 8 43 4 -4 7
-24 7 -44z m39 -15 c-10 -6 -20 -5 -27 3 -9 10 -9 11 2 5 10 -6 11 -2 6 16 -8
24 -8 24 14 5 19 -18 20 -21 5 -29z m-54 -164 c-3 -43 -1 -49 11 -33 9 12 10
12 5 -3 -3 -10 -6 -23 -6 -28 0 -5 -7 -9 -16 -9 -14 0 -15 7 -10 38 3 20 6 43
6 50 0 6 3 12 6 12 3 0 5 -12 4 -27z m-130 9 c0 -5 -7 -9 -15 -9 -8 0 -15 4
-15 9 0 4 7 8 15 8 8 0 15 -4 15 -8z m-23 -38 c-3 -3 -12 -4 -19 -1 -8 3 -5 6
6 6 11 1 17 -2 13 -5z m-406 -37 c-10 -9 -11 -8 -5 6 3 10 9 15 12 12 3 -3 0
-11 -7 -18z m390 -1 c-9 -11 -9 -15 0 -18 7 -2 9 -10 5 -16 -12 -20 -21 -13
-23 18 -2 22 2 30 14 30 12 0 13 -3 4 -14z m41 -51 c-2 -19 -8 -33 -12 -30 -5
3 -13 -3 -19 -12 -9 -16 -12 -16 -21 -3 -13 19 -13 43 0 35 5 -3 15 5 22 19
17 38 35 33 30 -9z m76 15 c5 -13 3 -13 -11 -2 -9 8 -21 11 -26 8 -5 -4 -13
-1 -16 5 -5 7 2 9 21 7 15 -2 30 -10 32 -18z m62 -6 c0 -2 -7 -4 -15 -4 -8 0
-15 4 -15 10 0 5 7 7 15 4 8 -4 15 -8 15 -10z m-33 -66 c-3 -7 -5 -2 -5 12 0
14 2 19 5 13 2 -7 2 -19 0 -25z m-63 -34 c-11 -26 -12 -40 -5 -47 14 -14 14
-40 1 -32 -5 3 -7 0 -4 -9 3 -8 -1 -34 -9 -58 -10 -29 -12 -47 -5 -55 13 -16
1 -53 -18 -53 -8 0 -14 5 -14 10 0 17 -2 24 -17 62 -13 32 -13 42 -2 68 8 16
17 30 21 30 5 0 7 3 6 8 -1 8 6 29 29 80 19 44 36 41 17 -4z m-84 7 c0 -5 -9
-11 -20 -14 -24 -6 -27 -27 -4 -27 13 0 14 -3 4 -14 -6 -8 -17 -13 -25 -10
-12 5 -11 22 1 62 4 14 44 17 44 3z m-30 -241 c0 -5 -4 -10 -10 -10 -5 0 -10
5 -10 10 0 6 5 10 10 10 6 0 10 -4 10 -10z m0 -30 c0 -5 -7 -10 -15 -10 -8 0
-15 5 -15 10 0 6 7 10 15 10 8 0 15 -4 15 -10z m85 -13 c28 -4 27 -4 -7 -6
-36 -1 -54 9 -41 23 4 3 9 2 12 -3 3 -5 20 -11 36 -14z m-50 -326 c3 -6 -3
-15 -14 -20 -27 -15 -30 -14 -28 9 1 21 31 28 42 11z m-75 -11 c0 -5 -5 -10
-11 -10 -5 0 -7 5 -4 10 3 6 8 10 11 10 2 0 4 -4 4 -10z m94 -54 c-3 -9 -10
-16 -15 -16 -5 0 -4 9 3 20 14 22 21 20 12 -4z"/>
<path d="M370 3629 c0 -11 5 -17 10 -14 6 3 10 13 10 21 0 8 -4 14 -10 14 -5
0 -10 -9 -10 -21z"/>
<path d="M110 3625 c0 -8 8 -19 18 -24 14 -7 17 -5 18 15 1 17 -3 24 -17 24
-10 0 -19 -7 -19 -15z"/>
<path d="M1367 3613 c-4 -3 -7 -11 -7 -17 0 -6 5 -5 12 2 6 6 9 14 7 17 -3 3
-9 2 -12 -2z"/>
<path d="M5857 3563 c-2 -1 -26 -5 -53 -6 -60 -4 -159 -53 -208 -102 -39 -39
-50 -76 -44 -159 3 -52 2 -55 -12 -36 -18 23 -33 16 -22 -9 11 -24 6 -70 -12
-119 -14 -36 -14 -47 -4 -66 64 -115 60 -101 58 -197 -1 -62 14 -73 90 -66 48
4 60 2 60 -9 0 -8 12 -37 26 -64 35 -67 43 -157 17 -185 -58 -61 -245 -426
-264 -515 -11 -51 -6 -381 6 -400 3 -5 -11 -12 -32 -15 -21 -3 -46 -10 -55
-16 -26 -13 -31 -11 -25 10 3 13 -3 22 -20 30 -32 15 -38 14 -23 -4 10 -12 10
-16 -1 -20 -15 -5 -84 0 -136 11 l-33 6 0 135 0 134 -80 -7 c-45 -4 -98 -13
-118 -20 -37 -14 -37 -14 23 -9 33 3 81 8 108 11 36 5 47 3 47 -8 0 -8 -5 -19
-11 -25 -6 -6 -11 -26 -12 -44 -2 -32 -4 -34 -47 -41 -25 -3 -66 -7 -92 -7
-29 -1 -48 -6 -48 -12 0 -11 44 -9 170 8 41 5 52 -7 12 -14 -13 -3 -172 -22
-190 -23 -1 0 3 -8 9 -18 10 -16 20 -17 81 -10 38 4 75 12 82 17 7 6 16 8 19
4 4 -3 7 0 7 8 0 11 2 11 10 -1 5 -8 10 -28 10 -44 0 -28 -1 -29 -42 -22 -24
3 -87 9 -140 12 l-98 7 0 -36 c0 -20 5 -39 10 -42 15 -9 12 -25 -5 -25 -8 0
-15 -5 -15 -10 0 -6 15 -8 38 -5 20 3 89 12 152 20 64 7 123 17 133 20 10 5
17 2 17 -5 0 -6 -8 -14 -19 -17 -12 -3 -18 -14 -18 -29 0 -19 5 -24 26 -24 14
0 32 -4 40 -9 17 -11 -25 -17 -174 -26 -55 -4 -103 -9 -107 -13 -20 -20 -38
-309 -21 -326 4 -4 7 -35 5 -69 -1 -34 2 -68 7 -76 9 -15 113 -16 302 -3 103
8 129 6 129 -9 0 -5 -21 -9 -46 -9 -25 0 -43 -4 -40 -9 3 -4 78 -8 166 -9 94
0 158 3 154 9 -3 5 1 9 8 9 11 0 315 38 328 41 3 1 -8 4 -24 8 -38 8 -43 25
-15 48 12 10 31 29 43 42 12 14 29 33 39 43 9 10 17 22 17 28 0 5 27 15 60 22
65 13 62 27 -5 29 -38 1 -39 1 -15 12 14 7 25 18 26 25 1 6 2 23 3 37 0 14 7
25 14 25 8 0 20 11 27 25 7 14 22 25 32 25 11 0 17 4 13 9 -9 16 15 24 105 32
181 17 188 -4 78 -227 -22 -45 -51 -92 -65 -105 -13 -13 -35 -34 -47 -47 -20
-19 -31 -22 -64 -16 -35 5 -41 4 -47 -15 -5 -18 -14 -21 -66 -21 -32 0 -59 -4
-59 -9 0 -5 -27 -12 -61 -16 -51 -6 -62 -11 -69 -31 -7 -17 -17 -24 -35 -24
-16 0 -46 -16 -73 -38 -26 -22 -62 -45 -79 -52 -18 -7 -33 -16 -33 -21 0 -15
-69 -41 -112 -41 -64 -1 -188 -20 -188 -29 0 -4 5 -11 10 -14 6 -4 7 -11 4
-17 -5 -7 11 -8 52 -3 67 8 208 8 270 -1 24 -3 51 -1 62 5 17 9 23 8 31 -7 6
-11 48 -44 94 -75 l84 -57 104 -1 104 -2 -105 -7 c-115 -9 -116 -8 -208 53
-46 32 -56 35 -82 25 -39 -13 -45 -25 -18 -34 13 -4 47 -25 77 -48 94 -72 58
-68 498 -56 219 6 450 15 513 20 168 15 341 -17 316 -59 -4 -6 -29 -11 -55
-11 -54 0 -114 -17 -105 -31 7 -12 131 -11 154 1 11 6 48 11 82 12 60 2 66 0
123 -42 66 -49 99 -53 164 -21 20 10 68 24 106 30 39 7 86 17 106 22 20 5 43
9 52 9 9 0 28 5 42 10 23 9 25 13 15 25 -15 18 -43 19 -69 3 -15 -9 -25 -9
-46 0 -14 7 -54 12 -89 12 -34 0 -69 6 -78 12 -9 7 -22 40 -28 73 -13 67 -54
205 -71 238 -6 12 -21 32 -32 45 -17 18 -19 26 -10 41 10 16 8 17 -13 13 -13
-2 -27 -8 -30 -13 -3 -5 -27 -9 -54 -9 -27 0 -51 -4 -54 -9 -7 -11 -90 -33
-141 -36 -22 -2 -31 -1 -19 2 19 3 22 13 28 81 3 42 11 94 16 114 14 49 -23
183 -47 173 -20 -7 -532 -105 -551 -105 -12 0 -12 4 3 20 10 11 22 20 26 20 5
0 37 29 73 65 l65 65 190 0 c116 0 192 4 196 10 8 13 7 13 -187 10 -104 -1
-168 1 -168 7 0 6 28 38 62 72 47 47 68 61 83 57 11 -3 35 -6 54 -6 19 0 31
-3 28 -7 -13 -12 15 -33 44 -33 15 0 31 -5 35 -12 5 -7 2 -9 -7 -4 -8 4 -5 0
5 -8 27 -22 33 -20 38 8 4 22 0 26 -39 35 -53 14 -57 25 -4 16 l39 -6 -17 95
c-10 53 -20 98 -24 102 -6 6 -19 -13 -59 -85 -9 -17 -21 -31 -26 -31 -5 0 -58
36 -117 81 -154 114 -244 166 -256 148 -8 -13 -13 -44 -10 -63 1 -5 -7 -18
-17 -30 -11 -11 -27 -36 -36 -53 -9 -18 -21 -33 -26 -33 -6 0 -10 -6 -10 -14
0 -8 -4 -17 -10 -21 -11 -7 -93 43 -86 53 6 10 -13 33 -62 71 -42 33 -50 51
-15 36 27 -12 125 -16 118 -5 -4 6 9 10 29 10 50 0 45 17 -6 25 -24 4 -53 13
-66 21 -17 11 -27 12 -43 4 -22 -12 -49 -7 -49 10 0 5 13 10 29 10 31 0 57 22
46 40 -4 6 -16 8 -28 4 -18 -6 -19 -5 -7 7 8 8 34 21 57 28 33 11 40 17 32 27
-8 10 -16 10 -35 2 -18 -8 -40 -8 -82 -1 -32 6 -70 9 -84 6 -20 -4 -29 0 -38
17 -9 17 -7 28 11 58 20 35 33 122 17 122 -4 0 -16 -9 -27 -21 -13 -14 -21
-17 -26 -9 -10 16 14 40 61 61 23 9 45 22 48 28 10 15 27 14 23 -1 -1 -9 8
-12 28 -11 17 1 24 0 18 -3 -19 -8 -16 -24 5 -24 10 0 22 -3 25 -6 4 -4 20 -8
36 -9 31 -3 96 -47 112 -76 5 -10 18 -23 27 -28 16 -9 16 -4 -4 37 -16 33 -41
60 -82 89 -32 24 -64 54 -72 68 -12 22 -11 27 5 45 37 41 85 16 85 -44 0 -30
15 -42 24 -19 7 17 -10 79 -28 100 -45 56 -111 97 -144 91 -28 -5 -25 -41 8
-75 38 -40 38 -48 -1 -62 -45 -15 -47 -15 -54 19 -10 44 -22 45 -30 2 -6 -37
-52 -118 -61 -109 -4 4 15 55 37 99 5 10 9 31 9 46 0 43 20 92 37 92 11 0 14
8 11 30 -5 35 2 38 27 10 25 -28 37 -25 23 5 -6 14 -15 25 -19 25 -5 0 -21 21
-36 48 -15 26 -33 53 -40 60 -18 18 -16 59 2 66 8 3 15 10 15 16 0 5 -7 10
-15 10 -8 0 -15 -3 -15 -7 0 -5 -18 -26 -40 -48 -21 -22 -39 -47 -40 -55 0 -8
-9 -26 -20 -40 -11 -14 -20 -30 -20 -36 0 -6 -9 -28 -20 -50 -14 -28 -19 -32
-16 -14 18 96 18 103 4 89 -8 -8 -18 -23 -23 -34 -8 -18 -9 -17 -13 8 -3 27
-4 27 -68 -38 -35 -37 -64 -68 -64 -71 0 -2 -18 -33 -40 -68 -22 -35 -40 -68
-40 -75 0 -17 -60 -96 -61 -80 -1 8 -4 3 -8 -10 -5 -20 -8 -22 -19 -9 -10 12
-7 24 14 64 14 27 39 74 55 104 17 30 61 106 100 169 38 63 69 121 68 130 -2
9 29 49 68 90 l70 74 56 -5 c32 -3 57 -1 57 5 0 5 7 6 16 3 11 -4 15 -2 11 7
-3 7 -15 49 -27 92 -12 43 -28 88 -35 100 -22 35 -29 69 -14 63 16 -6 16 8 -6
194 -25 209 -81 340 -167 388 -34 19 -132 42 -141 33z m-280 -409 c-16 -17
-34 6 -29 37 l5 34 15 -33 c9 -17 13 -35 9 -38z m184 -328 c0 -98 0 -103 -11
-86 -5 8 -7 23 -4 33 3 9 0 17 -6 17 -9 0 -9 75 0 135 4 30 21 -48 21 -99z
m229 -94 c0 -4 -7 -18 -16 -30 -15 -22 -11 -62 7 -62 5 0 9 4 9 8 0 11 60 45
67 38 7 -7 -52 -81 -80 -101 -12 -8 -32 -15 -44 -15 -27 0 -27 -1 -11 -35 10
-22 8 -30 -12 -57 -22 -30 -106 -177 -185 -323 -32 -60 -87 -203 -99 -260 -10
-43 -55 -194 -71 -235 l-14 -35 0 40 c0 22 4 69 9 104 8 60 7 67 -18 110 -37
63 -36 131 3 210 28 55 45 75 45 51 0 -5 7 -7 15 -4 20 8 58 79 77 144 53 178
74 235 88 235 18 0 15 -35 -5 -51 -7 -5 -10 -16 -6 -22 9 -16 27 4 67 73 71
124 174 253 174 217z m-183 -214 c-3 -8 -6 -5 -6 6 -1 11 2 17 5 13 3 -3 4
-12 1 -19z m304 -343 c-21 -45 -43 -47 -34 -2 7 34 34 62 44 46 3 -6 -1 -26
-10 -44z m255 -62 c-3 -4 -6 -1 -6 5 0 7 -5 12 -11 12 -6 0 -9 -7 -5 -15 3 -8
1 -15 -4 -15 -15 0 -12 38 3 43 13 4 33 -21 23 -30z m-266 -13 c0 -5 -4 -12
-10 -15 -5 -3 -10 -4 -10 -1 0 2 -3 12 -6 20 -5 12 -2 15 10 10 9 -3 16 -10
16 -14z m-335 -150 c8 7 16 7 19 1 3 -5 -12 -18 -34 -30 -22 -11 -41 -20 -41
-18 -1 1 -3 12 -4 25 -2 15 2 21 10 18 7 -2 16 5 20 17 l8 22 4 -23 c4 -18 8
-21 18 -12z m506 -143 c-1 -4 -1 -13 -1 -20 0 -6 -16 -17 -35 -23 -27 -9 -35
-8 -35 2 0 7 -3 19 -6 27 -4 12 3 17 28 20 41 5 50 4 49 -6z m-31 -123 c11
-12 10 -18 -3 -31 -21 -21 -47 -9 -47 22 0 29 29 35 50 9z m-460 -41 c0 -9 6
-24 14 -32 28 -32 28 -58 2 -79 -14 -10 -23 -22 -20 -24 2 -3 0 -17 -5 -32 -8
-20 -17 -26 -41 -26 -24 0 -31 5 -35 28 -4 15 -10 45 -15 66 -9 41 -2 64 28
99 20 23 72 23 72 0z m-416 -51 c2 -4 -4 -9 -16 -9 -11 -1 -28 -11 -37 -22
-10 -11 -21 -18 -24 -15 -8 8 27 41 50 47 10 3 19 5 20 6 1 0 4 -3 7 -7z m4
-46 c-7 -8 -15 -12 -17 -11 -5 6 10 25 20 25 5 0 4 -6 -3 -14z m1532 -587 c0
-93 -3 -120 -12 -117 -7 3 -44 11 -81 19 -55 10 -70 10 -76 0 -4 -6 -6 -66 -4
-132 5 -136 10 -130 -84 -105 -70 19 -78 24 -59 45 19 21 35 92 36 159 0 41
-5 56 -22 72 -13 12 -32 29 -43 39 -11 10 -28 21 -37 24 -10 4 -18 13 -18 21
0 15 18 21 95 31 28 4 67 11 88 16 34 9 40 7 58 -13 l19 -23 -6 30 c-5 29 -5
29 12 10 14 -17 16 -17 11 -2 -9 24 14 22 41 -3 l22 -21 0 21 c0 11 -6 20 -12
21 -12 0 47 27 65 28 4 1 7 -53 7 -120z m-553 35 c-3 -3 -12 -4 -19 -1 -8 3
-5 6 6 6 11 1 17 -2 13 -5z m153 -44 c0 -6 -7 -13 -15 -16 -20 -8 -48 3 -40
16 8 13 55 13 55 0z m-590 -151 c0 -5 -9 -9 -20 -9 -19 0 -26 11 -14 23 8 8
34 -3 34 -14z m313 -246 c-13 -2 -33 -2 -45 0 -13 2 -3 4 22 4 25 0 35 -2 23
-4z"/>
<path d="M5786 2405 c-9 -13 -16 -31 -16 -40 0 -8 -4 -15 -10 -15 -5 0 -18
-21 -30 -46 -23 -53 -23 -54 -12 -54 5 0 15 18 22 41 8 23 20 43 27 46 7 3 13
13 13 23 0 11 4 21 9 24 8 5 23 46 16 46 -1 0 -10 -11 -19 -25z"/>
<path d="M5711 2344 c0 -11 3 -14 6 -6 3 7 2 16 -1 19 -3 4 -6 -2 -5 -13z"/>
<path d="M5695 2230 c-3 -5 -1 -10 4 -10 6 0 11 5 11 10 0 6 -2 10 -4 10 -3 0
-8 -4 -11 -10z"/>
<path d="M5670 2184 c-13 -33 -13 -37 3 -23 12 12 21 49 11 49 -2 0 -9 -12
-14 -26z"/>
<path d="M5632 2118 c-5 -7 -13 -24 -17 -37 -11 -35 11 -18 23 19 12 32 10 37
-6 18z"/>
<path d="M6700 1019 c-12 -7 -12 -9 3 -9 10 0 16 -4 13 -9 -6 -10 24 -25 32
-16 3 3 0 5 -6 5 -7 0 -12 6 -12 14 0 20 -13 27 -30 15z"/>
<path d="M6788 1003 c6 -2 18 -2 25 0 6 3 1 5 -13 5 -14 0 -19 -2 -12 -5z"/>
<path d="M6645 970 c-3 -5 -1 -18 4 -27 6 -10 11 -12 11 -6 0 9 10 11 30 7 23
-5 30 -3 30 9 0 10 -6 14 -15 11 -8 -4 -15 -1 -15 5 0 14 -37 15 -45 1z"/>
<path d="M6800 930 c0 -5 5 -10 10 -10 6 0 10 5 10 10 0 6 -4 10 -10 10 -5 0
-10 -4 -10 -10z"/>
<path d="M4462 3513 c-6 -12 -9 -29 -6 -37 5 -13 -4 -16 -57 -18 -99 -2 -153
-5 -469 -22 -440 -23 -579 -30 -642 -31 -34 0 -57 -4 -55 -10 3 -6 39 -9 90
-7 l87 4 0 -32 c0 -39 23 -36 28 3 2 15 9 27 15 27 7 1 46 3 87 6 111 7 706
34 751 34 34 0 38 -3 41 -27 4 -36 32 -37 36 -1 2 19 11 28 29 33 44 11 176 3
191 -11 9 -10 12 -39 10 -101 l-3 -88 -17 35 -17 34 -6 -29 c-4 -17 -8 -35
-10 -42 -6 -18 16 -28 26 -12 6 10 11 11 19 3 11 -11 16 -179 40 -1204 6 -256
12 -478 14 -495 5 -45 -4 979 -13 1460 -5 231 -6 437 -3 459 l4 38 -38 -6
c-104 -15 -109 -14 -114 24 -5 33 -6 34 -18 13z"/>
<path d="M530 3510 c0 -5 7 -10 16 -10 8 0 12 5 9 10 -3 6 -10 10 -16 10 -5 0
-9 -4 -9 -10z"/>
<path d="M615 3510 c-4 -7 -1 -16 6 -21 23 -14 32 -10 18 9 -7 9 -14 18 -15
20 -1 2 -5 -2 -9 -8z"/>
<path d="M3491 3474 c0 -11 3 -14 6 -6 3 7 2 16 -1 19 -3 4 -6 -2 -5 -13z"/>
<path d="M175 3460 c-3 -5 -1 -10 4 -10 6 0 11 5 11 10 0 6 -2 10 -4 10 -3 0
-8 -4 -11 -10z"/>
<path d="M810 3450 c0 -5 10 -10 23 -10 18 0 19 2 7 10 -19 13 -30 13 -30 0z"/>
<path d="M2250 3379 c0 -8 7 -43 15 -79 9 -36 17 -87 19 -115 l4 -50 -11 48
c-5 26 -16 47 -23 47 -37 0 -4 -325 35 -338 9 -3 11 0 6 8 -4 7 -2 16 6 21 11
6 14 40 13 151 -1 124 -5 154 -28 227 -26 84 -36 107 -36 80z"/>
<path d="M2640 3370 c0 -5 4 -10 9 -10 6 0 13 5 16 10 3 6 -1 10 -9 10 -9 0
-16 -4 -16 -10z"/>
<path d="M4460 3340 c30 -10 65 -19 78 -19 27 -1 30 18 2 21 -11 1 -32 2 -47
4 -16 1 -41 4 -58 8 -16 3 -5 -3 25 -14z"/>
<path d="M950 3331 c0 -6 5 -13 10 -16 6 -3 10 1 10 9 0 9 -4 16 -10 16 -5 0
-10 -4 -10 -9z"/>
<path d="M3237 3312 c-10 -10 -17 -24 -17 -30 0 -17 20 -15 26 3 4 8 10 15 16
15 5 0 6 -5 2 -12 -4 -7 -3 -8 4 -4 9 5 9 13 2 27 -13 23 -13 23 -33 1z"/>
<path d="M3532 3261 c-8 -4 -12 -19 -10 -32 2 -19 9 -24 33 -24 33 0 45 25 25
50 -14 17 -29 19 -48 6z"/>
<path d="M3226 3245 c-9 -26 -7 -32 5 -12 6 10 9 21 6 23 -2 3 -7 -2 -11 -11z"/>
<path d="M4395 3220 c3 -5 21 -12 40 -16 20 -3 37 -10 40 -14 6 -9 53 -1 60
11 3 4 -16 10 -42 14 -27 3 -61 8 -76 10 -16 3 -26 1 -22 -5z"/>
<path d="M3950 3137 c0 -23 29 -34 41 -16 15 24 10 37 -16 35 -17 -1 -25 -7
-25 -19z"/>
<path d="M3411 3102 c-15 -29 -14 -32 13 -32 33 0 37 11 16 33 -18 18 -19 18
-29 -1z"/>
<path d="M3330 3100 c0 -5 5 -10 11 -10 5 0 7 5 4 10 -3 6 -8 10 -11 10 -2 0
-4 -4 -4 -10z"/>
<path d="M220 3072 c0 -18 26 -31 48 -25 27 7 29 23 3 23 -11 0 -26 3 -35 6
-9 3 -16 2 -16 -4z"/>
<path d="M305 3063 c14 -15 82 -25 89 -14 3 5 -4 9 -17 8 -12 0 -35 3 -52 8
-20 5 -27 4 -20 -2z"/>
<path d="M4485 3019 c-5 -5 -21 -18 -35 -29 -14 -11 -20 -19 -15 -19 6 0 26
13 45 29 19 16 31 29 25 29 -5 0 -14 -4 -20 -10z"/>
<path d="M3090 3013 c1 -4 7 -19 14 -32 9 -16 15 -20 21 -12 4 7 -2 21 -14 32
-12 11 -21 16 -21 12z"/>
<path d="M3558 3003 c7 -3 16 -2 19 1 4 3 -2 6 -13 5 -11 0 -14 -3 -6 -6z"/>
<path d="M3398 2973 c7 -3 16 -2 19 1 4 3 -2 6 -13 5 -11 0 -14 -3 -6 -6z"/>
<path d="M2341 2923 c1 -26 3 -40 6 -30 2 9 9 17 14 17 15 0 6 53 -8 58 -9 2
-13 -10 -12 -45z"/>
<path d="M3321 2947 c-19 -11 -29 -23 -22 -25 7 -2 20 3 30 12 10 9 23 16 29
16 6 0 14 5 17 10 10 16 -18 10 -54 -13z"/>
<path d="M4272 2955 c-7 -8 -8 -15 -3 -15 5 0 12 -12 14 -27 3 -20 4 -15 6 15
1 47 1 47 -17 27z"/>
<path d="M4522 2945 c0 -16 2 -22 5 -12 2 9 2 23 0 30 -3 6 -5 -1 -5 -18z"/>
<path d="M3621 2904 c0 -11 3 -14 6 -6 3 7 2 16 -1 19 -3 4 -6 -2 -5 -13z"/>
<path d="M3570 2896 c0 -9 5 -16 10 -16 6 0 10 4 10 9 0 6 -4 13 -10 16 -5 3
-10 -1 -10 -9z"/>
<path d="M2374 2875 c-9 -14 -23 -25 -31 -25 -13 0 -14 -9 -9 -52 4 -29 9 -54
11 -56 8 -8 28 12 40 42 21 53 28 79 18 73 -6 -4 -8 4 -5 18 6 32 -3 32 -24 0z"/>
<path d="M3115 2890 c3 -5 11 -10 16 -10 6 0 7 5 4 10 -3 6 -11 10 -16 10 -6
0 -7 -4 -4 -10z"/>
<path d="M3520 2885 c0 -8 5 -15 10 -15 6 0 10 7 10 15 0 8 -4 15 -10 15 -5 0
-10 -7 -10 -15z"/>
<path d="M3463 2875 c0 -8 6 -15 14 -15 7 0 13 7 13 15 0 8 -6 15 -13 15 -8 0
-14 -7 -14 -15z"/>
<path d="M521 2864 c13 -16 29 -19 29 -5 0 5 -9 11 -21 14 -16 4 -18 3 -8 -9z"/>
<path d="M3416 2872 c-3 -6 -1 -14 5 -17 15 -10 25 3 12 16 -7 7 -13 7 -17 1z"/>
<path d="M3310 2850 c0 -11 7 -20 15 -20 17 0 18 2 9 24 -9 23 -24 20 -24 -4z"/>
<path d="M3370 2856 c0 -9 5 -16 10 -16 6 0 10 4 10 9 0 6 -4 13 -10 16 -5 3
-10 -1 -10 -9z"/>
<path d="M3270 2840 c0 -11 5 -20 10 -20 6 0 10 9 10 20 0 11 -4 20 -10 20 -5
0 -10 -9 -10 -20z"/>
<path d="M3220 2822 c0 -5 9 -17 21 -28 21 -19 21 -19 8 9 -12 26 -29 37 -29
19z"/>
<path d="M3328 2801 c-46 -7 -66 -16 -56 -26 7 -7 121 15 133 26 10 10 -4 10
-77 0z"/>
<path d="M20 2773 c0 -5 7 -18 15 -29 15 -18 15 -18 13 5 -3 23 -28 44 -28 24z"/>
<path d="M3553 2767 c-29 -5 -53 -14 -53 -19 0 -17 30 -20 61 -4 18 9 45 16
61 16 15 0 28 5 28 10 0 12 -26 11 -97 -3z"/>
<path d="M4407 2767 c-4 -10 6 -18 32 -26 51 -15 71 -14 71 3 0 19 -9 24 -57
32 -30 5 -41 3 -46 -9z"/>
<path d="M3348 2763 c6 -2 18 -2 25 0 6 3 1 5 -13 5 -14 0 -19 -2 -12 -5z"/>
<path d="M291 2744 c0 -11 3 -14 6 -6 3 7 2 16 -1 19 -3 4 -6 -2 -5 -13z"/>
<path d="M3293 2753 c9 -2 23 -2 30 0 6 3 -1 5 -18 5 -16 0 -22 -2 -12 -5z"/>
<path d="M3335 2720 c-18 -8 -17 -9 8 -9 16 -1 26 3 22 9 -3 6 -7 10 -8 9 -1
0 -11 -4 -22 -9z"/>
<path d="M4296 2712 c-11 -32 4 -53 33 -50 22 2 26 8 26 33 0 25 -4 31 -27 33
-19 2 -28 -2 -32 -16z"/>
<path d="M7870 2710 c0 -5 -7 -10 -15 -10 -20 0 -19 -29 0 -36 17 -7 41 10 56
38 8 15 6 18 -16 18 -14 0 -25 -4 -25 -10z"/>
<path d="M3575 2703 c-59 -11 -65 -14 -65 -33 0 -23 10 -24 97 -7 41 8 60 16
55 23 -8 13 -58 23 -87 17z"/>
<path d="M3402 2668 c-18 -18 -15 -28 8 -28 21 0 25 7 12 27 -6 10 -11 10 -20
1z"/>
<path d="M4224 2645 c-10 -25 4 -45 30 -45 20 0 24 4 19 18 -15 41 -39 54 -49
27z"/>
<path d="M3575 2637 c-54 -11 -71 -25 -52 -43 10 -10 90 -2 157 15 7 2 -41 41
-49 40 -3 -1 -28 -6 -56 -12z"/>
<path d="M200 2620 c0 -11 4 -20 9 -20 11 0 22 26 14 34 -12 12 -23 5 -23 -14z"/>
<path d="M445 2630 c-3 -5 -1 -10 4 -10 6 0 11 5 11 10 0 6 -2 10 -4 10 -3 0
-8 -4 -11 -10z"/>
<path d="M4340 2615 c-15 -18 -5 -35 20 -35 10 0 22 5 25 10 7 11 -12 40 -25
40 -4 0 -13 -7 -20 -15z"/>
<path d="M240 2576 c0 -9 5 -16 10 -16 6 0 10 4 10 9 0 6 -4 13 -10 16 -5 3
-10 -1 -10 -9z"/>
<path d="M3265 2580 c3 -5 14 -10 23 -10 15 0 15 2 2 10 -20 13 -33 13 -25 0z"/>
<path d="M7515 2560 c-3 -5 -15 -10 -26 -10 -10 0 -19 -6 -19 -14 0 -19 8 -23
50 -29 19 -2 27 -2 17 0 -14 4 -17 11 -12 34 7 29 2 38 -10 19z"/>
<path d="M3913 2546 c1 -11 9 -21 17 -23 10 -3 11 -2 4 4 -6 4 -14 15 -17 23
-5 11 -6 9 -4 -4z"/>
<path d="M7761 2544 c0 -11 3 -14 6 -6 3 7 2 16 -1 19 -3 4 -6 -2 -5 -13z"/>
<path d="M6340 2515 c9 -28 54 -85 66 -85 8 0 -23 53 -50 85 l-26 30 10 -30z"/>
<path d="M7700 2524 c-14 -8 -24 -18 -23 -23 1 -5 -6 -7 -16 -4 -21 5 -71 -36
-71 -60 0 -12 7 -13 33 -7 56 13 67 21 67 47 0 20 4 23 21 18 14 -5 19 -3 15
3 -3 6 -2 13 4 17 12 7 14 25 3 24 -5 -1 -19 -7 -33 -15z"/>
<path d="M3472 2516 c7 -8 15 -12 17 -11 5 6 -10 25 -20 25 -5 0 -4 -6 3 -14z"/>
<path d="M3356 2511 c5 -5 23 -13 39 -16 29 -7 29 -7 10 8 -21 17 -66 24 -49
8z"/>
<path d="M6411 2506 c9 -8 319 -14 324 -6 3 5 -70 9 -162 9 -92 1 -165 0 -162
-3z"/>
<path d="M3484 2482 c-11 -7 -14 -92 -3 -92 10 0 27 77 20 89 -4 5 -11 7 -17
3z"/>
<path d="M7058 2485 c-8 -8 2 -45 13 -45 10 0 10 8 0 33 -3 10 -9 15 -13 12z"/>
<path d="M7480 2464 c0 -8 5 -12 10 -9 6 3 10 10 10 16 0 5 -4 9 -10 9 -5 0
-10 -7 -10 -16z"/>
<path d="M5545 2430 c-8 -13 12 -40 29 -40 18 1 61 38 53 47 -5 4 -12 1 -17
-7 -7 -12 -12 -12 -22 -2 -15 15 -35 16 -43 2z"/>
<path d="M6470 2432 c0 -4 21 -6 48 -4 82 5 89 9 20 11 -38 0 -68 -2 -68 -7z"/>
<path d="M6672 2429 c15 -9 76 -4 87 7 2 2 -20 4 -50 4 -41 -1 -50 -3 -37 -11z"/>
<path d="M6775 2430 c-4 -6 5 -10 24 -8 17 1 31 6 31 10 0 12 -48 10 -55 -2z"/>
<path d="M3829 2412 c9 -7 11 -21 6 -51 -4 -23 -3 -41 2 -41 9 0 11 6 15 48 0
9 6 20 12 24 13 9 8 14 -24 22 -17 5 -21 4 -11 -2z"/>
<path d="M7360 2395 c0 -9 6 -12 15 -9 8 4 15 10 15 15 0 5 -7 9 -15 9 -8 0
-15 -7 -15 -15z"/>
<path d="M2315 2370 c3 -5 8 -10 11 -10 2 0 4 5 4 10 0 6 -5 10 -11 10 -5 0
-7 -4 -4 -10z"/>
<path d="M4717 2332 l-58 -3 3 -217 3 -217 75 3 c41 2 77 6 80 10 3 4 17 13
33 19 16 8 27 20 27 32 0 10 7 34 15 53 16 39 4 37 260 54 60 4 109 13 123 22
41 27 26 35 -55 28 -106 -9 -107 -10 -136 -29 -31 -20 -58 -24 -39 -5 20 20
14 26 -20 19 -18 -3 -53 -6 -78 -5 -39 1 -45 4 -48 25 -2 13 -8 29 -14 36 -10
12 -15 53 -17 130 l-1 41 -47 4 c-27 1 -74 2 -106 0z"/>
<path d="M3835 2300 c3 -5 14 -10 23 -10 15 0 15 2 2 10 -20 13 -33 13 -25 0z"/>
<path d="M2211 2254 c-13 -50 -12 -52 42 -108 15 -16 26 -31 23 -33 -6 -6 19
-33 29 -33 4 0 5 7 1 15 -3 8 -2 15 3 15 4 0 6 11 4 24 -3 13 0 33 7 45 10 19
5 27 -37 71 -26 28 -51 50 -54 50 -4 0 -12 -21 -18 -46z"/>
<path d="M6900 2269 c0 -16 4 -28 9 -25 8 5 3 56 -5 56 -2 0 -4 -14 -4 -31z"/>
<path d="M7366 2173 c-36 -90 -47 -130 -43 -152 4 -16 -1 -80 -9 -143 -16
-118 -12 -281 8 -305 5 -7 11 -27 13 -45 6 -69 102 -253 159 -307 24 -23 24
-23 35 -3 17 31 13 60 -9 72 -10 6 -24 27 -29 48 -6 20 -21 48 -34 62 -86 92
-112 229 -87 448 5 45 12 140 16 210 4 77 12 138 21 155 8 16 13 40 11 55 -2
20 -15 -3 -52 -95z"/>
<path d="M8045 2240 c-10 -11 -23 -20 -29 -20 -34 0 -186 -139 -186 -170 0 -5
10 -6 21 -3 18 5 20 3 15 -16 -3 -11 -9 -31 -12 -42 -4 -13 -1 -25 7 -30 9 -5
12 -24 11 -51 -4 -62 -33 -180 -49 -199 -7 -8 -13 -20 -13 -26 0 -6 -17 -25
-37 -42 -47 -38 -36 -49 50 -45 34 1 77 0 96 -3 l34 -6 -38 -13 c-40 -13 -62
-30 -53 -39 3 -3 38 -9 77 -14 54 -5 74 -4 83 6 6 7 19 13 28 13 48 0 50 6 50
131 0 65 -4 119 -8 119 -10 0 -32 44 -32 64 0 7 9 22 21 35 20 21 20 23 2 39
-25 24 -45 61 -38 72 4 6 17 10 31 10 14 0 24 6 24 14 0 18 -26 28 -54 20 -52
-13 -27 72 34 116 20 14 26 40 13 53 -3 4 -12 2 -20 -4 -9 -9 -13 -8 -13 0 0
6 5 11 10 11 6 0 10 9 10 20 0 11 -4 20 -8 20 -5 0 -17 -9 -27 -20z m15 -54
c0 -3 -4 -8 -10 -11 -5 -3 -10 -1 -10 4 0 6 5 11 10 11 6 0 10 -2 10 -4z"/>
<path d="M3682 2235 c-16 -19 -2 -19 34 0 29 15 29 15 4 15 -14 -1 -31 -7 -38
-15z"/>
<path d="M3761 2230 c-13 -11 -18 -20 -11 -20 18 0 50 20 50 30 0 15 -12 11
-39 -10z"/>
<path d="M625 2220 c4 -6 11 -8 16 -5 14 9 11 15 -7 15 -8 0 -12 -5 -9 -10z"/>
<path d="M1115 2202 c-26 -24 -75 -45 -75 -32 0 20 -16 9 -33 -22 -15 -29 -15
-40 -4 -88 11 -47 16 -55 42 -63 42 -12 85 6 85 35 l0 23 20 -25 c13 -18 15
-27 7 -32 -9 -6 -8 -11 3 -18 8 -5 11 -10 5 -10 -10 0 15 -20 26 -20 3 0 9 29
13 65 5 51 3 70 -9 89 -9 13 -17 39 -18 58 -4 59 -26 73 -62 40z m-1 -178 c4
-10 1 -14 -6 -12 -15 5 -23 28 -10 28 5 0 13 -7 16 -16z"/>
<path d="M4886 2203 c-6 -14 -5 -15 5 -6 7 7 10 15 7 18 -3 3 -9 -2 -12 -12z"/>
<path d="M3675 2200 c-3 -5 1 -10 9 -10 9 0 16 5 16 10 0 6 -4 10 -9 10 -6 0
-13 -4 -16 -10z"/>
<path d="M3740 2190 c0 -6 7 -10 15 -10 8 0 15 2 15 4 0 2 -7 6 -15 10 -8 3
-15 1 -15 -4z"/>
<path d="M2175 2169 c-3 -8 -11 -37 -18 -64 -11 -43 -16 -50 -35 -48 -31 4
-29 -35 3 -83 14 -20 25 -46 25 -57 0 -10 16 -41 35 -67 29 -39 42 -49 71 -52
36 -4 36 -4 16 13 -17 13 -20 26 -18 68 2 28 0 54 -5 57 -11 6 -39 64 -39 81
0 7 7 13 16 13 8 0 13 -4 10 -9 -3 -5 6 -16 19 -25 26 -17 26 -17 22 11 -3 22
-10 29 -30 31 -15 2 -27 10 -27 17 0 21 19 28 35 15 12 -10 15 -9 15 4 0 9 -7
16 -15 16 -8 0 -17 11 -21 24 -8 34 -52 74 -59 55z"/>
<path d="M3576 2171 c-5 -7 154 -21 242 -21 78 0 19 10 -93 15 -66 4 -125 8
-132 10 -7 2 -15 0 -17 -4z"/>
<path d="M6410 2173 c0 -4 8 -17 16 -28 15 -20 16 -20 12 4 -3 22 -28 44 -28
24z"/>
<path d="M3472 2143 c-1 -17 -5 -40 -8 -50 -5 -17 -5 -17 6 0 6 9 9 32 7 50
l-4 32 -1 -32z"/>
<path d="M3532 2135 c0 -16 2 -22 5 -12 2 9 2 23 0 30 -3 6 -5 -1 -5 -18z"/>
<path d="M6961 2144 c0 -11 3 -14 6 -6 3 7 2 16 -1 19 -3 4 -6 -2 -5 -13z"/>
<path d="M3580 2126 c0 -2 7 -7 16 -10 8 -3 12 -2 9 4 -6 10 -25 14 -25 6z"/>
<path d="M2337 2104 c-8 -8 3 -34 14 -34 11 0 12 27 0 34 -4 3 -11 3 -14 0z"/>
<path d="M4084 2095 c-4 -9 -2 -21 4 -27 15 -15 44 -1 40 19 -4 23 -36 29 -44
8z"/>
<path d="M1315 2050 c-4 -6 -2 -17 5 -25 9 -10 7 -15 -9 -20 -12 -3 -21 -10
-21 -15 0 -4 -10 -10 -21 -13 -19 -5 -21 -10 -15 -49 8 -49 14 -58 25 -39 7
11 11 9 20 -8 10 -17 9 -21 -4 -21 -26 0 -16 -19 13 -22 22 -2 27 -8 27 -29 1
-24 10 -62 35 -141 5 -16 4 -30 -1 -34 -5 -3 -9 -29 -9 -59 0 -30 -4 -56 -9
-59 -13 -9 -20 -68 -10 -93 5 -13 15 -23 24 -23 14 0 19 -11 16 -38 -1 -6 10
-17 24 -22 14 -5 25 -14 25 -19 0 -5 17 -27 39 -48 21 -21 42 -49 46 -63 4
-14 25 -44 47 -67 33 -33 50 -43 88 -48 l48 -7 4 -106 c2 -72 8 -107 16 -110
24 -8 43 -34 34 -46 -5 -6 -15 -28 -22 -49 -8 -26 -17 -37 -26 -33 -8 3 -14 0
-14 -6 0 -7 -5 -6 -15 2 -19 16 -15 19 -58 -60 -48 -91 -109 -256 -107 -294 4
-60 1 -65 -37 -75 -48 -13 -360 -6 -410 9 -33 10 -47 9 -98 -10 -33 -12 -89
-30 -125 -40 -36 -10 -76 -22 -91 -28 -14 -6 -73 -8 -140 -5 -127 6 -240 35
-289 76 -15 13 -43 29 -61 37 -19 7 -47 25 -62 39 -35 32 -39 26 -62 -78 -9
-42 -22 -96 -30 -121 -20 -65 -36 -160 -28 -174 3 -6 -4 -1 -16 12 -23 23 -46
28 -56 12 -3 -6 5 -10 19 -10 18 0 24 -4 20 -15 -5 -13 56 -15 515 -15 573 0
532 -4 620 61 16 11 45 21 72 22 l44 2 3 -43 c3 -37 6 -42 28 -42 19 0 24 5
24 25 0 23 -10 37 -54 73 -9 7 -22 12 -29 11 -6 -1 -36 -1 -64 0 -38 1 -53 5
-53 15 0 8 7 17 15 20 10 4 15 16 13 33 -2 20 3 30 22 40 32 17 99 18 83 2 -9
-9 -5 -18 16 -38 15 -14 30 -33 33 -41 4 -12 8 -13 19 -2 11 10 11 16 1 32
-15 25 -16 60 0 60 50 0 349 -103 336 -116 -2 -1 -48 1 -103 6 -129 12 -165
12 -165 1 0 -4 28 -12 63 -15 93 -11 277 -51 322 -71 l40 -18 -30 -7 c-17 -5
32 -8 118 -9 81 0 147 1 147 4 0 3 -20 31 -45 62 -25 32 -77 103 -115 158
-132 187 -175 248 -203 280 l-28 33 31 22 c43 31 81 17 93 -33 11 -43 11 -43
131 -17 50 11 101 20 115 20 44 -1 81 -41 49 -53 -10 -3 -10 -9 0 -26 11 -20
9 -22 -30 -38 l-41 -17 29 -12 c16 -7 52 -23 79 -34 28 -11 57 -25 65 -30 8
-5 30 -17 48 -26 18 -9 99 -79 180 -155 l147 -138 180 0 c160 0 178 1 161 14
-11 8 -23 15 -27 15 -6 0 -59 86 -59 95 0 1 71 8 158 14 86 7 211 19 277 27
66 7 145 16 175 19 30 4 107 13 170 22 63 9 129 17 145 19 17 1 32 3 34 3 2 1
-4 10 -13 20 -38 42 -62 44 -268 21 -106 -11 -242 -30 -303 -40 -60 -11 -168
-27 -239 -35 -71 -8 -135 -20 -142 -26 -21 -17 -54 13 -117 104 -15 22 -52 68
-82 102 -59 66 -103 131 -244 363 -14 23 -45 72 -69 108 -29 44 -41 72 -37 85
5 15 1 19 -17 19 -36 0 -124 -63 -211 -151 -100 -100 -106 -104 -144 -77 -57
41 -71 120 -23 126 37 5 91 31 127 63 18 15 48 35 68 44 42 21 45 35 7 35 -29
0 -132 -46 -132 -59 0 -4 -18 -22 -40 -40 l-40 -32 -10 27 c-6 15 -19 39 -30
54 -21 29 -27 80 -10 80 6 0 10 9 10 21 0 11 -5 17 -10 14 -16 -10 -12 12 5
29 8 8 24 18 35 21 24 8 46 46 55 98 7 34 5 37 -16 37 -13 0 -33 -7 -43 -15
-11 -8 -39 -15 -63 -15 -37 0 -45 4 -55 25 -8 19 -8 31 1 51 6 14 9 30 6 35
-4 5 -41 9 -82 9 l-77 0 27 28 c33 35 34 51 2 88 -14 16 -25 25 -25 20 0 -5
-13 10 -30 32 -16 23 -30 46 -30 52 0 5 -5 10 -10 10 -6 0 -5 8 2 20 10 15 10
22 0 32 -15 15 -16 60 0 76 9 9 9 12 -1 12 -19 0 -65 50 -80 87 -7 18 -19 38
-27 44 -8 6 -14 20 -14 30 0 11 -6 19 -14 19 -20 0 -30 18 -17 33 11 14 4 57
-10 57 -5 0 -7 13 -5 29 2 19 -3 34 -16 45 -22 19 -25 19 -33 6z m12 -116 c-3
-3 -12 -4 -19 -1 -8 3 -5 6 6 6 11 1 17 -2 13 -5z m465 -1140 c9 -20 9 -27 0
-33 -9 -5 -5 -11 13 -19 14 -6 25 -16 25 -22 0 -12 -12 -13 -43 -1 -20 8 -24
17 -25 55 -2 51 12 60 30 20z m-102 -105 c0 -5 -4 -9 -10 -9 -5 0 -10 7 -10
16 0 8 5 12 10 9 6 -3 10 -10 10 -16z m116 7 c3 -8 0 -24 -6 -36 -8 -16 -17
-19 -33 -14 -29 9 -29 8 -18 38 11 28 48 36 57 12z m184 -21 c-12 -15 -30 -12
-30 6 0 5 10 9 21 9 18 0 19 -2 9 -15z m-1777 -449 c9 9 47 -15 47 -30 0 -18
-81 -78 -97 -72 -6 3 -14 -3 -16 -12 -3 -9 -5 -3 -6 15 0 17 4 35 10 39 6 3 9
14 6 24 -3 14 -1 17 11 13 10 -4 13 -2 8 5 -11 18 3 35 18 23 7 -6 15 -8 19
-5z m1687 -60 c0 -8 5 -18 10 -21 6 -3 10 -30 9 -58 0 -29 -3 -45 -6 -37 -3 8
-9 17 -12 20 -20 16 -41 74 -41 111 l0 43 20 -22 c11 -12 20 -28 20 -36z"/>
<path d="M4172 2012 c-25 -53 -28 -68 -9 -52 6 5 25 20 40 31 18 14 27 29 25
43 -5 38 -32 28 -56 -22z"/>
<path d="M5449 2053 c0 -5 0 -30 1 -56 2 -54 -19 -88 -49 -80 -11 3 -22 0 -25
-6 -8 -13 -72 -15 -80 -3 -3 5 1 20 9 35 9 17 10 29 4 33 -6 3 -4 15 5 30 22
33 20 45 -6 40 -13 -3 -102 -10 -199 -17 l-176 -13 1 -49 1 -49 93 6 c51 4
112 9 137 13 38 5 45 3 45 -11 0 -9 -4 -16 -10 -16 -5 0 -10 -6 -10 -14 0 -10
20 -13 98 -10 l97 3 -50 -13 c-27 -8 -66 -15 -85 -15 -19 -1 -42 -6 -50 -12
-11 -8 -5 -9 25 -5 22 3 67 8 100 12 33 4 63 12 67 18 5 7 8 7 8 1 0 -7 15 -9
35 -7 27 3 33 7 25 17 -5 6 -8 14 -5 17 3 2 8 39 13 81 6 61 5 77 -5 77 -7 0
-13 -3 -14 -7z"/>
<path d="M6957 2026 c7 -32 61 -116 75 -116 19 0 6 49 -19 71 -16 14 -36 36
-45 49 l-18 25 7 -29z"/>
<path d="M4097 2019 c-3 -12 0 -27 7 -34 10 -10 12 -6 12 21 -1 38 -11 45 -19
13z"/>
<path d="M6892 1997 c2 -15 7 -28 13 -28 16 -1 16 16 0 36 -15 19 -15 19 -13
-8z"/>
<path d="M6330 2006 c0 -2 7 -7 16 -10 8 -3 12 -2 9 4 -6 10 -25 14 -25 6z"/>
<path d="M4464 1975 c-4 -10 -1 -21 7 -26 20 -12 34 -5 34 17 0 24 -33 31 -41
9z"/>
<path d="M3545 1970 c3 -5 14 -10 23 -10 15 0 15 2 2 10 -20 13 -33 13 -25 0z"/>
<path d="M6213 1925 c-28 -45 -30 -70 -5 -60 9 4 35 11 57 15 62 13 95 28 95
44 0 21 -10 25 -71 31 -53 6 -54 5 -76 -30z"/>
<path d="M1036 1925 c4 -8 8 -15 10 -15 2 0 4 7 4 15 0 8 -4 15 -10 15 -5 0
-7 -7 -4 -15z"/>
<path d="M2348 1896 c-9 -25 -13 -48 -8 -51 10 -6 33 58 28 81 -2 9 -11 -4
-20 -30z"/>
<path d="M7564 1908 c-23 -99 15 -278 58 -278 17 0 19 4 14 28 -14 56 -26 120
-38 200 -7 45 -16 82 -19 82 -4 0 -11 -15 -15 -32z"/>
<path d="M6900 1875 c0 -31 59 -75 101 -75 l32 0 -29 27 c-16 15 -35 26 -41
25 -7 -2 -13 3 -13 10 0 7 -11 18 -25 25 -23 10 -25 9 -25 -12z"/>
<path d="M6495 1870 c-10 -11 -13 -20 -8 -20 13 0 38 29 31 35 -3 3 -13 -4
-23 -15z"/>
<path d="M6790 1884 c0 -10 101 -104 112 -104 5 0 -12 25 -39 55 -42 47 -73
69 -73 49z"/>
<path d="M4149 1863 c-13 -16 -12 -17 4 -4 16 13 21 21 13 21 -2 0 -10 -8 -17
-17z"/>
<path d="M7470 1863 c0 -29 10 -53 22 -53 6 0 7 11 3 28 -9 36 -25 52 -25 25z"/>
<path d="M2295 1857 c-4 -10 -3 -23 4 -30 16 -16 26 0 14 25 -10 21 -11 22
-18 5z"/>
<path d="M4710 1851 l-45 -6 -2 -135 c0 -74 2 -159 6 -188 5 -29 4 -55 0 -58
-5 -3 -9 -12 -9 -21 0 -13 11 -14 73 -8 95 10 130 23 62 25 -38 0 -46 3 -35
11 11 8 4 9 -26 5 -29 -4 -43 -2 -47 7 -2 6 -2 88 1 180 l5 168 26 -6 c37 -9
39 -15 14 -32 -24 -16 -31 -43 -11 -43 6 0 8 3 5 7 -10 9 33 53 51 53 9 0 24
7 34 17 17 15 18 13 18 -75 l0 -91 -37 5 c-56 8 -63 12 -60 31 1 10 -2 19 -8
21 -5 1 -10 -17 -10 -40 0 -41 1 -43 33 -46 37 -4 34 -22 -4 -22 -15 0 -24 -6
-24 -15 0 -11 12 -15 49 -15 27 0 56 -3 65 -6 14 -5 16 11 16 140 l0 146 -47
-2 c-27 0 -68 -4 -93 -7z"/>
<path d="M4870 1840 c0 -5 5 -10 10 -10 6 0 10 5 10 10 0 6 -4 10 -10 10 -5 0
-10 -4 -10 -10z"/>
<path d="M2344 1785 c-11 -33 -24 -67 -27 -75 -4 -9 7 -30 28 -54 l35 -39 -1
49 c-1 27 -4 78 -8 114 l-6 65 -21 -60z"/>
<path d="M5413 1833 c9 -2 25 -2 35 0 9 3 1 5 -18 5 -19 0 -27 -2 -17 -5z"/>
<path d="M1271 1814 c0 -11 3 -14 6 -6 3 7 2 16 -1 19 -3 4 -6 -2 -5 -13z"/>
<path d="M5245 1820 c-12 -5 1 -6 35 -3 30 3 57 7 59 9 9 8 -75 2 -94 -6z"/>
<path d="M6760 1794 c1 -20 149 -104 185 -104 6 0 12 7 12 15 0 10 -10 15 -28
15 -17 0 -41 12 -63 33 -19 17 -41 34 -48 36 -36 11 -58 12 -58 5z"/>
<path d="M5223 1783 c-18 -2 -33 -10 -33 -17 0 -13 16 -13 78 0 12 2 22 9 22
14 0 10 -7 10 -67 3z"/>
<path d="M6900 1760 c0 -5 5 -10 11 -10 5 0 7 5 4 10 -3 6 -8 10 -11 10 -2 0
-4 -4 -4 -10z"/>
<path d="M1292 1753 c-10 -4 -10 -8 -1 -19 15 -18 29 -18 29 0 0 18 -11 25
-28 19z"/>
<path d="M6472 1752 c-10 -3 -10 -7 -1 -18 12 -15 49 -20 49 -6 0 12 -34 29
-48 24z"/>
<path d="M5218 1743 c-20 -3 -28 -10 -28 -24 0 -12 3 -19 8 -17 4 2 24 12 45
21 55 26 49 31 -25 20z"/>
<path d="M1567 1703 c-21 -20 4 -83 50 -131 7 -7 13 -18 13 -23 0 -5 5 -9 10
-9 6 0 10 16 10 35 0 19 5 35 11 35 15 0 59 -47 59 -64 0 -21 24 -64 42 -75
14 -9 18 -8 18 4 0 8 -3 15 -8 15 -4 0 -13 15 -21 33 -24 54 -61 95 -92 102
-16 4 -29 12 -29 18 -1 17 -55 68 -63 60z"/>
<path d="M2050 1652 c0 -5 9 -17 20 -27 15 -14 20 -15 20 -4 0 8 -9 20 -20 27
-11 7 -20 8 -20 4z"/>
<path d="M4383 1572 c-16 -12 -21 -23 -17 -39 7 -24 -9 -32 -22 -12 -3 6 -17
9 -30 6 -14 -2 -27 0 -30 4 -3 5 -11 9 -18 9 -8 0 -12 -20 -12 -67 1 -73 -11
-92 -32 -49 -14 28 -69 56 -111 56 -14 0 -144 23 -289 52 -199 40 -267 50
-279 42 -10 -6 -41 -71 -70 -145 l-52 -134 -55 3 c-54 3 -56 2 -56 -22 0 -26
-15 -43 -25 -27 -5 8 -62 41 -72 41 -1 0 -3 -9 -3 -19 0 -28 51 -62 81 -54 13
3 28 11 32 17 6 8 10 7 14 -1 2 -7 15 -13 28 -13 31 0 38 -23 18 -65 -14 -29
-22 -35 -49 -35 -48 0 -332 -19 -381 -26 -24 -3 -43 -10 -43 -16 0 -12 176 -4
326 14 116 14 128 8 102 -49 -15 -34 -24 -43 -43 -43 -16 0 -25 -6 -25 -15 0
-10 -10 -15 -29 -15 -17 0 -33 -5 -36 -10 -4 -6 -11 -8 -16 -5 -5 4 -14 3 -19
0 -17 -11 12 -31 48 -33 27 -2 35 2 39 18 3 11 9 20 14 20 5 0 9 7 9 15 0 8 5
15 10 15 6 0 3 -15 -7 -32 -10 -18 -22 -53 -28 -78 -5 -24 -14 -42 -20 -40 -5
3 -8 11 -7 18 2 10 -3 12 -17 7 -13 -4 -21 -2 -21 6 0 13 -46 59 -60 59 -4 0
-7 -8 -6 -17 2 -10 0 -20 -5 -23 -4 -3 1 -32 12 -64 25 -76 24 -79 -10 -71
-20 4 -38 1 -54 -10 -19 -12 -27 -13 -33 -4 -7 12 22 43 48 51 8 3 1 19 -20
45 -17 23 -32 50 -32 62 0 23 -15 29 -23 9 -3 -8 -6 -7 -6 4 -1 9 -10 20 -21
23 -11 3 -20 10 -20 15 0 4 -11 11 -25 14 -14 4 -39 21 -55 38 l-30 31 -35
-39 c-42 -48 -43 -58 -7 -73 15 -7 35 -18 45 -25 17 -13 17 -15 -4 -50 -12
-20 -21 -48 -21 -61 0 -29 0 -29 -39 -9 -37 19 -49 11 -25 -15 17 -18 16 -20
-4 -26 -12 -4 -24 -5 -26 -2 -3 2 -37 -2 -77 -9 -40 -8 -88 -17 -107 -20 -40
-7 -50 -12 -50 -25 0 -10 89 -12 179 -3 39 5 61 11 61 19 0 7 16 15 35 17 19
2 35 0 35 -4 0 -4 -10 -8 -22 -9 -20 0 -21 -1 -5 -8 18 -7 32 -7 145 -3 65 2
61 22 -4 22 -51 0 -57 12 -14 30 17 7 30 19 30 26 0 11 -5 11 -24 2 -50 -22
-68 6 -45 71 14 39 26 39 74 1 46 -37 65 -71 65 -118 l0 -35 23 21 c15 14 34
21 63 20 24 0 56 8 73 18 17 10 34 15 38 11 4 -4 -1 -38 -11 -75 -19 -73 -14
-117 12 -125 10 -3 105 -44 212 -92 231 -103 231 -103 294 -111 42 -5 50 -9
59 -35 6 -16 14 -29 18 -29 13 0 36 38 52 85 23 73 89 257 130 360 19 50 38
100 41 112 7 20 13 23 58 20 34 -1 53 2 55 11 3 8 -9 12 -41 12 -39 0 -46 3
-46 19 0 26 18 36 58 32 28 -2 33 0 30 16 -2 12 -12 18 -32 18 -26 -1 -27 1
-22 29 7 31 24 49 39 39 4 -3 6 -11 3 -19 -3 -9 2 -14 14 -14 11 0 20 -7 20
-16 0 -9 7 -14 18 -12 25 3 72 -31 72 -53 0 -13 7 -19 23 -19 15 0 18 -3 9 -8
-9 -6 -6 -14 12 -31 46 -43 43 -111 -5 -111 -13 0 -20 -10 -25 -36 -4 -24 -13
-38 -25 -41 -34 -9 -20 -22 46 -42 76 -24 151 -62 171 -88 9 -12 16 -14 21 -7
5 6 19 17 32 24 l24 12 -5 211 c-5 239 0 267 53 267 40 0 38 26 -3 34 l-33 7
33 14 c17 8 43 26 56 40 13 14 28 25 35 25 24 0 10 36 -20 49 -26 11 -32 11
-49 -4 -17 -15 -19 -15 -34 7 -18 25 -21 58 -6 58 6 0 10 8 10 18 0 10 5 23
11 29 7 7 5 15 -6 27 -13 12 -15 26 -11 50 6 30 4 34 -13 29 -10 -2 -22 0 -25
6 -4 6 -16 11 -26 11 -23 0 -36 36 -19 56 18 21 4 28 -32 15 -38 -13 -48 -7
-31 19 25 40 12 51 -25 22z m44 -87 c8 -22 1 -25 -32 -16 -28 7 -29 8 -10 19
27 15 35 15 42 -3z m-512 -82 c-19 -45 -17 -51 11 -55 23 -2 29 -10 36 -38 5
-19 14 -45 20 -58 10 -18 8 -25 -7 -36 -10 -7 -15 -18 -11 -24 3 -6 1 -14 -4
-17 -7 -5 -5 -12 7 -20 24 -18 14 -25 -33 -27 -21 -1 -42 -6 -46 -11 -3 -6
-41 -11 -85 -12 -43 -2 -95 -6 -116 -10 -24 -5 -71 -2 -125 8 -48 9 -98 18
-112 19 -27 3 -40 22 -32 50 3 15 6 15 18 4 7 -8 32 -17 55 -21 37 -6 44 -4
78 27 20 19 79 69 131 110 52 42 109 87 125 102 36 32 102 38 90 9z m538 11
c11 -11 -5 -34 -24 -34 -18 0 -26 20 -12 33 8 9 28 9 36 1z m46 -25 c-9 -17
-13 -19 -20 -8 -14 22 -11 29 11 29 18 0 19 -3 9 -21z m-139 -59 c0 -5 -4 -10
-10 -10 -5 0 -10 5 -10 10 0 6 5 10 10 10 6 0 10 -4 10 -10z m-1018 -72 c-7
-7 -12 -8 -12 -2 0 14 12 26 19 19 2 -3 -1 -11 -7 -17z m60 10 c-9 -9 -15 -9
-24 0 -9 9 -7 12 12 12 19 0 21 -3 12 -12z m663 -78 c-3 -5 -24 -10 -46 -10
-24 0 -38 4 -34 10 3 6 24 10 46 10 24 0 38 -4 34 -10z m-1065 -345 c7 -8 9
-15 6 -15 -4 0 -14 7 -22 15 -9 8 -11 15 -6 15 5 0 15 -7 22 -15z m1340 -16
c0 -5 -4 -9 -10 -9 -5 0 -10 7 -10 16 0 8 5 12 10 9 6 -3 10 -10 10 -16z
m-1008 -142 c36 -7 67 -16 68 -22 3 -19 -35 -65 -53 -65 -11 0 -31 8 -45 19
-15 10 -40 21 -55 25 -21 5 -27 11 -23 22 3 9 6 20 6 25 0 11 17 11 102 -4z"/>
<path d="M5095 1520 c-16 -7 -12 -9 18 -9 23 -1 36 3 32 9 -7 12 -23 12 -50 0z"/>
<path d="M1272 1503 c-11 -31 -8 -141 5 -153 7 -5 11 -7 8 -4 -2 4 1 16 7 28
22 42 27 88 12 118 -17 33 -22 34 -32 11z"/>
<path d="M7842 1479 c-14 -14 -30 -18 -65 -17 -76 4 -76 -25 -1 -43 115 -26
300 15 282 63 -5 12 -25 15 -102 16 -83 0 -99 -2 -114 -19z"/>
<path d="M4641 1474 c0 -11 3 -14 6 -6 3 7 2 16 -1 19 -3 4 -6 -2 -5 -13z"/>
<path d="M4813 1483 c9 -2 23 -2 30 0 6 3 -1 5 -18 5 -16 0 -22 -2 -12 -5z"/>
<path d="M2008 1455 c-2 -2 -2 -21 0 -40 4 -34 28 -55 62 -55 9 0 2 31 -10 40
-3 3 -15 17 -27 32 -11 15 -22 25 -25 23z"/>
<path d="M4798 1427 l-38 -9 0 -103 0 -102 53 5 c28 2 54 6 56 8 5 5 -21 204
-28 208 -3 1 -23 -1 -43 -7z"/>
<path d="M8051 1410 c-59 -33 -60 -40 -3 -40 51 0 52 1 52 30 0 35 -3 35 -49
10z"/>
<path d="M2720 1400 c0 -5 5 -10 10 -10 6 0 10 5 10 10 0 6 -4 10 -10 10 -5 0
-10 -4 -10 -10z"/>
<path d="M320 1390 c0 -5 5 -10 10 -10 6 0 10 5 10 10 0 6 -4 10 -10 10 -5 0
-10 -4 -10 -10z"/>
<path d="M7720 1360 c12 -41 17 -48 58 -74 21 -13 47 -33 59 -45 25 -23 39
-27 45 -10 6 17 48 -11 48 -31 0 -12 -2 -12 -9 -1 -6 10 -10 10 -16 1 -4 -6 2
-21 12 -33 11 -12 33 -37 49 -56 31 -36 106 -91 123 -91 6 0 11 16 11 35 0 19
-4 35 -10 35 -5 0 -10 9 -10 19 0 11 -8 22 -17 24 -17 4 -17 5 0 6 9 0 17 6
17 12 0 5 5 7 10 4 6 -4 10 5 10 19 0 14 -3 26 -8 26 -4 0 -12 10 -17 22 -15
34 -98 79 -216 118 -57 18 -108 37 -113 42 -22 19 -35 8 -26 -22z"/>
<path d="M1840 1311 c0 -19 25 -29 42 -17 10 7 15 16 11 19 -10 10 -53 8 -53
-2z"/>
<path d="M4580 1311 c0 -5 6 -14 14 -20 16 -13 32 2 21 19 -8 12 -35 13 -35 1z"/>
<path d="M2145 1265 c4 -11 10 -30 12 -43 7 -28 21 -38 36 -23 8 8 6 11 -7 11
-9 0 -14 5 -11 10 3 6 -4 23 -16 38 -15 19 -20 21 -14 7z"/>
<path d="M2760 1244 c0 -28 -68 -162 -87 -173 -11 -5 -30 -7 -41 -4 -24 6 -55
-13 -46 -28 3 -5 14 -9 24 -9 26 0 33 -15 18 -39 -10 -17 -10 -23 0 -33 11
-11 12 -10 7 5 -4 10 -2 17 4 17 6 0 11 -9 11 -20 0 -11 6 -20 14 -20 8 0 16
-5 18 -12 2 -6 10 -8 17 -4 7 5 10 14 7 22 -3 8 1 17 10 21 12 5 13 7 3 14 -8
4 -16 3 -20 -3 -9 -13 -49 0 -49 16 0 7 10 24 23 38 59 67 129 228 98 228 -6
0 -11 -7 -11 -16z"/>
<path d="M6150 1221 c-17 -5 -21 -9 -13 -14 12 -7 53 7 53 18 0 6 -7 5 -40 -4z"/>
<path d="M2185 1128 c39 -29 75 -66 102 -102 18 -27 27 -30 77 -31 31 -1 59 2
62 6 3 5 -33 27 -78 50 -46 23 -95 50 -109 60 -15 10 -39 23 -55 29 l-29 10
30 -22z"/>
<path d="M7787 1124 c-34 -18 -34 -23 1 -21 21 2 26 -2 24 -15 -2 -10 3 -18
10 -18 17 0 41 -38 33 -51 -4 -5 -11 -7 -16 -4 -5 4 -9 2 -9 -3 0 -21 142 -42
154 -23 8 12 -51 61 -74 61 -10 0 -20 9 -23 21 -4 16 -11 19 -26 14 -12 -4
-21 -2 -21 4 0 6 5 11 11 11 17 0 5 22 -17 30 -12 5 -31 2 -47 -6z"/>
<path d="M2492 963 c3 -25 8 -29 46 -34 55 -7 63 6 18 28 -20 9 -36 20 -36 25
0 4 -7 8 -16 8 -11 0 -14 -8 -12 -27z"/>
<path d="M3088 958 c17 -8 26 -8 34 0 9 9 4 12 -22 11 -33 0 -34 -1 -12 -11z"/>
<path d="M5208 963 c7 -3 16 -2 19 1 4 3 -2 6 -13 5 -11 0 -14 -3 -6 -6z"/>
<path d="M5168 953 c7 -3 16 -2 19 1 4 3 -2 6 -13 5 -11 0 -14 -3 -6 -6z"/>
<path d="M4940 935 c-11 -13 -8 -15 22 -15 19 0 38 4 44 9 5 5 23 11 39 14 17
2 2 5 -31 6 -44 1 -65 -3 -74 -14z"/>
<path d="M7840 915 c0 -16 37 -59 80 -90 61 -45 73 -45 29 1 -40 42 -109 98
-109 89z"/>
<path d="M2695 900 c-3 -5 -2 -10 4 -10 5 0 13 5 16 10 3 6 2 10 -4 10 -5 0
-13 -4 -16 -10z"/>
<path d="M4540 900 c0 -5 9 -11 20 -11 11 -1 25 -2 32 -3 6 -1 13 5 16 12 2 8
-8 12 -32 12 -20 0 -36 -4 -36 -10z"/>
<path d="M2417 879 c8 -8 19 -8 40 -1 28 10 28 10 -11 11 -29 1 -37 -2 -29
-10z"/>
<path d="M2380 870 c0 -5 5 -10 10 -10 6 0 10 5 10 10 0 6 -4 10 -10 10 -5 0
-10 -4 -10 -10z"/>
<path d="M100 804 c0 -8 5 -12 10 -9 6 3 10 10 10 16 0 5 -4 9 -10 9 -5 0 -10
-7 -10 -16z"/>
<path d="M8079 803 c-1 -5 -3 -25 -4 -46 -1 -27 -10 -46 -27 -60 -13 -12 -37
-49 -52 -82 -45 -98 -58 -119 -79 -136 -29 -24 -15 -36 60 -48 38 -6 80 -14
96 -17 23 -5 27 -2 27 18 0 13 -9 29 -21 36 l-21 13 21 18 c20 17 21 29 21
165 0 91 -4 146 -10 146 -5 0 -11 -3 -11 -7z"/>
<path d="M5280 778 c-30 -5 -74 -7 -98 -5 -41 4 -54 -2 -58 -30 -3 -21 65 -28
96 -9 16 9 50 16 79 16 44 0 51 3 51 20 0 11 -3 19 -7 19 -5 -1 -33 -6 -63
-11z"/>
<path d="M120 765 c-58 -8 -108 -14 -112 -14 -12 -1 -9 -150 2 -172 6 -10 7
-19 2 -19 -4 0 -9 -15 -10 -33 -2 -32 -1 -33 28 -29 18 3 30 0 30 -7 0 -21 29
-11 32 12 2 17 9 21 26 19 19 -3 23 1 20 15 -3 13 -12 17 -31 16 -22 -1 -27 2
-26 20 0 12 3 16 6 10 7 -19 23 -16 23 4 0 15 2 14 15 -3 13 -17 14 -17 15 -2
0 9 19 36 42 60 23 24 41 51 39 60 -1 9 5 31 14 47 12 23 12 31 3 30 -7 -1
-60 -7 -118 -14z"/>
<path d="M4765 760 c-3 -5 -21 -10 -38 -10 -45 0 -107 -11 -107 -19 0 -17 61
-50 100 -54 23 -2 46 -10 51 -18 8 -12 11 -11 22 2 6 9 18 14 25 12 6 -3 12 2
12 10 0 9 10 19 23 23 12 3 28 11 35 17 11 9 11 12 -5 18 -10 4 -32 8 -50 8
-17 1 -35 6 -38 11 -3 6 -10 10 -15 10 -5 0 -12 -4 -15 -10z"/>
<path d="M4961 719 c16 -14 26 -16 40 -8 30 16 22 26 -21 26 -40 0 -40 0 -19
-18z"/>
<path d="M7780 735 c0 -4 7 -29 16 -56 11 -34 19 -46 25 -38 4 8 3 16 -3 20
-7 4 -6 8 2 11 18 6 3 45 -21 58 -10 6 -19 8 -19 5z"/>
<path d="M7840 640 c0 -6 5 -10 10 -10 6 0 10 -11 10 -25 0 -14 5 -25 11 -25
6 0 8 7 5 16 -3 9 -6 22 -6 29 0 7 -7 15 -15 19 -8 3 -15 1 -15 -4z"/>
<path d="M4695 629 c-16 -6 -13 -8 13 -8 17 -1 32 3 32 7 0 11 -20 11 -45 1z"/>
<path d="M2980 555 c-130 -18 -195 -24 -262 -25 -32 0 -58 -4 -58 -9 0 -11
423 -221 444 -221 8 0 18 5 22 11 4 7 21 9 45 5 38 -6 398 19 407 29 3 3 1 10
-4 15 -13 13 -450 199 -478 204 -12 2 -64 -2 -116 -9z"/>
<path d="M5629 565 c-4 -3 -20 -8 -35 -10 -16 -2 -63 -11 -104 -19 -41 -9 -94
-16 -118 -16 -24 0 -41 -4 -38 -9 7 -10 55 -7 151 10 102 18 235 12 235 -10 0
-6 -96 -17 -210 -23 -8 -1 -20 -8 -26 -16 -6 -9 -43 -18 -96 -25 -73 -9 -94
-8 -149 7 -35 10 -69 22 -76 28 -16 13 -21 -1 -16 -40 4 -26 13 -36 39 -47 55
-23 39 -45 -33 -45 -76 0 -20 -27 148 -70 96 -25 198 -54 227 -63 44 -15 72
-17 145 -11 55 4 107 2 129 -4 42 -11 43 -11 53 37 7 33 7 34 -21 28 -31 -6
-68 9 -59 23 9 15 -42 57 -77 64 -19 3 -44 13 -57 22 -30 22 -12 34 51 34 40
0 47 3 50 22 2 17 13 24 52 33 56 11 65 24 38 48 -29 26 -189 67 -203 52z"/>
<path d="M4111 529 c-30 -5 -57 -12 -60 -14 -9 -10 324 7 334 16 12 12 -202
10 -274 -2z"/>
<path d="M97 408 c-6 -23 -1 -38 13 -38 5 0 8 14 8 30 -1 35 -13 40 -21 8z"/>
<path d="M6463 365 c-17 -13 -16 -14 15 -15 33 0 43 13 18 23 -8 3 -22 -1 -33
-8z"/>
<path d="M25 331 c-17 -3 -25 -9 -19 -13 13 -9 54 1 54 13 0 5 -1 8 -2 8 -2
-1 -16 -4 -33 -8z"/>
<path d="M5910 260 c0 -6 55 -9 148 -8 120 1 135 2 82 8 -100 12 -230 11 -230
0z"/>
<path d="M7040 230 c-32 -8 56 -20 145 -20 71 0 104 14 58 24 -35 8 -166 5
-203 -4z"/>
<path d="M8000 209 c-74 -9 -253 -27 -695 -69 -170 -17 -384 -42 -475 -56
-111 -17 -203 -25 -282 -25 -116 1 -373 -20 -492 -39 -34 -5 -77 -11 -96 -13
-19 -2 349 -4 818 -5 516 0 852 3 852 9 0 5 29 9 65 9 37 0 65 4 65 10 0 6 25
10 55 10 30 0 64 4 77 9 13 5 65 22 115 38 l93 28 0 53 c0 58 8 55 -100 41z"/>
<path d="M6293 173 c-62 -2 -113 -8 -113 -13 0 -5 -13 -7 -30 -4 -20 4 -34 1
-45 -10 -15 -15 -15 -17 0 -32 11 -12 25 -14 51 -10 19 4 32 11 29 17 -4 5 1
9 10 9 9 0 14 -4 10 -9 -9 -16 36 -25 109 -23 78 2 176 19 176 32 0 4 10 10
22 13 18 5 19 8 8 21 -9 11 -28 15 -64 14 -28 -1 -102 -4 -163 -5z"/>
<path d="M4316 32 c-14 -23 36 -32 181 -31 l148 2 -110 13 c-60 7 -133 16
-161 20 -33 4 -54 2 -58 -4z"/>
</g>
</svg>
