<?xml version="1.0" standalone="no"?>
<!DOCTYPE svg PUBLIC "-//W3C//DTD SVG 20010904//EN"
 "http://www.w3.org/TR/2001/REC-SVG-20010904/DTD/svg10.dtd">
<svg version="1.0" xmlns="http://www.w3.org/2000/svg"
 width="2048.000000pt" height="1152.000000pt" viewBox="0 0 2048.000000 1152.000000"
 preserveAspectRatio="xMidYMid meet">

<g transform="translate(0.000000,1152.000000) scale(0.100000,-0.100000)"
fill="#000000" stroke="none">
<path d="M962 11415 c4 -72 2 -116 -7 -142 -7 -21 -16 -80 -19 -132 -4 -51
-11 -102 -17 -112 -11 -21 -17 -158 -20 -444 -2 -196 4 -267 27 -322 8 -18 14
-54 14 -81 0 -32 11 -75 30 -122 17 -40 30 -78 30 -84 0 -6 6 -22 13 -36 7
-14 19 -45 26 -70 7 -25 24 -74 37 -110 13 -36 24 -71 24 -79 0 -7 11 -45 24
-84 44 -131 66 -207 66 -229 0 -11 12 -46 26 -76 24 -50 109 -281 121 -327 2
-11 8 -29 13 -40 18 -43 51 -138 61 -178 5 -23 18 -76 29 -117 10 -41 30 -120
45 -175 15 -55 31 -113 35 -130 4 -16 17 -59 28 -95 12 -36 24 -83 28 -105 3
-22 10 -44 14 -50 6 -9 32 -92 79 -250 11 -38 32 -118 46 -177 36 -155 74
-282 85 -286 6 -2 10 -9 10 -17 0 -7 16 -48 36 -91 20 -44 44 -98 55 -121 25
-54 25 -55 -14 -93 -79 -78 -263 -176 -383 -203 -78 -17 -163 -7 -183 22 -7
12 -20 21 -27 21 -8 0 -14 9 -14 20 0 11 -4 20 -9 20 -14 0 -80 86 -85 111 -2
13 -16 53 -31 88 -14 35 -24 70 -21 77 3 7 1 16 -4 19 -6 4 -10 19 -10 36 0
16 -4 29 -8 29 -8 0 -42 131 -42 161 0 8 -11 26 -25 39 -15 14 -25 18 -25 11
0 -11 -3 -11 -16 0 -9 7 -12 15 -7 16 6 2 -11 25 -37 51 -37 37 -49 58 -55 92
-10 62 -36 140 -46 140 -5 0 -12 18 -15 40 -9 54 -24 41 -24 -21 0 -27 -4 -49
-10 -49 -5 0 -10 8 -10 17 0 15 -2 15 -14 3 -18 -19 -35 -340 -17 -340 6 0 11
-17 11 -40 0 -22 -4 -40 -10 -40 -6 0 -10 -31 -10 -73 0 -68 -17 -175 -37
-225 -13 -33 -4 -102 13 -102 17 0 20 -76 3 -82 -6 -2 -8 -14 -4 -31 5 -17 13
-26 20 -23 9 3 13 -6 13 -27 0 -18 4 -43 9 -57 16 -47 10 -63 -32 -85 -22 -11
-42 -23 -45 -26 -7 -9 -53 -23 -64 -21 -5 2 -16 -3 -25 -11 -9 -7 -41 -19 -71
-26 -30 -7 -74 -22 -98 -33 -125 -59 -256 -97 -359 -105 l-83 -6 0 -1318 c0
-1268 1 -1319 18 -1319 19 0 133 30 192 50 19 7 58 20 85 30 53 19 112 35 159
45 16 3 63 1 105 -5 209 -30 285 -43 357 -61 44 -11 106 -27 140 -34 33 -8 94
-24 135 -35 230 -66 424 -113 624 -152 28 -5 70 -14 95 -19 25 -5 79 -14 120
-20 107 -14 116 -20 148 -91 36 -80 78 -116 194 -170 81 -37 166 -79 287 -142
21 -11 30 -21 24 -27 -12 -12 -104 -30 -377 -73 -92 -14 -172 -29 -177 -32 -5
-2 -23 -7 -41 -9 -18 -2 -78 -9 -133 -15 -55 -7 -102 -13 -105 -15 -3 -2 -41
-6 -85 -10 -44 -4 -83 -9 -87 -11 -10 -6 -376 -44 -483 -50 -152 -8 -301 -5
-331 7 -19 8 -130 13 -329 15 -165 2 -353 6 -418 9 l-117 5 0 -585 0 -585 73
0 c40 0 181 -13 313 -30 302 -37 614 -71 1009 -110 171 -16 348 -34 395 -39
47 -6 137 -15 200 -21 235 -22 706 -71 769 -80 36 -5 102 -10 146 -10 43 0
133 -7 200 -15 156 -19 294 -34 900 -100 663 -72 721 -78 1205 -125 228 -22
552 -54 720 -70 356 -36 866 -82 1200 -110 129 -11 316 -26 415 -35 299 -25
540 -43 725 -55 200 -12 477 -42 595 -65 95 -18 142 -23 380 -41 99 -7 288
-25 420 -39 379 -41 396 -43 670 -59 143 -9 334 -21 425 -26 91 -6 280 -21
420 -35 257 -24 413 -36 726 -55 93 -6 246 -22 340 -36 236 -35 367 -51 524
-63 300 -25 400 -39 400 -54 0 -17 46 -64 78 -81 32 -16 99 -35 145 -41 264
-32 353 -40 652 -59 281 -19 316 -22 480 -40 72 -8 184 -17 250 -21 66 -3 154
-10 195 -15 129 -16 556 -49 765 -60 207 -10 378 -23 550 -40 155 -15 312 -29
525 -45 107 -8 236 -19 285 -24 50 -5 131 -12 180 -16 147 -10 417 -34 625
-55 107 -10 250 -24 317 -30 74 -6 538 -10 1192 -10 l1071 0 0 1786 0 1786
-377 -6 c-208 -3 -488 -8 -623 -11 -135 -3 -429 -7 -655 -10 -225 -3 -477 -9
-560 -15 -82 -5 -213 -12 -290 -14 -77 -3 -205 -12 -285 -20 -151 -15 -301
-13 -359 6 -69 22 -154 102 -163 154 -3 20 -52 74 -67 74 -5 0 -11 7 -15 15
-3 8 -12 15 -20 15 -8 0 -37 12 -63 26 -55 30 -96 34 -607 58 -82 4 -152 8
-155 10 -3 2 -35 7 -71 10 -36 4 -78 9 -95 11 -72 10 -579 14 -591 4 -6 -5
-24 -7 -40 -5 -26 5 -117 -18 -139 -35 -13 -10 -175 -70 -175 -65 0 2 25 16
55 31 30 16 55 32 55 38 0 5 -38 7 -92 4 -107 -6 -328 -10 -343 -6 -5 1 -43
-1 -84 -5 -58 -7 -75 -5 -82 5 -6 9 -12 10 -16 4 -5 -6 -42 -12 -83 -14 -87
-3 -184 -27 -174 -43 4 -7 2 -8 -4 -4 -6 3 -53 -12 -104 -34 -51 -23 -124 -55
-163 -72 -38 -17 -88 -38 -110 -48 -22 -10 -139 -62 -260 -115 -121 -54 -249
-111 -285 -127 -58 -27 -244 -109 -460 -203 -41 -18 -111 -49 -155 -70 -44
-20 -197 -88 -340 -151 -143 -63 -288 -128 -323 -145 -35 -16 -65 -29 -67 -29
-3 0 -33 -13 -67 -29 -74 -34 -199 -91 -245 -112 -18 -7 -33 -18 -33 -22 0 -5
-4 -6 -9 -3 -5 3 -49 -12 -97 -35 -49 -22 -107 -49 -129 -59 -82 -37 -202 -89
-250 -108 -27 -11 -70 -31 -95 -45 -25 -13 -90 -43 -145 -66 -55 -24 -109 -48
-120 -56 -11 -7 -35 -16 -52 -19 -17 -4 -37 -13 -43 -21 -6 -8 -17 -12 -24 -9
-7 3 -19 -2 -26 -11 -11 -13 -8 -15 19 -15 18 0 30 4 26 9 -3 6 3 15 14 20 27
15 34 14 27 -5 -4 -10 -2 -13 6 -8 7 5 9 2 6 -8 -5 -11 0 -14 18 -10 15 3 24
0 24 -8 0 -7 -7 -10 -17 -6 -10 4 -14 4 -10 -1 8 -7 -97 -63 -120 -63 -6 0
-14 -9 -18 -19 -4 -14 -19 -21 -56 -26 -28 -4 -86 -24 -128 -45 -42 -20 -88
-40 -103 -44 -15 -3 -33 -13 -42 -21 -8 -8 -22 -15 -31 -15 -8 0 -18 -7 -22
-16 -4 -10 -13 -14 -28 -10 -14 4 -30 -2 -44 -15 -12 -11 -28 -19 -35 -16 -6
3 -22 -6 -35 -19 -13 -13 -21 -24 -19 -24 10 0 124 43 133 50 6 4 25 11 43 15
18 3 30 10 28 14 -8 12 116 2 142 -11 12 -6 22 -17 22 -24 0 -13 -51 -54 -73
-58 -22 -5 -51 -19 -90 -43 -55 -34 -146 -41 -217 -16 -45 16 -55 24 -53 41 2
14 -3 22 -12 22 -8 0 -15 -7 -15 -15 0 -17 -3 -17 -75 -16 -39 1 -47 -1 -35
-9 11 -9 7 -10 -20 -5 l-35 6 33 -30 c17 -17 32 -34 32 -39 0 -9 94 -32 133
-32 35 0 107 -22 107 -33 0 -5 12 -24 27 -43 19 -25 23 -38 15 -46 -14 -14
-43 -2 -36 16 10 25 -17 29 -47 7 -15 -11 -42 -21 -59 -21 -20 0 -29 -4 -24
-11 3 -6 18 -9 33 -6 14 3 49 1 76 -4 53 -10 109 -3 100 12 -4 5 0 6 7 4 8 -3
61 15 119 40 57 26 122 53 144 61 36 12 38 12 20 -1 -10 -8 -34 -21 -52 -27
-18 -7 -33 -16 -33 -20 0 -4 -5 -8 -10 -8 -6 0 -77 -33 -159 -74 -167 -83
-229 -106 -240 -88 -3 6 -15 11 -26 10 -11 0 -58 2 -105 6 -78 6 -88 5 -125
-16 -22 -13 -41 -32 -43 -43 -3 -20 35 -69 60 -77 10 -4 11 -8 1 -20 -7 -8
-10 -17 -7 -21 3 -3 -4 -8 -15 -12 -12 -3 -21 -12 -21 -20 0 -15 -44 -29 -48
-15 -5 15 -15 13 -113 -26 -93 -36 -99 -36 -103 -12 -1 7 -7 23 -14 35 -7 12
-15 63 -17 114 -7 117 -24 155 -75 169 -70 19 -210 18 -255 -2 -22 -10 -49
-18 -59 -18 -18 0 -18 2 4 25 l23 24 -52 -4 c-28 -2 -51 1 -51 6 0 5 -5 9 -12
9 -9 0 -9 -3 0 -12 16 -16 15 -106 -1 -138 -15 -30 -46 -38 -62 -16 -10 13
-14 10 -28 -20 -23 -48 -58 -45 -71 6 -18 75 36 171 71 124 15 -21 19 -18 28
19 5 19 3 27 -6 28 -8 1 -34 3 -59 5 -25 2 -81 7 -125 12 -44 5 -85 7 -91 5
-7 -2 -9 -39 -6 -106 3 -56 5 -120 6 -142 1 -25 7 -43 16 -48 8 -4 -45 -5
-119 -2 -76 3 -140 10 -148 16 -10 9 -13 8 -13 -1 0 -8 -3 -10 -7 -7 -3 4 -12
2 -18 -3 -16 -14 -25 59 -25 211 l0 117 -30 6 c-37 7 -28 5 -102 23 -35 9 -94
17 -133 18 -152 7 -253 17 -314 31 -35 9 -85 13 -111 11 -27 -3 -70 -1 -97 4
-26 4 -129 10 -228 12 -99 1 -186 7 -194 11 -7 5 -51 10 -97 12 -46 2 -114 8
-151 14 -36 6 -69 7 -72 3 -8 -10 -82 -10 -99 0 -13 9 -185 33 -287 41 -33 3
-75 10 -93 15 -18 5 -70 13 -115 16 -45 4 -89 8 -97 11 -23 6 -194 24 -295 30
-49 4 -100 10 -113 15 -13 5 -44 9 -70 9 -26 0 -63 4 -82 10 -19 5 -75 13
-125 19 -257 29 -501 63 -510 72 -5 5 0 9 16 9 23 0 25 3 21 30 -3 24 -9 30
-28 30 -13 0 -24 6 -25 13 -1 6 -2 21 -3 32 -1 11 -3 30 -4 43 -1 12 -6 21
-10 20 -4 -2 -25 3 -45 11 -36 14 -51 41 -23 41 10 0 15 17 18 60 2 50 0 61
-15 66 -14 4 -17 17 -17 75 0 38 -4 69 -8 69 -18 0 -50 88 -58 155 -6 56 -9
65 -15 45 -7 -20 -8 -17 -5 15 2 25 -4 54 -16 77 -10 21 -21 57 -24 81 -6 39
-3 46 20 64 14 12 26 28 26 36 0 9 8 18 18 22 9 3 29 33 44 66 l28 61 -30 24
c-23 19 -31 37 -36 74 -10 76 -54 96 -139 65 -22 -8 -70 -14 -107 -15 -61 0
-69 2 -84 24 -35 54 -53 187 -27 205 15 10 43 77 43 103 0 14 9 51 20 83 11
32 20 67 20 77 0 10 14 49 31 86 17 37 33 85 35 107 l4 40 -32 -36 c-18 -19
-71 -82 -118 -140 -141 -174 -251 -279 -290 -279 -6 0 -20 -8 -31 -19 -21 -20
-48 -18 -84 5 -21 14 -65 15 -65 2 0 -16 -36 -8 -53 12 -12 14 -29 20 -57 20
-48 0 -80 24 -80 60 0 42 -30 131 -46 137 -8 3 -22 19 -30 35 -14 26 -14 32 0
52 8 13 17 52 19 87 4 58 7 64 28 67 35 5 48 22 18 22 -18 0 -29 8 -37 25 -7
15 -8 25 -2 25 6 0 10 7 10 15 0 8 -4 15 -8 15 -10 0 -9 46 2 83 6 19 3 41 -8
70 -8 23 -18 62 -21 85 -3 24 -14 61 -25 82 -11 22 -20 48 -20 58 0 11 -7 25
-15 32 -8 7 -15 19 -15 27 0 8 -10 33 -22 56 -21 41 -27 52 -55 109 -8 15 -27
40 -44 55 -16 15 -29 36 -29 45 0 10 -7 18 -15 18 -9 0 -18 7 -21 15 -4 8 -14
15 -25 15 -10 0 -23 9 -29 20 -6 11 -16 20 -23 20 -7 0 -49 36 -95 80 -45 44
-85 80 -90 80 -5 0 -26 16 -48 35 -21 19 -47 35 -56 35 -10 0 -22 9 -28 20 -6
11 -16 20 -23 18 -25 -4 -83 15 -115 39 -18 14 -39 22 -47 19 -14 -5 -32 12
-50 47 -6 12 -19 26 -30 32 -34 17 -60 39 -78 65 -9 13 -17 20 -17 15 0 -5 -7
1 -16 13 -8 12 -13 26 -10 31 3 5 -13 21 -36 37 -32 23 -53 29 -97 30 -31 1
-59 2 -64 3 -4 1 -5 12 -1 26 5 19 2 25 -10 25 -9 0 -16 -7 -16 -16 0 -12 -6
-15 -21 -11 -13 4 -22 0 -26 -11 -4 -9 -11 -20 -16 -23 -13 -9 14 -117 35
-139 16 -17 97 -72 288 -195 41 -27 175 -108 296 -181 241 -144 348 -212 407
-258 80 -64 171 -215 185 -308 8 -54 -6 -186 -27 -264 -13 -47 -52 -269 -81
-455 -23 -151 -47 -216 -105 -287 -59 -72 -115 -116 -191 -153 -56 -26 -73
-30 -122 -26 -80 7 -125 17 -142 32 -8 7 -64 20 -124 29 -114 17 -148 33 -162
80 -4 12 -20 48 -35 82 -16 34 -29 69 -29 78 0 9 -7 30 -15 45 -8 16 -11 32
-7 35 4 4 12 32 18 63 10 51 9 57 -9 74 -12 10 -15 19 -9 19 21 0 13 40 -10
50 -39 16 -55 34 -71 79 -8 24 -16 38 -19 30 -3 -8 -4 4 -4 26 1 23 8 45 16
52 10 9 11 12 3 13 -8 0 -13 13 -13 29 0 22 -6 30 -25 35 -14 4 -32 17 -41 31
-13 20 -25 25 -55 25 -22 0 -39 5 -39 10 0 6 -8 10 -17 10 -10 0 -27 7 -37 15
-10 8 -22 12 -27 10 -4 -3 -10 -1 -14 4 -3 6 -12 8 -20 5 -15 -6 -105 76 -105
95 0 6 -4 11 -10 11 -5 0 -10 9 -10 20 0 12 -10 24 -22 30 -18 7 -19 9 -5 9 9
1 17 7 17 15 0 25 -18 28 -31 4 -11 -20 -13 -20 -24 -5 -7 9 -15 17 -18 17 -3
0 -23 11 -43 25 -20 14 -31 25 -23 25 16 0 -10 16 -88 53 -57 28 -133 96 -133
121 0 8 -7 22 -16 31 -9 8 -14 22 -11 29 3 8 -5 18 -19 25 -16 7 -24 19 -24
36 0 14 -4 25 -10 25 -5 0 -10 9 -10 19 0 10 -7 21 -15 25 -9 3 -15 0 -15 -9
0 -9 -9 -15 -22 -15 -20 0 -20 1 -4 13 15 11 12 15 -28 35 -26 12 -46 27 -46
34 0 8 -3 9 -10 2 -17 -17 -14 -124 4 -152 10 -16 -9 -23 -26 -9 -19 16 -40
67 -28 67 6 0 10 6 10 13 0 12 -44 37 -67 37 -19 0 -16 -17 4 -24 13 -5 14 -9
3 -19 -10 -9 -13 -9 -17 1 -5 14 -23 16 -23 3 0 -5 10 -13 22 -17 l21 -6 -24
-19 c-33 -25 -49 -24 -49 5 0 32 -30 38 -52 11 -11 -14 -13 -24 -6 -33 16 -19
-10 -46 -29 -30 -11 9 -16 9 -24 -3 -5 -8 -9 -9 -9 -3 0 6 9 19 20 29 15 14
17 21 9 32 -6 7 -8 13 -3 13 4 0 3 5 -4 12 -7 7 -12 25 -12 40 0 22 5 28 21
28 11 0 18 4 14 9 -3 5 -6 34 -6 63 -1 37 -7 58 -20 70 -16 16 -19 16 -27 2
-6 -11 -16 -14 -31 -9 -27 8 -27 25 -1 25 18 0 19 3 10 20 -7 13 -21 20 -39
20 -24 0 -79 39 -55 40 5 0 0 7 -10 15 -11 8 -17 18 -13 21 8 8 69 -15 80 -30
5 -6 5 0 2 14 -4 14 -14 30 -22 37 -10 8 -13 21 -8 41 7 35 -12 54 -30 29 -7
-10 -20 -14 -36 -11 -53 12 -55 15 -29 29 24 14 24 14 3 15 -22 0 -37 26 -38
65 0 15 -10 22 -42 29 -41 8 -60 26 -29 26 13 0 13 6 0 44 -12 34 -13 50 -4
66 6 12 8 30 4 43 -7 21 -8 20 -15 -8 -5 -22 -7 -15 -5 26 0 32 5 55 10 52 4
-3 5 4 2 15 -4 12 -1 26 8 34 8 8 14 23 13 34 -2 14 6 20 26 22 16 2 31 11 34
19 9 23 34 46 66 61 22 9 27 17 22 32 -4 11 -2 20 4 20 14 0 71 119 71 147 0
13 6 23 13 23 6 0 36 23 66 50 29 28 66 58 82 67 19 11 31 28 35 50 10 50 30
104 37 97 3 -4 18 1 31 10 14 9 38 16 54 16 30 0 123 28 132 40 3 4 24 15 46
25 31 13 40 22 37 36 -3 10 2 26 11 34 9 9 14 21 11 26 -4 5 0 9 8 9 8 0 34
26 58 58 50 66 89 108 89 97 0 -5 8 -1 18 7 17 15 42 26 53 24 4 0 15 6 25 15
11 8 29 16 41 17 49 2 78 25 84 67 7 55 34 102 70 124 17 10 31 23 31 27 1 11
75 34 83 25 4 -3 11 2 16 12 6 9 18 17 29 17 10 0 31 14 47 30 15 17 33 30 40
30 13 0 17 11 33 84 6 26 24 68 40 91 17 24 30 48 30 53 0 6 3 12 8 14 4 2 14
16 22 32 28 55 144 108 300 139 241 48 372 23 533 -101 80 -61 124 -73 201
-55 32 7 73 19 90 27 74 32 95 40 172 66 120 41 240 54 427 46 86 -4 161 -5
166 -1 10 6 1 32 -46 135 -14 30 -32 73 -41 95 -8 22 -19 45 -23 50 -14 19
-189 370 -189 379 0 5 -20 41 -44 80 -53 86 -89 152 -157 289 -5 9 -13 25 -19
35 -19 35 -80 172 -135 302 -31 74 -63 149 -71 167 -8 17 -14 39 -14 48 0 9
-7 29 -15 43 -8 15 -26 59 -40 97 -15 39 -35 88 -44 110 -10 22 -28 63 -40 90
-12 28 -38 80 -56 116 -19 36 -46 97 -60 135 -15 38 -50 119 -80 179 -57 119
-155 348 -155 365 0 5 -5 10 -10 10 -6 0 -15 12 -21 27 -17 45 -40 97 -50 113
-5 8 -16 31 -24 50 -8 19 -22 49 -31 65 -77 143 -94 178 -94 189 0 6 -7 21
-15 31 -27 35 -65 96 -65 103 0 4 -10 23 -23 42 -13 19 -31 55 -42 80 -10 25
-26 54 -35 65 -9 11 -36 54 -60 95 -25 41 -52 81 -61 87 -9 7 -24 33 -33 58
-8 25 -24 57 -35 72 -12 14 -26 44 -32 67 -6 22 -16 46 -23 51 -7 6 -16 24
-19 40 -3 17 -16 69 -29 118 l-22 87 -744 0 -745 0 5 -105z m418 -6765 c0 -5
-7 -10 -15 -10 -8 0 -15 5 -15 10 0 6 7 10 15 10 8 0 15 -4 15 -10z m-100 -50
c0 -18 -3 -19 -20 -10 -22 12 -18 30 6 30 8 0 14 -9 14 -20z m271 -79 c0 -3 2
-14 4 -23 3 -14 0 -15 -16 -5 -23 14 -26 49 -4 41 8 -4 15 -9 16 -13z m12926
-707 c-3 -3 -12 -4 -19 -1 -8 3 -5 6 6 6 11 1 17 -2 13 -5z m-2722 -1224 c3
-6 -1 -7 -9 -4 -18 7 -21 14 -7 14 6 0 13 -4 16 -10z m423 -23 c59 1 67 -8 22
-27 -36 -15 -165 -6 -188 12 -22 18 14 29 68 20 25 -4 69 -6 98 -5z m-498
-202 c0 -2 -9 -9 -20 -15 -16 -9 -20 -8 -20 5 0 8 9 15 20 15 11 0 20 -2 20
-5z m391 -35 c-13 -11 -33 -20 -45 -20 -17 1 -14 4 14 20 45 25 61 25 31 0z
m-1016 -98 c-3 -3 -11 0 -18 7 -9 10 -8 11 6 5 10 -3 15 -9 12 -12z m-45 -12
c0 -5 -5 -10 -11 -10 -5 0 -7 5 -4 10 3 6 8 10 11 10 2 0 4 -4 4 -10z m-67
-37 c-7 -2 -19 -2 -25 0 -7 3 -2 5 12 5 14 0 19 -2 13 -5z m1717 -7 c0 -3 -4
-8 -10 -11 -5 -3 -10 -1 -10 4 0 6 5 11 10 11 6 0 10 -2 10 -4z m-1400 -22 c0
-2 -10 -12 -21 -23 -16 -15 -26 -18 -40 -11 -10 6 -24 7 -33 4 -25 -10 -42 7
-22 21 14 11 116 19 116 9z m380 -34 c0 -27 -70 -39 -89 -16 -10 12 -7 15 16
19 53 8 73 7 73 -3z m4675 -24 c15 -23 15 -30 0 -83 -9 -32 -19 -77 -22 -100
-3 -24 -9 -43 -14 -43 -5 0 -9 -13 -9 -29 0 -16 -7 -47 -14 -69 -8 -23 -11
-44 -6 -47 28 -18 91 -165 70 -165 -5 0 -6 -8 -3 -18 6 -25 -27 -52 -89 -73
-51 -17 -53 -19 -61 -61 -4 -24 -13 -58 -18 -76 -6 -17 -7 -42 -4 -53 6 -17
-3 -30 -41 -65 -57 -52 -51 -64 34 -64 28 0 52 -3 52 -8 0 -4 -28 -18 -62 -31
-35 -12 -72 -28 -83 -34 -11 -5 -36 -12 -55 -14 -19 -2 -62 -8 -95 -13 -33 -6
-90 -10 -127 -10 -76 0 -321 -28 -622 -70 -115 -17 -223 -30 -240 -29 l-31 1
30 9 c17 5 101 23 188 39 170 33 243 55 147 44 -30 -3 -91 -8 -135 -10 -44 -2
-113 -9 -153 -14 -40 -6 -97 -10 -125 -10 -47 0 -54 3 -69 30 -29 50 -11 75
79 116 183 81 227 107 250 149 13 22 22 47 21 55 -4 31 14 60 50 82 57 35 74
54 70 80 -2 15 -11 24 -26 26 -12 2 -28 12 -35 23 -6 10 -20 19 -29 19 -10 0
-18 5 -18 10 0 6 -9 10 -20 10 -11 0 -20 3 -20 6 0 9 49 54 59 54 4 0 18 11
31 25 12 13 27 22 31 19 5 -3 9 -1 9 4 0 5 27 29 61 53 33 24 76 55 94 69 71
53 147 105 154 105 3 1 22 11 41 23 19 12 39 22 44 22 6 0 19 9 31 20 12 11
32 23 45 25 12 2 32 11 44 18 28 19 154 50 172 43 8 -3 25 -1 39 4 31 12 67
-1 112 -40 33 -30 34 -30 71 -14 66 28 76 33 117 58 51 31 61 31 80 2z m-4147
-146 c16 -1 16 -1 0 -10 -18 -11 -48 -3 -48 12 0 6 7 7 16 4 9 -3 23 -6 32 -6z
m1570 -209 c12 -21 22 -48 22 -59 0 -21 -52 -67 -63 -56 -10 11 -67 -30 -67
-48 0 -10 -7 -18 -15 -18 -8 0 -15 -5 -15 -11 0 -5 -4 -8 -9 -5 -5 3 -14 -1
-21 -9 -7 -8 -21 -15 -31 -15 -11 0 -19 -4 -19 -9 0 -17 -53 -4 -77 19 -26 25
-28 38 -13 91 11 40 50 65 116 76 20 3 38 12 41 19 3 8 9 11 14 8 5 -3 9 -1 9
4 0 22 43 52 74 52 27 0 36 -6 54 -39z m-3488 -21 c18 -12 2 -12 -25 0 -13 6
-15 9 -5 9 8 0 22 -4 30 -9z m3510 -120 c0 -5 -5 -10 -11 -10 -5 0 -7 5 -4 10
3 6 8 10 11 10 2 0 4 -4 4 -10z m-50 -10 c8 -5 11 -12 7 -16 -4 -4 -15 0 -24
9 -18 18 -8 23 17 7z m30 -40 c0 -5 -7 -10 -15 -10 -15 0 -19 -10 -16 -41 5
-45 -17 -66 -131 -121 -131 -65 -189 -90 -195 -84 -14 13 15 48 75 91 37 27
69 52 72 55 3 3 21 12 40 20 58 23 83 42 68 51 -9 6 -6 9 10 9 13 0 35 9 49
20 28 22 43 25 43 10z m-1016 -165 c21 -9 47 -32 63 -56 23 -35 27 -53 29
-121 3 -104 -6 -126 -65 -166 -87 -60 -228 -111 -322 -118 -100 -7 -504 40
-707 81 -40 8 -84 15 -97 15 -14 0 -25 5 -25 10 0 6 -7 10 -15 10 -12 0 -15
16 -15 80 0 66 -3 80 -16 80 -28 0 -4 18 44 33 70 21 166 39 262 48 159 15
275 29 290 35 8 3 29 8 45 11 17 2 55 13 85 24 40 15 99 23 215 31 88 5 162
11 164 14 8 8 28 4 65 -11z m-1869 -197 c4 -10 10 -18 15 -18 16 0 21 -38 8
-59 -16 -26 -41 -27 -68 -4 -20 17 -26 56 -14 100 5 19 9 20 30 11 13 -6 26
-19 29 -30z m5815 -32 c-19 -8 -62 -19 -95 -26 -33 -7 -82 -23 -110 -35 -81
-36 -418 -75 -441 -52 -12 12 16 26 66 32 25 3 88 15 140 25 189 38 216 43
300 55 47 7 105 13 130 13 l45 1 -35 -13z m-1807 -223 c-7 -2 -21 -2 -30 0
-10 3 -4 5 12 5 17 0 24 -2 18 -5z m1197 -14 c-13 -5 -67 -14 -120 -19 -213
-22 -678 -60 -715 -59 l-40 1 45 9 c124 24 650 76 785 77 55 1 65 -1 45 -9z
m-1214 -18 c-7 -10 -90 -25 -226 -40 -365 -41 -473 -52 -477 -48 -10 11 166
40 432 71 72 9 141 18 155 20 52 7 121 6 116 -3z m1329 -1 c-3 -4 -44 -11 -92
-15 -49 -3 -98 -9 -110 -12 -13 -3 -23 -1 -23 5 0 5 42 14 93 18 131 13 137
13 132 4z"/>
<path d="M11600 1171 c0 -39 4 -51 16 -51 12 0 14 10 12 47 -4 66 -28 70 -28
4z"/>
<path d="M12530 11480 c0 -22 -4 -40 -10 -40 -5 0 -10 -18 -10 -40 0 -29 -4
-40 -15 -40 -13 0 -15 -29 -15 -200 0 -171 2 -200 15 -200 11 0 15 -12 15 -49
0 -41 4 -53 25 -69 14 -11 25 -30 25 -42 0 -22 50 -80 68 -80 6 0 12 -5 14
-11 2 -7 123 -12 368 -15 201 -3 379 -7 397 -10 34 -5 97 -66 114 -112 34 -89
38 -141 43 -522 2 -212 1 -410 -3 -440 -3 -30 -8 154 -11 410 -5 455 -6 466
-28 514 -28 61 -55 95 -94 119 -29 17 -48 18 -257 14 -124 -3 -237 -8 -251
-12 -14 -4 -43 -7 -65 -7 -36 -1 -37 -1 -7 -5 17 -2 32 -9 32 -14 0 -6 -6 -7
-12 -3 -7 4 -5 -2 5 -13 12 -14 17 -37 17 -76 0 -45 5 -62 21 -78 19 -19 23
-38 28 -127 7 -115 2 -107 86 -136 59 -21 85 -22 96 -4 7 10 9 9 9 -4 0 -12 8
-16 30 -16 17 1 30 5 30 11 0 5 8 6 18 2 9 -4 41 -9 70 -10 l53 -2 -22 23
c-13 13 -17 24 -11 24 7 0 12 -4 12 -8 0 -13 47 -32 79 -32 20 0 30 -6 34 -20
3 -13 1 -18 -6 -13 -7 4 -8 0 -4 -11 4 -10 7 -20 7 -22 0 -3 5 -2 12 2 7 4 3
-8 -9 -27 -18 -32 -19 -37 -4 -46 46 -29 -54 -57 -199 -56 -37 0 -54 -3 -41
-6 44 -12 33 -26 -16 -22 -28 2 -41 6 -31 10 10 3 -14 6 -52 6 -39 0 -62 -3
-52 -7 9 -5 -1 -6 -23 -3 -22 3 -47 1 -55 -5 -13 -9 -13 -10 0 -10 9 0 11 -3
5 -8 -5 -4 -10 -14 -10 -22 -2 -77 -19 -240 -26 -240 -4 0 -2 -20 5 -45 8 -25
10 -43 6 -40 -5 3 -11 1 -15 -5 -3 -5 1 -10 11 -10 14 0 14 -3 4 -15 -7 -9
-10 -18 -6 -22 3 -3 6 -1 6 5 0 7 11 12 24 12 14 0 28 5 31 10 3 6 12 10 18
10 9 0 9 -2 0 -8 -9 -6 -7 -11 7 -20 15 -9 18 -9 14 2 -3 7 2 19 11 26 13 11
14 10 8 -6 -6 -16 -2 -15 32 6 21 13 35 18 31 12 -4 -7 -1 -12 8 -12 9 0 16
-4 16 -8 0 -5 -13 -7 -28 -4 -18 2 -33 -2 -41 -12 -8 -10 -9 -16 -3 -16 6 0
14 5 17 10 9 15 41 12 58 -4 16 -16 37 -4 37 21 0 7 5 13 11 13 6 0 9 -6 6
-13 -3 -8 1 -14 9 -14 7 0 11 4 8 9 -6 10 10 11 19 1 10 -9 66 -10 60 0 -2 4
-16 8 -31 8 -25 2 -25 2 -4 6 13 3 37 -1 53 -8 26 -10 32 -9 44 7 12 17 14 17
20 3 4 -10 14 -14 29 -12 17 4 25 -1 28 -15 3 -11 2 -24 -3 -29 -5 -5 -2 -21
6 -37 13 -25 13 -27 0 -22 -8 3 -15 1 -15 -5 0 -6 -8 -9 -17 -7 -10 1 -19 -2
-20 -7 -1 -6 -12 -13 -25 -17 -16 -5 -12 -6 14 -4 23 3 41 0 48 -9 14 -16 -9
-22 -135 -30 -49 -4 -112 -10 -140 -15 -27 -4 -81 -8 -118 -9 -38 -1 -79 -6
-92 -11 -13 -5 -41 -7 -62 -4 -40 4 -36 0 10 -10 40 -9 14 -34 -27 -27 l-31 5
35 7 35 6 -35 1 c-42 0 -98 -15 -65 -18 15 -1 11 -5 -15 -16 l-35 -14 33 5
c30 4 32 3 18 -11 -9 -8 -16 -28 -16 -44 0 -16 -6 -30 -12 -33 -10 -3 -10 -8
1 -21 10 -12 11 -20 3 -28 -6 -6 -8 -24 -5 -41 5 -23 3 -28 -7 -22 -10 6 -11
4 -5 -11 5 -10 11 -39 13 -64 5 -43 6 -44 13 -15 l8 30 -1 -35 c-1 -46 22
-107 33 -89 4 7 27 14 51 15 24 1 51 5 61 9 11 5 17 3 17 -6 0 -10 3 -10 12
-1 19 19 86 15 91 -5 2 -10 3 -7 2 5 -2 21 1 23 26 20 16 -3 30 0 32 6 3 8 11
7 25 -1 12 -7 23 -9 26 -4 10 15 69 22 78 9 5 -9 8 -9 8 -1 0 6 11 10 25 8 14
-1 25 1 25 5 0 4 18 8 40 8 22 1 49 3 59 7 11 3 22 2 25 -4 10 -16 -16 -112
-29 -107 -7 2 -18 0 -26 -4 -8 -5 -19 -4 -26 2 -8 7 -13 7 -13 0 0 -12 -69
-21 -76 -10 -3 5 -12 3 -20 -3 -19 -16 -62 -21 -70 -8 -3 5 -19 -1 -37 -13
-17 -12 -27 -16 -23 -10 6 10 1 11 -18 6 -20 -5 -26 -2 -26 10 0 9 5 16 10 16
6 0 10 8 10 18 0 13 -2 14 -9 3 -7 -11 -9 -11 -14 0 -3 8 -6 -1 -6 -19 -1 -39
-22 -39 -32 -1 -6 22 -7 22 -8 3 -1 -29 -22 -44 -65 -48 -32 -2 -36 0 -36 21
0 14 4 21 10 18 6 -3 10 -1 10 5 0 24 -25 2 -30 -25 -3 -16 -11 -30 -18 -33
-9 -3 -11 3 -6 22 8 31 -1 34 -17 5 -14 -27 3 -41 41 -33 l25 4 -24 -10 c-13
-6 -33 -8 -44 -4 -12 4 -17 2 -13 -4 3 -6 0 -13 -6 -16 -17 -7 131 1 176 10
21 3 38 13 41 23 3 10 12 18 19 18 8 0 12 -6 9 -14 -7 -17 17 -16 187 6 74 9
141 15 149 13 11 -4 12 -22 7 -86 -12 -135 -16 -1017 -5 -1059 5 -20 6 -43 2
-50 -4 -6 -8 -23 -9 -37 -1 -14 -3 -27 -4 -30 -2 -5 -4 -20 -8 -80 -2 -20 -4
-22 -12 -10 -7 11 -10 5 -10 -25 0 -30 -3 -36 -12 -27 -20 20 -35 14 -49 -20
-24 -61 -74 -94 -149 -100 -28 -2 -40 3 -58 25 -29 33 -52 35 -53 5 -1 -17 -2
-19 -6 -6 -4 16 -7 16 -40 3 -19 -8 -55 -15 -79 -15 -24 0 -44 -4 -44 -10 0
-5 -18 -10 -40 -10 -29 0 -40 4 -40 15 0 18 -5 19 -32 4 -29 -16 -78 -29 -76
-21 1 4 -2 15 -6 24 -10 22 -27 14 -19 -8 5 -13 1 -15 -18 -9 -13 4 -42 9 -64
11 -22 1 -53 7 -68 13 -16 6 -47 11 -69 11 -48 0 -128 -35 -128 -56 0 -8 -18
-21 -40 -30 -35 -14 -40 -20 -40 -49 0 -19 -5 -37 -11 -40 -5 -4 -14 -18 -19
-31 -6 -14 -26 -34 -45 -45 -19 -12 -35 -27 -35 -34 0 -8 -11 -22 -25 -33 -15
-12 -25 -30 -25 -46 0 -14 -4 -26 -10 -26 -5 0 -12 -11 -16 -25 -3 -14 -10
-25 -14 -25 -4 0 -11 -11 -14 -25 -4 -14 -12 -25 -19 -25 -7 0 -20 -9 -29 -19
-13 -15 -14 -23 -5 -34 10 -12 26 -13 77 -7 36 4 75 10 88 14 12 4 22 3 22 -2
0 -5 -23 -13 -52 -16 -49 -7 -179 -65 -148 -67 8 0 40 -2 70 -4 38 -3 50 -1
40 6 -11 8 -8 9 13 6 16 -2 45 -1 65 4 20 5 96 22 167 39 72 16 141 31 155 34
26 4 481 109 760 175 93 22 169 36 174 31 5 -5 -4 -12 -20 -16 -16 -3 -81 -19
-144 -34 -63 -15 -133 -31 -155 -35 -22 -4 -114 -24 -205 -46 -91 -22 -253
-60 -360 -85 -431 -101 -538 -128 -572 -145 -10 -5 -25 -9 -33 -9 -8 0 -15 -5
-15 -11 0 -6 -12 -8 -32 -5 l-33 6 30 -11 c17 -6 37 -13 45 -15 13 -5 13 -6 0
-14 -8 -6 -22 -9 -30 -9 -10 0 -8 3 5 9 17 6 14 9 -18 15 -21 4 -41 5 -44 1
-4 -3 5 -6 18 -6 14 0 19 -3 13 -8 -7 -4 -24 -29 -39 -55 -25 -46 -26 -49 -6
-42 15 5 21 2 21 -9 0 -9 -5 -16 -10 -16 -6 0 -10 -16 -8 -34 1 -22 -5 -42
-15 -54 -22 -25 -22 -41 2 -35 15 4 18 0 14 -21 -3 -14 0 -33 7 -41 6 -8 9
-19 6 -24 -4 -6 5 -17 18 -26 14 -9 28 -25 31 -35 6 -17 11 -21 68 -39 25 -9
27 -7 27 16 0 31 34 89 60 103 35 19 89 12 115 -14 50 -51 45 -110 -16 -168
-35 -33 -38 -39 -22 -45 27 -10 93 -74 110 -107 8 -16 18 -25 22 -20 3 5 28 7
55 4 l50 -5 -52 -24 c-29 -14 -52 -28 -52 -32 0 -5 15 -29 33 -55 31 -45 33
-46 75 -40 43 6 56 -5 25 -22 -15 -9 -13 -15 13 -58 44 -75 61 -106 79 -144 8
-19 21 -37 27 -41 9 -6 8 -12 -2 -24 -12 -14 -12 -18 1 -26 12 -7 12 -9 0 -9
-20 0 -2 -17 24 -22 17 -3 15 -6 -12 -21 -40 -21 -42 -37 -5 -38 26 0 26 -1
-8 -14 -25 -10 -29 -14 -15 -15 16 -1 15 -3 -7 -12 -39 -14 -35 -28 5 -16 73
24 87 31 82 38 -3 5 1 11 7 13 10 4 10 6 0 6 -9 1 -9 7 3 25 16 23 65 49 120
61 25 6 27 9 12 14 -10 4 -17 11 -16 16 1 6 -5 12 -15 13 -10 2 -31 15 -47 30
-83 73 20 198 111 135 18 -13 46 -18 105 -18 97 -1 124 -16 159 -87 19 -39 23
-55 15 -65 -9 -10 -5 -12 22 -7 19 3 45 10 59 14 14 5 169 54 345 109 550 172
708 221 765 240 30 11 117 38 193 62 l137 42 0 40 c0 59 32 104 83 118 23 6
54 15 69 20 24 7 29 5 34 -17 3 -13 4 -40 2 -59 -3 -28 -1 -35 13 -35 35 0
181 52 197 70 45 50 46 52 28 62 -14 8 -15 18 -10 61 9 72 29 107 59 107 28 0
40 -18 49 -79 5 -34 3 -48 -10 -63 -16 -17 -16 -19 2 -33 27 -20 32 -19 161
21 62 19 119 34 126 31 7 -2 -50 -23 -125 -47 l-138 -43 0 -43 0 -42 -62 -21
c-34 -12 -66 -21 -70 -21 -4 0 -8 18 -8 41 0 29 -4 40 -12 36 -7 -2 -53 -17
-103 -32 -49 -15 -93 -31 -96 -36 -3 -5 -4 -74 -2 -154 4 -139 4 -144 -18
-155 -18 -10 -157 -60 -166 -60 -2 0 -3 70 -3 156 l0 156 -27 -6 c-28 -7 -140
-42 -568 -178 -121 -38 -278 -87 -350 -110 -71 -22 -155 -48 -185 -59 -30 -10
-129 -41 -219 -70 -151 -47 -184 -63 -207 -100 -19 -29 -75 -49 -139 -49 -58
0 -63 -2 -69 -23 -17 -69 -93 -104 -156 -72 -17 9 -34 23 -37 30 -5 16 -40 12
-78 -8 -11 -6 -26 -10 -34 -8 -8 1 -10 -2 -5 -10 5 -9 2 -10 -9 -6 -10 3 -25
3 -35 0 -14 -6 -13 -8 8 -14 l25 -7 -27 -1 c-16 -1 -27 -5 -25 -9 1 -5 -11
-23 -28 -39 -47 -48 -52 -56 -78 -130 -29 -84 -26 -129 10 -146 14 -6 22 -16
19 -24 -7 -17 32 -33 79 -33 19 0 63 11 99 24 36 13 63 19 60 15 -8 -14 4 -11
31 7 17 11 36 14 58 10 23 -4 28 -3 17 4 -12 8 -9 12 17 22 17 6 37 22 44 35
7 13 16 23 21 23 5 0 6 -4 3 -10 -3 -5 1 -10 9 -10 9 0 16 5 16 11 0 5 4 8 8
5 8 -5 110 15 147 28 16 6 17 6 5 -3 -11 -8 -7 -9 20 -5 19 4 40 10 45 14 6 4
35 13 65 20 30 7 73 21 95 30 22 9 99 35 170 58 72 22 290 95 485 161 1057
358 1093 371 1116 396 13 14 28 25 34 25 6 0 10 35 10 93 l0 94 34 10 c19 6
37 8 40 5 3 -3 7 -51 8 -106 1 -79 3 -87 5 -34 4 63 5 67 33 76 15 6 31 8 34
5 3 -4 6 -31 6 -61 0 -45 3 -53 16 -48 9 3 20 6 25 6 5 0 9 15 9 34 0 26 5 35
23 40 35 9 38 8 31 -21 -7 -25 -6 -26 27 -18 19 4 45 9 59 11 l25 4 -25 -11
c-14 -7 -47 -22 -75 -35 -30 -14 -42 -23 -30 -24 18 0 17 -2 -7 -18 -20 -13
-24 -21 -17 -34 6 -11 2 -26 -15 -51 -13 -19 -27 -49 -31 -65 -4 -18 -15 -34
-26 -37 -12 -4 -19 -15 -19 -31 0 -20 -5 -24 -31 -24 -17 0 -28 -4 -24 -10 3
-5 -1 -10 -9 -10 -23 0 -19 15 7 28 19 10 19 11 3 9 -13 -1 -22 6 -27 23 -7
23 -7 23 -8 -7 -1 -32 -23 -63 -44 -63 -6 0 -2 6 8 14 10 7 19 24 20 37 4 42
-8 44 -22 3 -7 -22 -10 -27 -7 -11 3 19 1 26 -6 22 -5 -3 -10 1 -10 10 0 10 5
13 12 9 6 -4 8 -3 5 4 -4 5 -15 9 -25 7 -9 -2 -20 -4 -25 -4 -10 -1 -6 -120 4
-127 5 -3 9 0 9 6 0 6 5 8 10 5 6 -3 10 -2 10 3 0 5 11 7 25 4 14 -2 25 -8 25
-12 0 -7 -57 -24 -72 -21 -5 0 -7 -18 -7 -42 l2 -42 7 35 c7 34 7 34 10 -15
l3 -50 6 49 c4 32 11 51 21 53 13 4 13 3 0 -7 -12 -9 -8 -10 20 -6 24 4 29 3
15 -3 -19 -8 -19 -8 3 -15 23 -8 23 -8 4 -22 -11 -8 -29 -11 -39 -8 -15 5 -15
4 -3 -5 12 -9 13 -11 1 -11 -8 0 -12 -3 -8 -6 7 -8 83 30 105 52 8 9 23 13 34
11 11 -3 15 -1 12 5 -5 7 3 9 22 5 16 -3 43 0 59 7 17 7 48 18 70 23 22 6 48
14 58 18 9 4 17 3 17 -3 0 -5 -12 -13 -26 -16 -42 -11 -114 -47 -109 -56 2 -4
-8 -5 -23 -2 -25 5 -26 4 -12 -13 14 -17 13 -17 -9 -10 -18 5 -22 4 -16 -6 6
-9 4 -11 -8 -6 -9 3 -19 1 -23 -4 -3 -6 -17 -8 -30 -5 -17 5 -29 -1 -46 -18
-13 -14 -36 -27 -53 -30 -27 -6 -26 -4 10 14 22 11 35 20 28 20 -21 0 -82 -33
-77 -42 3 -4 -5 -8 -18 -9 -22 0 -22 -1 -3 -8 11 -5 23 -4 26 2 4 6 17 5 35
-2 l29 -11 -27 5 c-17 3 -28 1 -28 -5 0 -7 -8 -9 -20 -5 -11 3 -20 2 -20 -4 0
-5 9 -13 20 -16 30 -9 24 -23 -7 -17 -27 4 -28 4 -8 -13 20 -16 20 -16 -3 -12
-14 3 -27 -1 -35 -13 -7 -10 -34 -28 -60 -40 -26 -12 -52 -33 -59 -48 -18 -36
-46 -51 -58 -32 -8 13 -10 12 -10 -2 0 -10 -7 -18 -15 -18 -8 0 -15 -5 -15
-10 0 -6 3 -9 8 -9 19 3 23 -2 13 -15 -18 -21 15 -29 52 -12 18 7 61 24 97 36
36 12 79 29 97 36 37 16 43 17 43 5 0 -5 -10 -12 -22 -16 -44 -12 -103 -40
-111 -51 -4 -7 -25 -15 -47 -19 -22 -4 -40 -10 -40 -15 0 -4 -13 -10 -30 -13
-31 -7 -43 -37 -14 -37 10 0 14 6 11 14 -4 11 10 16 56 23 34 6 68 12 76 14
10 3 16 -5 17 -23 2 -18 -1 -25 -10 -22 -7 3 -25 0 -39 -5 -26 -10 -40 2 -14
12 7 3 5 6 -5 6 -10 1 -18 -3 -18 -9 0 -5 -6 -10 -13 -10 -8 0 -22 -9 -32 -20
-18 -20 -18 -20 14 -4 24 12 36 13 44 5 6 -6 16 -11 22 -11 5 0 3 5 -5 11 -11
8 -8 9 15 5 24 -5 27 -4 15 5 -12 9 -11 10 8 6 12 -3 29 1 36 9 8 8 27 14 43
15 15 0 37 4 48 8 19 8 19 8 0 19 -16 9 -12 10 21 5 29 -4 45 -1 56 11 9 9 24
16 32 16 9 0 16 6 16 13 0 9 2 9 8 0 6 -10 20 -6 55 12 26 14 47 23 47 21 0
-3 25 4 57 15 66 22 63 22 63 9 0 -5 -6 -10 -14 -10 -8 0 -43 -15 -78 -33 -35
-18 -70 -31 -77 -29 -8 3 -11 0 -8 -5 3 -5 -23 -17 -59 -27 -35 -10 -64 -24
-64 -31 0 -17 -82 -53 -87 -38 -3 9 -11 9 -27 2 -21 -10 -22 -16 -18 -62 5
-51 21 -76 50 -77 7 0 30 -8 52 -19 37 -18 39 -18 57 1 19 19 20 19 77 -2 41
-16 56 -26 54 -38 -2 -9 2 -16 9 -15 6 1 14 -5 17 -13 5 -12 2 -15 -11 -10
-13 5 -15 4 -7 -4 8 -8 25 -5 64 10 73 29 88 18 18 -14 -56 -25 -58 -27 -58
-63 0 -21 3 -55 6 -75 6 -34 10 -37 53 -47 68 -15 148 -24 134 -14 -6 5 88 7
210 5 122 -1 227 -2 232 -2 6 0 75 2 156 4 80 2 176 7 215 11 42 4 80 2 97 -4
31 -12 62 1 71 29 7 22 -1 -40 -9 -70 -4 -14 -3 -20 2 -14 6 8 146 14 478 18
259 4 565 12 680 17 437 21 831 26 1110 14 136 -6 193 -5 235 5 42 10 219 14
765 16 391 1 734 5 763 9 l52 7 0 3539 0 3539 -2451 0 -2451 0 6 -27 c10 -42
17 -144 21 -278 3 -117 12 -193 36 -285 6 -25 13 -70 14 -100 2 -30 8 -56 14
-58 6 -2 11 -9 11 -17 0 -18 56 -25 213 -25 75 0 137 -4 137 -9 0 -4 -46 -12
-102 -17 -57 -5 -103 -13 -103 -19 0 -18 -16 -35 -26 -29 -6 3 -7 -5 -2 -23 4
-15 7 -37 7 -48 0 -11 8 -29 18 -39 12 -13 18 -35 18 -67 0 -26 5 -51 11 -55
8 -4 7 -9 -2 -15 -11 -7 -11 -9 -1 -9 7 0 10 -5 6 -11 -13 -21 -22 -79 -12
-73 6 4 14 0 19 -7 13 -21 11 -32 -6 -25 -10 4 -15 -1 -15 -15 0 -11 4 -18 9
-14 5 3 9 -8 9 -24 -1 -21 -7 -31 -22 -35 -13 -4 -17 -9 -10 -13 14 -11 19
-133 5 -133 -6 0 -11 -5 -11 -11 0 -6 6 -9 14 -6 8 3 22 0 31 -7 14 -10 17
-29 16 -101 0 -61 -4 -91 -13 -96 -9 -6 -9 -9 -1 -9 6 0 15 5 18 10 4 6 12 4
21 -5 12 -11 14 -26 9 -58 -4 -23 -4 -39 0 -35 3 3 8 14 9 25 2 10 12 19 24
21 16 3 22 13 27 52 7 51 34 91 36 54 1 -11 1 -23 0 -28 -1 -5 6 -5 16 0 10 4
30 7 45 7 27 0 27 1 30 76 3 70 5 76 25 79 17 3 23 11 26 40 l4 37 1 -37 c2
-39 18 -51 29 -22 5 13 7 13 14 2 5 -7 14 -13 21 -13 7 0 14 -13 16 -29 3 -23
6 -26 14 -15 7 10 8 7 2 -11 -4 -14 -9 -76 -11 -137 -4 -84 -2 -113 7 -113 10
0 10 -4 0 -15 -10 -12 -11 -146 -7 -631 3 -338 7 -617 9 -619 2 -2 1 -32 -3
-67 -3 -35 -6 -130 -6 -213 l0 -150 7 110 c4 72 6 11 6 -175 0 -242 -1 -259
-6 -115 l-6 170 -2 -207 c-2 -194 -1 -207 16 -201 12 4 14 3 7 -5 -5 -6 -80
-27 -165 -47 -85 -20 -198 -47 -251 -60 -116 -30 -112 -30 -104 -2 5 19 4 19
-5 5 -7 -11 -17 -15 -28 -11 -14 6 -15 4 -5 -9 11 -13 5 -17 -45 -27 -31 -7
-111 -26 -177 -41 -322 -77 -331 -78 -344 -61 -11 14 -11 14 -7 -1 5 -18 -14
-26 -109 -47 -45 -10 -271 -64 -567 -135 -59 -14 -118 -25 -130 -25 -17 1 -19
2 -5 6 14 4 17 14 15 56 -1 50 -2 51 -5 10 -2 -24 -9 -43 -14 -43 -6 0 -9 81
-7 220 l3 219 -40 -6 c-22 -3 -44 -6 -49 -7 -5 0 -11 5 -13 12 -3 7 -1 12 4
10 4 -1 27 2 50 6 46 8 64 23 43 36 -8 5 -9 9 -1 11 7 3 12 38 14 89 2 80 1
85 -18 81 -19 -3 -19 -2 -2 16 21 24 24 51 3 34 -11 -9 -12 -6 -9 13 4 17 10
23 22 19 13 -4 13 -3 2 5 -7 5 -11 16 -7 23 4 8 -1 3 -11 -11 -27 -39 -87 -92
-91 -81 -2 5 17 35 42 66 25 31 46 66 46 78 0 12 7 31 15 41 8 11 15 27 15 37
0 14 -5 16 -37 8 -50 -11 -83 -11 -83 0 0 5 30 13 66 16 78 9 77 8 94 145 20
161 41 220 67 184 12 -16 13 -16 14 7 0 13 2 38 4 54 2 17 1 22 -2 13 -8 -32
-19 -19 -17 22 1 24 -2 37 -8 34 -5 -4 -8 -15 -5 -25 3 -11 -3 -29 -14 -42
-18 -21 -20 -21 -33 -4 -7 9 -17 17 -21 17 -4 0 -2 -6 4 -13 14 -17 4 -27 -26
-27 -26 0 -29 14 -9 49 11 21 11 26 -5 42 -14 14 -24 16 -59 8 -24 -5 -45 -7
-49 -4 -7 7 20 25 29 20 4 -2 55 5 115 15 60 11 110 20 112 20 2 0 1 4 -2 10
-3 6 1 7 9 4 11 -4 16 0 16 14 0 12 7 47 16 79 8 32 15 82 15 111 -1 34 2 51
9 47 5 -3 10 1 10 10 0 9 -4 13 -10 10 -6 -4 -10 5 -10 20 0 21 4 26 16 21 12
-5 15 -2 9 11 -3 10 -9 30 -12 46 -3 15 -10 30 -14 33 -17 10 -9 23 19 27 15
2 0 4 -33 5 -44 0 -55 -2 -40 -9 15 -7 12 -8 -15 -4 -50 8 -46 8 -155 1 -99
-6 -99 -6 -55 9 25 8 65 15 90 16 42 1 117 15 95 18 -5 0 -11 15 -12 31 -5 83
-7 88 -20 83 -7 -3 -13 -11 -13 -17 0 -7 -6 -21 -14 -31 -11 -16 -17 -17 -29
-7 -13 11 -17 8 -25 -15 -9 -25 -11 -22 -11 30 -1 59 -19 82 -19 25 0 -36 -20
-97 -21 -65 -1 10 -5 16 -11 12 -5 -3 -14 9 -19 27 l-10 33 2 -35 c1 -24 -2
-34 -10 -32 -8 1 -13 -10 -14 -30 0 -27 -2 -29 -8 -13 -8 19 -8 19 -16 -5 -12
-40 -25 -52 -41 -39 -10 8 -14 8 -14 0 0 -16 -62 -9 -81 9 -19 18 -32 50 -19
50 4 0 11 14 15 31 5 20 11 29 21 25 8 -3 14 1 14 8 0 8 9 16 19 19 14 3 18 1
14 -9 -7 -20 7 -17 22 3 12 16 15 16 34 -7 19 -24 20 -24 21 -4 0 11 6 26 13
33 10 11 8 13 -10 8 -25 -6 -31 11 -12 30 8 8 0 18 -27 37 -21 14 -43 26 -47
26 -12 0 -46 42 -47 57 0 6 -11 20 -25 31 -14 11 -25 27 -25 36 0 9 -15 30
-32 46 -25 23 -30 32 -20 38 11 7 10 11 -3 16 -9 3 -20 4 -24 2 -4 -3 -8 21
-9 52 -1 31 -7 111 -13 177 -6 66 -12 145 -13 175 -4 117 -6 140 -16 140 -5 0
-10 -18 -10 -40 0 -22 -4 -40 -10 -40 -5 0 -10 18 -10 40 0 29 -4 40 -15 40
-12 0 -15 16 -15 80 0 44 -4 80 -9 80 -4 0 -4 24 0 53 11 64 2 189 -16 238 -9
24 -10 40 -4 46 7 7 5 12 -5 16 -9 4 -17 -1 -21 -14 -4 -10 -11 -19 -16 -19
-5 0 -9 -11 -9 -24 0 -14 -4 -28 -10 -31 -36 -22 25 118 74 170 24 25 43 35
67 37 19 1 41 2 49 4 8 1 26 2 40 3 18 1 21 4 12 10 -11 6 -8 13 12 29 30 23
34 42 10 42 -14 0 -16 8 -11 58 5 46 2 61 -13 80 -22 26 -40 29 -40 5 0 -14
-2 -15 -12 -4 -10 11 -10 14 0 18 14 6 16 33 2 33 -5 0 -10 8 -10 18 0 10 -13
28 -30 40 -19 15 -30 31 -30 47 0 14 -4 25 -9 25 -5 0 -11 9 -14 21 -3 12 -10
18 -16 15 -29 -18 -24 90 10 226 10 42 19 90 19 107 l0 31 -650 0 -650 0 0
-40z m1174 -1471 c-1 -258 -4 -473 -8 -476 -7 -8 -8 857 0 907 4 22 7 40 8 40
0 0 0 -212 0 -471z m53 439 c-3 -7 -5 -2 -5 12 0 14 2 19 5 13 2 -7 2 -19 0
-25z m-10 -170 c-2 -24 -4 -5 -4 42 0 47 2 66 4 43 2 -24 2 -62 0 -85z m2394
15 c1 -16 2 -16 6 -1 3 11 15 16 39 16 31 0 34 -2 35 -31 l1 -32 10 33 c16 47
28 39 28 -18 0 -51 -8 -61 -30 -35 -7 8 -17 12 -22 9 -6 -4 -5 -10 3 -15 7 -4
11 -10 9 -13 -7 -7 -102 -16 -111 -10 -4 2 -1 20 7 39 17 41 17 48 4 40 -5 -3
-10 3 -10 14 0 25 30 28 31 4z m-241 -53 c0 -5 -5 -10 -11 -10 -5 0 -7 5 -4
10 3 6 8 10 11 10 2 0 4 -4 4 -10z m-2615 -50 c3 -5 1 -10 -4 -10 -6 0 -11 5
-11 10 0 6 2 10 4 10 3 0 8 -4 11 -10z m2886 -66 c-9 -28 -9 -29 -10 -3 -1 14
2 29 6 32 11 12 13 2 4 -29z m16 -16 c-3 -8 -6 -5 -6 6 -1 11 2 17 5 13 3 -3
4 -12 1 -19z m-132 -78 c13 22 25 -3 25 -54 0 -58 -6 -71 -27 -55 -9 8 -13 8
-13 0 0 -6 -10 -11 -22 -10 -13 0 -38 -2 -57 -4 -38 -4 -48 11 -31 43 9 16 9
25 0 36 -22 25 -5 42 40 40 23 -1 44 2 46 6 3 5 12 4 19 -2 9 -8 15 -8 20 0z
m-2990 -91 c-51 -10 -92 -10 -50 1 17 4 44 8 60 8 25 0 24 -2 -10 -9z m702
-344 c-3 -14 -5 -12 -6 8 0 15 -8 30 -17 34 -13 5 -13 7 -2 14 15 10 31 -24
25 -56z m48 55 c3 -5 -1 -10 -9 -10 -8 0 -18 5 -21 10 -3 6 1 10 9 10 8 0 18
-4 21 -10z m-490 -70 c3 -5 1 -10 -4 -10 -6 0 -11 5 -11 10 0 6 2 10 4 10 3 0
8 -4 11 -10z m475 -20 c0 -5 -4 -10 -10 -10 -5 0 -10 5 -10 10 0 6 5 10 10 10
6 0 10 -4 10 -10z m-243 -102 c-2 -13 -4 -3 -4 22 0 25 2 35 4 23 2 -13 2 -33
0 -45z m140 -60 c-2 -24 -4 -5 -4 42 0 47 2 66 4 43 2 -24 2 -62 0 -85z m0
-275 c-3 -10 -5 -4 -5 12 0 17 2 24 5 18 2 -7 2 -21 0 -30z m546 -20 c-7 -2
-19 -2 -25 0 -7 3 -2 5 12 5 14 0 19 -2 13 -5z m-538 -12 c3 -5 1 -12 -5 -16
-5 -3 -10 1 -10 9 0 18 6 21 15 7z m-877 -159 c-10 -2 -18 -8 -18 -14 0 -6 -2
-9 -5 -6 -12 12 7 37 23 30 16 -6 15 -7 0 -10z m1340 -287 c5 -58 -5 -88 -28
-82 -11 3 -25 -2 -32 -10 -10 -13 -13 -13 -24 2 -11 15 -13 15 -22 -1 -6 -10
-16 -15 -26 -11 -20 8 -21 27 -1 27 8 0 15 5 15 11 0 5 -4 7 -10 4 -5 -3 -10
3 -10 14 0 11 5 23 10 26 16 10 12 25 -7 25 -16 0 -16 1 0 18 16 15 19 15 27
2 9 -13 11 -13 20 0 8 12 13 13 29 3 16 -10 20 -9 25 3 10 27 31 9 34 -31z
m-467 -711 c-1 -213 -4 -390 -6 -393 -3 -2 -5 175 -5 394 0 219 3 396 6 392 4
-3 6 -180 5 -393z m468 242 c18 -46 -17 -139 -40 -106 -8 12 -9 10 -4 -7 4
-14 2 -23 -4 -23 -6 0 -11 4 -11 9 0 5 -9 11 -21 14 -17 5 -18 3 -8 -9 10 -12
10 -17 0 -27 -10 -9 -11 -8 -6 6 6 14 1 17 -25 17 -27 0 -32 3 -27 20 3 11 1
23 -4 26 -5 3 -9 13 -9 22 1 15 2 15 11 -2 9 -15 13 -16 20 -5 13 21 11 37 -7
41 -13 3 -13 5 -1 23 12 16 18 17 30 7 11 -10 17 -10 22 -2 4 7 16 10 26 7 11
-3 19 -1 19 4 0 19 31 8 39 -15z m-442 -63 c-3 -10 -5 -2 -5 17 0 19 2 27 5
18 2 -10 2 -26 0 -35z m55 7 c4 -45 -7 -55 -15 -13 -4 24 0 53 8 53 2 0 5 -18
7 -40z m-30 -42 c-8 -8 -9 -4 -5 13 4 13 8 18 11 10 2 -7 -1 -18 -6 -23z m295
-44 c-3 -3 -12 -4 -19 -1 -8 3 -5 6 6 6 11 1 17 -2 13 -5z m76 -291 c-7 -2
-19 -2 -25 0 -7 3 -2 5 12 5 14 0 19 -2 13 -5z m-3 -33 c-9 -6 -10 -10 -3 -10
6 0 15 5 18 10 14 23 35 -13 35 -59 0 -38 -5 -52 -26 -72 -22 -21 -24 -21 -18
-4 6 16 5 18 -7 8 -20 -19 -39 -16 -49 10 -8 21 -9 21 -9 -5 -1 -36 -21 -37
-21 -2 0 15 -8 33 -17 40 -17 12 -17 14 -1 41 19 32 44 38 40 8 -2 -14 3 -10
17 13 12 17 29 32 38 32 15 0 16 -2 3 -10z m-365 -20 c3 -5 1 -10 -4 -10 -6 0
-11 5 -11 10 0 6 2 10 4 10 3 0 8 -4 11 -10z m27 -65 c3 -14 2 -25 -2 -25 -4
0 -10 11 -12 25 -3 14 -2 25 2 25 4 0 10 -11 12 -25z m234 -40 c-9 -9 -16 -13
-16 -8 0 12 22 34 28 28 2 -2 -3 -11 -12 -20z m69 -25 c3 -5 1 -10 -4 -10 -6
0 -11 5 -11 10 0 6 2 10 4 10 3 0 8 -4 11 -10z m-388 -102 c-2 -13 -4 -3 -4
22 0 25 2 35 4 23 2 -13 2 -33 0 -45z m2314 -42 c5 3 9 0 9 -6 0 -15 -23 -7
-26 8 -1 7 0 8 3 2 2 -5 9 -8 14 -4z m-171 -58 c0 -19 -2 -20 -10 -8 -13 19
-13 30 0 30 6 0 10 -10 10 -22z m-190 2 c0 -5 -2 -10 -4 -10 -3 0 -8 5 -11 10
-3 6 -1 10 4 10 6 0 11 -4 11 -10z m-190 -75 c0 -2 -7 -5 -15 -9 -9 -3 -15 0
-15 9 0 9 6 12 15 9 8 -4 15 -7 15 -9z m-205 -45 c3 -5 1 -10 -4 -10 -6 0 -11
5 -11 10 0 6 2 10 4 10 3 0 8 -4 11 -10z m2705 -12 c30 -6 68 -20 84 -31 19
-14 30 -16 35 -9 5 8 19 6 47 -8 21 -11 62 -23 89 -26 28 -4 61 -13 74 -21 19
-13 25 -13 32 -2 6 11 11 11 21 1 16 -16 55 -16 61 1 4 10 7 10 18 0 11 -11
10 -13 -4 -13 -9 0 -17 -4 -17 -10 0 -6 26 -10 59 -10 32 0 86 -3 120 -6 52
-6 61 -5 61 10 0 13 12 16 80 16 64 0 80 -3 80 -15 0 -13 24 -15 160 -15 110
0 160 -3 160 -11 0 -8 24 -9 80 -4 56 5 80 4 80 -4 0 -6 17 -11 40 -11 22 0
40 -4 40 -10 0 -5 18 -10 40 -10 22 0 40 -4 40 -10 0 -5 18 -10 40 -10 22 0
40 5 40 10 0 6 17 10 39 10 29 0 40 -5 43 -18 3 -11 23 -23 49 -32 24 -7 58
-24 75 -36 17 -13 34 -21 36 -18 8 8 81 -27 119 -57 20 -16 42 -29 47 -29 6 0
19 -11 30 -25 12 -15 30 -25 46 -25 24 0 26 -4 26 -40 0 -36 -2 -40 -26 -40
-16 0 -34 -10 -46 -25 -11 -14 -24 -25 -29 -25 -6 0 -25 -11 -42 -23 -18 -13
-65 -34 -105 -47 -76 -24 -100 -40 -60 -40 22 -1 22 -1 4 -12 -23 -13 -79 -20
-153 -18 -28 1 -67 -6 -87 -14 -20 -8 -43 -13 -51 -9 -8 3 -26 -2 -40 -11 -32
-21 -35 -20 -35 5 0 15 -4 19 -16 15 -9 -3 -27 -9 -40 -12 -13 -3 -24 -10 -24
-15 0 -5 -18 -9 -40 -9 -22 0 -40 -4 -40 -10 0 -6 -47 -10 -120 -10 -66 0
-120 -4 -120 -8 0 -4 -82 -7 -182 -6 -101 2 -217 -1 -258 -6 -41 -5 -128 -12
-192 -14 -113 -4 -152 -13 -148 -32 1 -5 -3 -10 -9 -12 -6 -2 -11 1 -11 7 0
15 -36 14 -63 -3 -12 -8 -45 -19 -74 -26 -28 -6 -60 -18 -70 -25 -24 -19 -33
-18 -33 0 0 12 -14 15 -69 15 -38 0 -92 5 -120 12 -42 9 -51 15 -51 33 0 17
-11 25 -54 38 -30 10 -59 24 -66 32 -7 8 -19 15 -26 15 -8 0 -14 5 -14 11 0 7
-12 22 -26 35 -14 13 -23 28 -20 33 3 5 -10 21 -29 35 -41 31 -53 70 -57 176
-2 56 2 86 17 118 10 23 22 42 27 42 4 0 8 13 8 29 0 17 8 34 20 42 11 8 22
25 25 38 2 13 11 31 20 41 8 9 15 22 15 28 0 7 8 12 18 12 9 0 29 10 43 23 38
33 87 57 118 57 15 0 31 3 34 7 4 4 28 14 54 23 49 17 85 16 173 -2z m-2900
-18 c0 -11 -4 -20 -9 -20 -5 0 -7 9 -4 20 3 11 7 20 9 20 2 0 4 -9 4 -20z
m-892 -46 c2 -37 -1 -54 -13 -64 -13 -11 -18 -11 -24 -1 -6 10 -10 9 -14 -3
-5 -12 -14 -15 -32 -10 -15 4 -25 2 -25 -5 0 -15 -19 -14 -34 2 -14 14 -10 85
6 104 6 7 19 11 29 8 11 -4 19 -1 19 5 0 8 10 10 25 8 14 -3 25 -1 25 4 0 5 8
8 18 6 13 -2 18 -15 20 -54z m687 -34 c0 -26 -5 -45 -12 -47 -7 -3 -13 0 -13
7 0 6 5 8 10 5 6 -4 9 8 8 29 -2 20 -6 36 -10 36 -5 0 -8 5 -8 11 0 6 6 9 13
7 7 -3 12 -22 12 -48z m205 35 c0 -9 -6 -12 -16 -8 -13 5 -13 7 -2 14 17 11
18 11 18 -6z m-763 -31 c-3 -3 -12 -4 -19 -1 -8 3 -5 6 6 6 11 1 17 -2 13 -5z
m-44 -11 c-7 -2 -19 -2 -25 0 -7 3 -2 5 12 5 14 0 19 -2 13 -5z m391 -9 c3 -9
1 -23 -4 -32 -9 -14 -10 -13 -5 6 5 16 2 22 -10 22 -9 0 -13 5 -10 10 9 15 22
12 29 -6z m-227 -81 c-3 -10 -5 -4 -5 12 0 17 2 24 5 18 2 -7 2 -21 0 -30z
m5063 22 l25 -14 -32 -1 c-23 0 -33 5 -33 15 0 18 8 18 40 0z m-4835 -17 c6
-4 0 -8 -12 -8 -16 0 -21 4 -16 15 3 9 8 12 12 8 3 -4 11 -11 16 -15z m-687
-16 c2 -7 -3 -12 -12 -12 -9 0 -16 7 -16 16 0 17 22 14 28 -4z m-798 -157 c0
-8 -4 -15 -10 -15 -5 0 -10 7 -10 15 0 8 5 15 10 15 6 0 10 -7 10 -15z m110
-66 c0 -19 -43 -164 -52 -173 -12 -15 -10 12 7 74 19 72 19 79 -5 73 -14 -4
-20 0 -20 10 0 14 17 21 58 26 6 0 12 -4 12 -10z m-1053 -5 c-3 -3 -12 -4 -19
-1 -8 3 -5 6 6 6 11 1 17 -2 13 -5z m-170 -80 c-3 -3 -12 -4 -19 -1 -8 3 -5 6
6 6 11 1 17 -2 13 -5z m683 -44 c0 -5 -8 -14 -19 -19 -22 -12 -37 -43 -16 -35
7 3 23 1 34 -6 17 -8 21 -8 21 3 0 28 43 55 80 51 47 -6 74 -35 74 -80 0 -72
-90 -112 -136 -59 l-21 25 -19 -31 c-24 -39 -58 -37 -69 5 -10 38 4 112 26
136 19 21 45 27 45 10z m631 -13 c-13 -13 -26 -3 -16 12 3 6 11 8 17 5 6 -4 6
-10 -1 -17z m-891 -92 c0 -8 -4 -15 -9 -15 -13 0 -22 16 -14 24 11 11 23 6 23
-9z m-335 -60 c-23 -18 -26 -24 -13 -25 10 0 22 -9 28 -19 25 -48 -2 -125 -43
-119 -28 4 -35 28 -8 28 13 0 25 9 30 23 11 30 3 49 -19 42 -22 -7 -29 10 -24
55 5 38 10 46 39 52 36 8 41 -11 10 -37z m2225 20 c0 -8 -4 -15 -10 -15 -5 0
-10 7 -10 15 0 8 5 15 10 15 6 0 10 -7 10 -15z m-1510 -325 c0 -5 -7 -10 -15
-10 -8 0 -15 5 -15 10 0 6 7 10 15 10 8 0 15 -4 15 -10z m3418 -503 l3 -458
-48 -20 c-27 -11 -61 -26 -77 -35 -17 -8 -33 -11 -38 -6 -13 13 -26 195 -23
313 l3 104 -8 -90 c-4 -49 -8 -148 -9 -218 -1 -112 -3 -128 -18 -133 -10 -4
-46 -19 -80 -35 -41 -18 -63 -24 -64 -16 -1 7 -1 26 -1 42 1 23 -2 19 -9 -15
-6 -25 -20 -53 -32 -63 l-22 -18 22 10 c27 14 33 14 33 1 0 -5 -8 -10 -17 -10
-15 0 -14 -2 3 -16 18 -15 18 -15 0 -10 -10 4 -25 1 -32 -5 -11 -9 -14 -7 -14
7 -1 18 -1 18 -14 1 -14 -18 -15 -18 -24 -1 -9 15 -13 16 -26 5 -9 -7 -16 -10
-16 -6 0 4 -11 0 -25 -9 -24 -16 -25 -16 -25 4 0 26 -13 26 -25 -1 -10 -21
-138 -82 -163 -77 -9 2 -14 31 -18 96 -5 95 0 137 16 127 12 -7 60 16 54 26
-3 5 2 6 11 3 8 -4 25 1 38 9 13 8 32 17 42 20 14 3 12 5 -9 6 -23 1 -26 4
-17 14 6 8 8 17 4 20 -3 4 2 7 13 7 16 0 19 9 22 61 2 34 7 72 12 85 7 17 6
24 -3 24 -8 0 -8 3 2 9 7 5 11 13 7 19 -3 6 7 13 24 17 37 8 49 25 18 25 -19
0 -18 3 12 17 19 10 37 20 40 23 7 7 37 6 46 -3 4 -4 12 -7 18 -7 6 0 4 5 -4
10 -13 8 -12 10 3 10 9 0 17 4 17 9 0 5 -8 12 -17 14 -14 4 -12 5 5 6 12 0 22
5 22 11 0 5 7 7 15 4 13 -5 15 14 15 142 l0 149 28 12 c44 20 114 43 128 43 9
0 11 -15 8 -57 -3 -48 -2 -53 6 -28 5 17 10 62 11 100 0 61 3 108 8 145 0 6 6
10 12 10 6 0 25 6 42 14 39 18 66 24 92 23 20 -2 20 -10 23 -460z m-115 446
c-7 -2 -21 -2 -30 0 -10 3 -4 5 12 5 17 0 24 -2 18 -5z m-88 -46 c11 -11 5
-16 -31 -30 -41 -15 -44 -15 -45 1 -1 15 -2 15 -6 0 -5 -19 -5 -19 -40 -23
-14 -1 -23 3 -23 12 0 8 4 12 9 9 5 -4 11 -3 13 2 3 9 76 40 96 41 7 1 19 -5
27 -12z m-2819 -67 c18 -16 29 -32 24 -35 -6 -3 -10 -15 -10 -25 0 -23 -46
-60 -75 -60 -12 0 -34 9 -48 20 -14 11 -31 20 -38 20 -10 0 -10 3 -1 12 7 7
12 19 12 29 0 9 9 28 21 43 28 36 71 35 115 -4z m1149 -39 c-4 -25 -12 -41
-21 -41 -8 0 -14 -5 -14 -11 0 -6 -6 -9 -14 -6 -7 3 -19 0 -25 -6 -16 -16 -26
0 -11 18 10 12 10 15 -4 15 -9 0 -15 -3 -15 -7 5 -31 -2 -45 -21 -40 -11 3
-20 2 -20 -3 0 -4 -20 -13 -44 -19 -56 -14 -59 -14 -50 1 11 17 11 58 1 58 -4
0 -5 5 -2 11 4 6 13 8 21 5 7 -3 16 -1 19 4 4 6 11 10 17 10 7 0 6 -6 -2 -15
-9 -10 -9 -15 -1 -15 6 0 11 -10 11 -22 0 -17 3 -19 12 -10 9 9 9 15 1 23 -15
15 -4 49 16 48 10 0 11 -2 4 -6 -15 -5 -17 -23 -4 -23 5 0 13 9 16 20 3 11 10
20 15 20 5 0 7 -7 4 -15 -4 -8 -1 -15 5 -15 6 0 11 9 11 20 0 12 7 20 16 20
14 0 14 -3 4 -15 -8 -9 -8 -15 -2 -15 6 0 14 9 17 20 9 28 25 25 25 -4 0 -35
17 -41 23 -8 3 15 1 29 -5 31 -6 2 -5 7 3 12 19 12 22 5 14 -40z m-1995 29 c0
-5 -7 -10 -15 -10 -8 0 -15 5 -15 10 0 6 7 10 15 10 8 0 15 -4 15 -10z m3240
-54 c0 -15 -54 -39 -64 -29 -12 12 -5 22 22 31 38 14 42 14 42 -2z m-1502 -23
c0 -10 2 -25 6 -33 8 -19 -19 -59 -31 -46 -4 5 -2 11 5 13 14 5 16 33 2 33
-11 0 -14 33 -3 43 12 12 22 7 21 -10z m1422 3 c0 -3 -7 -12 -16 -20 -19 -20
-40 -11 -23 10 10 13 39 20 39 10z m-1498 -24 c-10 -3 -10 -7 -2 -17 19 -23 7
-58 -23 -68 -36 -12 -40 -7 -26 32 9 27 9 35 -2 43 -10 7 -8 9 8 5 13 -3 24 1
27 10 3 8 11 11 18 7 9 -6 9 -9 0 -12z m38 -24 c0 -49 -5 -47 -13 5 -3 20 -2
37 4 37 5 0 9 -19 9 -42z m-110 -40 c0 -51 -12 -43 -17 13 -3 27 -1 39 6 34 6
-3 11 -25 11 -47z m-39 28 c-8 -10 -9 -16 -1 -21 14 -9 13 -40 -2 -53 -10 -8
-13 1 -15 39 -2 39 1 49 14 49 12 0 13 -3 4 -14z m1936 -83 c-3 -10 -5 -2 -5
17 0 19 2 27 5 18 2 -10 2 -26 0 -35z m-2407 -33 c0 -5 -4 -10 -10 -10 -5 0
-10 5 -10 10 0 6 5 10 10 10 6 0 10 -4 10 -10z m2320 -112 c0 -19 -31 -48 -52
-48 -25 0 -23 24 5 43 27 19 47 21 47 5z m-80 -42 c0 -14 -45 -38 -54 -29 -13
13 -5 34 17 42 25 10 37 6 37 -13z m137 -8 c-3 -8 -6 -5 -6 6 -1 11 2 17 5 13
3 -3 4 -12 1 -19z m-1467 -8 c-9 -5 -9 -9 -1 -14 6 -4 11 -18 11 -31 0 -25
-16 -42 -28 -30 -4 4 -1 10 6 12 14 5 16 33 2 33 -11 0 -14 33 -4 43 4 4 11 4
16 0 6 -3 5 -8 -2 -13z m-29 -68 c-6 -10 -10 -11 -15 -3 -11 18 -24 13 -28
-11 -3 -14 -6 -6 -9 20 -2 24 -1 46 3 48 4 3 8 -5 8 -18 1 -21 2 -21 17 7 l16
30 8 -29 c5 -16 4 -36 0 -44z m-76 38 c-3 -5 -1 -18 5 -29 20 -39 4 -50 -130
-87 -30 -9 -61 -20 -67 -26 -9 -7 -13 -7 -13 0 0 6 5 14 10 17 8 5 7 11 -1 21
-15 19 -25 11 -33 -26 -3 -18 -10 -29 -16 -25 -5 3 -10 1 -10 -6 0 -6 -8 -9
-20 -6 -11 3 -20 0 -20 -6 0 -7 -4 -6 -9 2 -8 12 -13 11 -31 -10 -21 -24 -21
-24 -15 -1 4 14 2 22 -5 22 -8 0 -10 9 -5 27 9 36 12 38 29 24 11 -10 17 -8
25 6 9 16 11 15 12 -7 l1 -25 7 25 c8 28 36 34 36 8 0 -28 12 -30 17 -3 3 14
1 25 -5 25 -7 0 -6 5 1 12 10 10 15 10 22 -2 8 -13 10 -13 10 1 0 10 11 19 27
22 37 7 46 0 41 -33 -3 -19 0 -26 8 -23 13 5 13 40 0 61 -4 7 -1 12 8 12 10 0
16 -9 16 -25 0 -14 4 -25 9 -25 12 0 21 39 10 46 -5 3 -7 10 -3 15 12 20 26
-5 19 -37 -5 -28 -3 -33 10 -28 11 5 13 15 9 44 -7 40 -7 39 49 49 5 0 5 -3 2
-9z m652 -127 c-2 -16 -4 -3 -4 27 0 30 2 43 4 28 2 -16 2 -40 0 -55z m176
-19 c-5 -59 -7 -61 -40 -73 -19 -7 -37 -11 -40 -8 -2 3 5 8 16 12 17 5 21 15
21 50 0 34 4 44 20 48 11 3 20 13 20 23 0 9 2 15 4 13 3 -2 2 -32 -1 -65z
m-2586 -100 c-3 -3 -12 -4 -19 -1 -8 3 -5 6 6 6 11 1 17 -2 13 -5z m2500 -100
c-3 -3 -12 -4 -19 -1 -8 3 -5 6 6 6 11 1 17 -2 13 -5z m473 -28 c0 -3 -4 -8
-10 -11 -5 -3 -10 -1 -10 4 0 6 5 11 10 11 6 0 10 -2 10 -4z m-2247 -51 c1 -5
-6 -11 -15 -13 -11 -2 -18 3 -18 13 0 17 30 18 33 0z m1947 -15 c0 -5 -4 -10
-10 -10 -5 0 -10 5 -10 10 0 6 5 10 10 10 6 0 10 -4 10 -10z m290 -37 c-1 -24
-2 -26 -11 -10 -5 9 -7 22 -4 27 10 17 15 11 15 -17z m616 -25 c10 -15 -24
-38 -58 -38 -15 0 -28 -4 -28 -9 0 -9 -41 -23 -48 -16 -10 10 22 35 44 35 13
0 24 4 24 8 0 8 36 30 52 31 4 1 10 -4 14 -11z m155 -9 c6 -13 9 -47 7 -82 -4
-52 -9 -64 -36 -88 -35 -32 -63 -37 -81 -15 -19 22 -24 78 -12 123 19 71 96
110 122 62z m-1042 -33 c-11 -9 -69 -14 -69 -6 0 6 17 10 37 10 20 0 34 -2 32
-4z m-29 -36 c-19 -12 -30 -12 -30 -1 0 10 31 20 40 14 2 -2 -2 -8 -10 -13z
m-24 -96 c18 -15 18 -15 -3 -5 -15 8 -30 8 -48 1 -38 -15 -45 -11 -10 5 38 18
38 18 61 -1z m-221 -74 c-3 -5 -10 -10 -16 -10 -5 0 -9 5 -9 10 0 6 7 10 16
10 8 0 12 -4 9 -10z m60 0 c-12 -5 -14 -9 -6 -9 8 -1 12 -3 10 -6 -3 -2 -16
-1 -29 2 -22 6 -23 7 -4 14 27 11 54 10 29 -1z m1075 -41 c0 -5 -4 -9 -10 -9
-5 0 -10 7 -10 16 0 8 5 12 10 9 6 -3 10 -10 10 -16z m-31 -22 c0 -21 -1 -21
-9 -2 -12 28 -12 37 0 30 6 -3 10 -16 9 -28z m-53 -43 c-3 -9 -10 -13 -15 -9
-5 3 -13 0 -17 -7 -5 -7 -10 -4 -16 11 -4 13 -6 27 -2 32 9 15 32 10 37 -8 3
-11 6 -6 7 12 2 26 3 27 7 7 3 -13 2 -30 -1 -38z m21 19 c-3 -10 -5 -4 -5 12
0 17 2 24 5 18 2 -7 2 -21 0 -30z m-1037 2 c10 -12 10 -15 -4 -15 -9 0 -16 7
-16 15 0 8 2 15 4 15 2 0 9 -7 16 -15z m110 -5 c0 -5 -4 -10 -10 -10 -5 0 -10
5 -10 10 0 6 5 10 10 10 6 0 10 -4 10 -10z m839 -22 c-1 -31 -1 -31 -8 -8 -5
14 -6 28 -4 33 9 15 13 6 12 -25z m-19 -18 c0 -19 -5 -30 -12 -28 -7 1 -24 -4
-37 -11 -15 -8 -27 -9 -33 -3 -17 17 1 49 35 60 47 15 47 15 47 -18z m-120
-22 c0 6 5 12 10 12 20 0 10 -49 -12 -62 -13 -7 -26 -11 -30 -10 -5 1 -9 -4
-9 -10 -1 -7 -5 1 -9 17 l-8 30 -1 -32 c-1 -31 -21 -49 -21 -19 0 8 -2 21 -5
28 -7 18 67 60 77 44 5 -7 8 -7 8 2z m-579 -31 c-10 -9 -11 -8 -5 6 3 10 9 15
12 12 3 -3 0 -11 -7 -18z m382 -77 l72 0 -76 -45 c-64 -38 -80 -44 -101 -36
-27 10 -45 61 -26 72 5 3 10 10 11 15 1 5 7 9 14 9 6 0 15 4 20 9 4 4 9 1 11
-8 3 -13 18 -16 75 -16z m104 8 c-3 -8 -6 -5 -6 6 -1 11 2 17 5 13 3 -3 4 -12
1 -19z m-91 -123 c-15 -16 -86 -21 -86 -7 0 17 14 22 57 22 40 0 43 -2 29 -15z"/>
<path d="M16163 10255 c0 -22 2 -30 4 -17 2 12 2 30 0 40 -3 9 -5 -1 -4 -23z"/>
<path d="M16197 10284 c-4 -4 -7 -17 -7 -28 1 -19 1 -20 11 -3 11 19 8 43 -4
31z"/>
<path d="M16130 10220 c0 -5 5 -10 10 -10 6 0 10 5 10 10 0 6 -4 10 -10 10 -5
0 -10 -4 -10 -10z"/>
<path d="M16053 9998 c-6 -7 -13 -22 -17 -33 -5 -16 -1 -21 14 -21 22 0 27 21
8 29 -10 4 -9 8 2 16 8 5 12 13 9 16 -4 3 -11 0 -16 -7z"/>
<path d="M16007 9983 c-4 -3 -7 -13 -7 -22 1 -13 3 -13 11 2 11 19 8 33 -4 20z"/>
<path d="M14092 8620 c0 -19 2 -27 5 -17 2 9 2 25 0 35 -3 9 -5 1 -5 -18z"/>
<path d="M14141 8154 c0 -11 3 -14 6 -6 3 7 2 16 -1 19 -3 4 -6 -2 -5 -13z"/>
<path d="M14020 7650 c0 -5 5 -10 11 -10 5 0 7 5 4 10 -3 6 -8 10 -11 10 -2 0
-4 -4 -4 -10z"/>
<path d="M14091 7624 c0 -11 3 -14 6 -6 3 7 2 16 -1 19 -3 4 -6 -2 -5 -13z"/>
<path d="M14143 7150 c0 -25 2 -35 4 -22 2 12 2 32 0 45 -2 12 -4 2 -4 -23z"/>
<path d="M14042 7133 c0 -33 1 -35 9 -15 5 13 5 30 1 39 -6 10 -9 2 -10 -24z"/>
<path d="M14092 7140 c0 -19 2 -27 5 -17 2 9 2 25 0 35 -3 9 -5 1 -5 -18z"/>
<path d="M12680 6550 c0 -20 5 -30 15 -30 10 0 15 10 15 30 0 20 -5 30 -15 30
-10 0 -15 -10 -15 -30z"/>
<path d="M16073 5720 c0 -25 2 -35 4 -22 2 12 2 32 0 45 -2 12 -4 2 -4 -23z"/>
<path d="M15884 5563 c2 -16 5 -31 5 -35 1 -5 4 -8 9 -8 4 0 7 16 7 35 0 22
-5 35 -13 35 -8 0 -11 -9 -8 -27z"/>
<path d="M14027 5869 c-4 -15 -2 -19 10 -15 8 3 17 6 19 6 10 0 3 18 -10 23
-8 3 -16 -2 -19 -14z"/>
<path d="M14245 5551 c-3 -5 -1 -12 5 -16 5 -3 10 1 10 9 0 18 -6 21 -15 7z"/>
<path d="M14095 5501 c-3 -5 -1 -12 5 -16 5 -3 10 1 10 9 0 18 -6 21 -15 7z"/>
<path d="M14110 5460 c0 -5 5 -10 10 -10 6 0 10 5 10 10 0 6 -4 10 -10 10 -5
0 -10 -4 -10 -10z"/>
<path d="M13135 10120 c3 -5 8 -10 11 -10 2 0 4 5 4 10 0 6 -5 10 -11 10 -5 0
-7 -4 -4 -10z"/>
<path d="M13267 10040 c-3 -11 -3 -20 -1 -20 2 0 8 9 14 20 6 11 7 20 2 20 -6
0 -12 -9 -15 -20z"/>
<path d="M13350 10043 c0 -11 3 -14 8 -7 4 6 14 14 22 17 10 4 8 6 -7 6 -16 1
-23 -5 -23 -16z"/>
<path d="M13126 10035 c-3 -8 -1 -15 3 -15 5 0 11 7 15 15 3 8 1 15 -3 15 -5
0 -11 -7 -15 -15z"/>
<path d="M13383 10033 c9 -2 23 -2 30 0 6 3 -1 5 -18 5 -16 0 -22 -2 -12 -5z"/>
<path d="M15990 9833 c0 -21 3 -24 9 -14 5 8 7 20 4 28 -8 21 -13 15 -13 -14z"/>
<path d="M16032 9828 c-20 -20 -14 -45 10 -44 19 1 24 -6 28 -33 9 -58 30 -50
30 11 0 55 -12 78 -40 78 -9 0 -21 -5 -28 -12z"/>
<path d="M15895 9700 c-16 -7 -17 -9 -3 -9 9 -1 20 4 23 9 7 11 7 11 -20 0z"/>
<path d="M16077 9683 c-4 -3 -7 -98 -7 -209 0 -177 2 -203 15 -198 13 5 15 38
15 210 0 186 -4 217 -23 197z"/>
<path d="M15887 9648 c-8 -29 -4 -32 11 -8 6 10 8 21 3 24 -5 3 -11 -4 -14
-16z"/>
<path d="M15906 9604 c-14 -34 -16 -72 -3 -77 7 -3 12 5 12 19 0 13 -4 24 -9
24 -5 0 -3 7 4 15 6 8 10 20 8 27 -3 7 -7 4 -12 -8z"/>
<path d="M15893 9475 c0 -27 2 -38 4 -22 2 15 2 37 0 50 -2 12 -4 0 -4 -28z"/>
<path d="M13380 9495 c0 -8 4 -15 10 -15 5 0 7 7 4 15 -4 8 -8 15 -10 15 -2 0
-4 -7 -4 -15z"/>
<path d="M13285 9441 c-24 -7 -31 -31 -9 -31 8 0 13 4 9 9 -3 5 5 11 17 13 13
2 19 6 13 9 -5 3 -19 3 -30 0z"/>
<path d="M12984 9419 c-19 -22 -19 -22 4 -8 12 8 22 17 22 21 0 12 -6 9 -26
-13z"/>
<path d="M13065 9420 c-17 -6 -16 -8 9 -14 33 -8 42 -3 24 11 -7 6 -22 7 -33
3z"/>
<path d="M13145 9420 c27 -12 43 -12 25 0 -8 5 -22 9 -30 9 -10 0 -8 -3 5 -9z"/>
<path d="M13218 9423 c6 -2 18 -2 25 0 6 3 1 5 -13 5 -14 0 -19 -2 -12 -5z"/>
<path d="M13038 9398 c5 -5 16 -8 23 -6 8 3 3 7 -10 11 -17 4 -21 3 -13 -5z"/>
<path d="M15913 9320 c0 -25 2 -35 4 -22 2 12 2 32 0 45 -2 12 -4 2 -4 -23z"/>
<path d="M16066 9229 c-3 -17 -6 -110 -6 -206 l0 -174 23 3 c22 3 22 3 22 203
0 176 -2 200 -16 203 -11 2 -18 -7 -23 -29z"/>
<path d="M15890 9027 c0 -193 1 -208 18 -205 15 3 17 22 19 210 2 199 1 207
-18 205 -18 -1 -19 -10 -19 -210z"/>
<path d="M14252 9205 c0 -16 2 -22 5 -12 2 9 2 23 0 30 -3 6 -5 -1 -5 -18z"/>
<path d="M12210 9207 c-58 -45 -167 -424 -132 -459 9 -9 15 -9 24 0 9 9 8 12
-5 12 -9 0 -17 5 -17 10 0 13 17 13 26 -1 3 -6 19 -9 35 -7 16 3 29 1 29 -3 0
-4 -12 -10 -27 -12 -28 -4 -28 -4 3 -6 16 0 36 -7 42 -13 15 -15 134 -12 143
4 4 6 12 8 18 4 7 -5 9 3 4 25 -4 21 -3 30 4 26 6 -4 14 0 17 9 6 16 -9 171
-20 208 -4 10 -8 30 -9 45 -5 44 -23 103 -34 114 -6 6 -11 19 -11 28 0 24 -20
35 -31 18 -8 -12 -11 -12 -19 1 -9 13 -10 13 -10 0 0 -10 -3 -11 -8 -3 -5 9
-11 9 -22 0z m157 -394 c-3 -10 -5 -4 -5 12 0 17 2 24 5 18 2 -7 2 -21 0 -30z
m-30 -15 c-3 -8 -6 -5 -6 6 -1 11 2 17 5 13 3 -3 4 -12 1 -19z m-113 -63 c3
-8 1 -15 -4 -15 -6 0 -10 7 -10 15 0 8 2 15 4 15 2 0 6 -7 10 -15z"/>
<path d="M15717 9178 c-3 -18 -7 -109 -9 -203 l-3 -170 24 -3 24 -4 -7 174
c-8 214 -17 277 -29 206z"/>
<path d="M12365 9155 c3 -27 11 -54 17 -60 7 -7 9 -2 4 18 -3 15 -2 27 3 27 5
0 11 13 13 30 3 21 1 27 -7 20 -7 -6 -16 -5 -24 3 -11 10 -12 3 -6 -38z"/>
<path d="M14190 9188 c0 -9 5 -20 10 -23 13 -8 13 5 0 25 -8 13 -10 13 -10 -2z"/>
<path d="M12090 9165 c-7 -8 -10 -23 -8 -32 4 -16 -1 -18 -39 -14 -40 3 -43 1
-43 -22 0 -13 -7 -30 -15 -37 -8 -7 -15 -18 -15 -25 0 -8 -11 -22 -25 -33 -14
-11 -25 -25 -25 -31 0 -6 -4 -11 -9 -11 -22 0 -71 -63 -71 -90 0 -16 -7 -30
-15 -34 -21 -8 -19 -36 3 -36 13 -1 11 -4 -8 -16 -23 -14 -23 -14 -2 -9 13 4
22 2 22 -4 0 -6 -9 -11 -20 -11 -28 0 -25 -12 10 -35 16 -11 30 -28 30 -37 0
-20 11 -23 27 -7 7 7 13 7 17 1 4 -6 21 -7 47 -1 22 5 44 7 50 4 5 -3 6 1 3 9
-3 9 -2 16 3 16 10 0 21 38 63 225 17 77 35 150 41 163 20 50 5 98 -21 67z"/>
<path d="M14181 9134 c0 -11 3 -14 6 -6 3 7 2 16 -1 19 -3 4 -6 -2 -5 -13z"/>
<path d="M15542 9110 c-9 -20 -14 -81 -15 -182 -2 -138 0 -153 16 -156 16 -3
17 11 17 182 0 102 -1 186 -3 186 -1 0 -8 -13 -15 -30z"/>
<path d="M14091 9094 c0 -11 3 -14 6 -6 3 7 2 16 -1 19 -3 4 -6 -2 -5 -13z"/>
<path d="M14569 9073 c-8 -100 0 -113 27 -47 18 42 17 44 -2 44 -8 0 -12 5 -9
10 3 6 1 10 -4 10 -6 0 -12 -8 -12 -17z"/>
<path d="M12412 9050 c0 -14 2 -19 5 -12 2 6 2 18 0 25 -3 6 -5 1 -5 -13z"/>
<path d="M415 9018 c-11 -13 -26 -34 -32 -47 -18 -33 -17 -116 2 -135 8 -8 15
-17 15 -20 0 -17 44 -47 61 -43 12 3 19 0 19 -9 0 -12 5 -12 35 1 20 8 42 21
50 29 17 16 21 86 5 86 -5 0 -10 11 -10 24 0 13 -6 29 -14 36 -8 6 -13 17 -10
24 2 6 -7 23 -21 36 -21 20 -28 22 -35 10 -7 -11 -11 -11 -24 -1 -9 7 -13 17
-10 22 11 18 -12 8 -31 -13z"/>
<path d="M15350 9010 c0 -11 -4 -20 -10 -20 -6 0 -10 -48 -10 -125 0 -118 1
-125 20 -125 19 0 20 7 20 145 0 90 -4 145 -10 145 -5 0 -10 -9 -10 -20z"/>
<path d="M14610 8968 c0 -26 4 -38 8 -30 8 12 4 72 -4 72 -2 0 -4 -19 -4 -42z"/>
<path d="M11365 8990 c-3 -5 -1 -10 4 -10 6 0 11 5 11 10 0 6 -2 10 -4 10 -3
0 -8 -4 -11 -10z"/>
<path d="M11417 8983 c-5 -7 -6 -17 -2 -22 3 -5 1 -13 -5 -16 -6 -4 -10 -14
-9 -23 5 -31 -23 -151 -37 -163 -8 -6 -14 -18 -14 -25 0 -8 -9 -14 -20 -14
-11 0 -20 7 -20 15 0 8 -4 15 -8 15 -5 0 -9 -7 -9 -15 0 -8 4 -15 9 -15 4 0 8
-17 8 -39 0 -33 3 -39 25 -43 14 -3 36 -3 50 0 20 3 24 9 20 26 -6 19 -4 19
15 -4 19 -22 21 -23 15 -4 -3 13 2 27 15 39 17 15 20 31 20 102 0 66 -3 83
-15 83 -13 0 -20 22 -27 90 -2 17 -6 21 -11 13z m16 -172 c3 -14 1 -18 -9 -14
-8 3 -14 11 -14 19 0 21 17 17 23 -5z m5 -99 c2 -12 0 -22 -5 -22 -22 1 -53
13 -53 22 0 6 7 8 15 4 8 -3 14 -2 14 2 -3 17 2 23 14 20 6 -3 13 -14 15 -26z
m-62 -60 c-18 -16 -19 -16 -12 1 3 10 6 24 6 30 0 8 4 7 12 -1 10 -9 8 -16 -6
-30z"/>
<path d="M12411 8964 c0 -11 3 -14 6 -6 3 7 2 16 -1 19 -3 4 -6 -2 -5 -13z"/>
<path d="M11523 8938 c1 -15 6 -23 11 -18 4 4 4 16 -2 26 -9 16 -10 14 -9 -8z"/>
<path d="M13371 8920 l1 -45 10 34 c6 23 6 37 -1 44 -8 8 -11 -2 -10 -33z"/>
<path d="M11360 8936 c0 -9 5 -16 10 -16 6 0 10 4 10 9 0 6 -4 13 -10 16 -5 3
-10 -1 -10 -9z"/>
<path d="M13310 8925 c7 -9 15 -13 17 -11 7 7 -7 26 -19 26 -6 0 -6 -6 2 -15z"/>
<path d="M11290 8920 c-12 -8 -9 -10 13 -10 15 0 27 5 27 10 0 13 -20 13 -40
0z"/>
<path d="M13215 8920 c3 -5 8 -10 11 -10 2 0 4 5 4 10 0 6 -5 10 -11 10 -5 0
-7 -4 -4 -10z"/>
<path d="M13085 8910 c-11 -5 -14 -9 -7 -9 6 -1 12 -10 12 -21 0 -12 7 -20 16
-20 14 0 14 3 4 15 -10 12 -10 18 0 30 14 17 6 18 -25 5z"/>
<path d="M13287 8895 c3 -8 9 -12 14 -9 12 7 11 11 -5 17 -10 4 -13 1 -9 -8z"/>
<path d="M12890 8885 c0 -8 5 -15 10 -15 6 0 10 7 10 15 0 8 -4 15 -10 15 -5
0 -10 -7 -10 -15z"/>
<path d="M12985 8890 c3 -5 10 -10 16 -10 5 0 9 5 9 10 0 6 -7 10 -16 10 -8 0
-12 -4 -9 -10z"/>
<path d="M12781 8874 c0 -11 3 -14 6 -6 3 7 2 16 -1 19 -3 4 -6 -2 -5 -13z"/>
<path d="M12838 8883 c6 -2 12 -12 12 -21 0 -14 2 -15 9 -2 12 18 5 30 -17 29
-11 0 -12 -3 -4 -6z"/>
<path d="M13195 8880 c-3 -5 -1 -10 4 -10 6 0 11 5 11 10 0 6 -2 10 -4 10 -3
0 -8 -4 -11 -10z"/>
<path d="M11300 8865 c0 -8 5 -15 10 -15 6 0 10 7 10 15 0 8 -4 15 -10 15 -5
0 -10 -7 -10 -15z"/>
<path d="M12945 8850 c-18 -20 -18 -20 5 -17 25 4 37 21 22 31 -5 3 -17 -3
-27 -14z"/>
<path d="M0 7845 c0 -839 2 -995 14 -995 19 0 41 27 25 32 -7 2 -2 18 15 42
14 21 26 45 26 52 0 12 37 30 45 22 7 -7 -23 -82 -34 -86 -20 -7 -11 -27 19
-45 34 -20 50 -16 50 14 0 18 1 19 25 3 21 -14 25 -14 25 -2 0 8 9 25 20 37
13 16 17 31 13 52 -3 18 0 35 8 46 16 18 23 263 8 263 -5 0 -9 9 -9 20 0 18
-3 19 -20 10 -11 -6 -20 -8 -20 -5 0 8 -48 -44 -53 -58 -6 -19 -29 4 -24 24 3
11 1 35 -5 55 -6 23 -6 51 1 82 8 38 6 57 -9 102 -24 71 -42 161 -46 227 -1
28 -8 62 -14 74 -9 15 -10 47 -5 102 5 57 3 82 -5 87 -7 5 -12 41 -13 96 -2
70 2 96 15 116 13 19 14 28 5 31 -8 2 -12 29 -11 87 1 65 4 86 17 95 10 7 17
22 17 34 0 11 5 21 10 21 6 0 10 18 10 40 0 22 -4 40 -10 40 -14 0 -12 43 3
59 10 11 10 14 0 18 -7 3 -13 12 -13 20 0 9 6 13 14 10 10 -4 18 4 25 24 5 16
17 29 26 29 12 0 15 9 13 40 -2 32 -7 40 -22 40 -11 0 -28 7 -38 17 -17 15
-18 14 -18 -25 0 -23 -4 -42 -10 -42 -5 0 -10 7 -10 16 0 9 -8 23 -17 31 -10
8 -12 11 -4 7 9 -4 12 -2 9 6 -2 7 -14 17 -26 21 l-22 8 0 -994z"/>
<path d="M16064 8827 c-3 -8 -4 -102 -2 -208 3 -175 5 -194 21 -197 16 -3 17
11 19 177 0 100 1 193 2 208 1 31 -30 46 -40 20z"/>
<path d="M12808 8823 c7 -3 16 -2 19 1 4 3 -2 6 -13 5 -11 0 -14 -3 -6 -6z"/>
<path d="M15133 8775 c0 -33 2 -45 4 -27 2 18 2 45 0 60 -2 15 -4 0 -4 -33z"/>
<path d="M15890 8599 c0 -195 1 -210 18 -207 15 3 17 22 20 211 2 202 2 207
-18 207 -19 0 -20 -6 -20 -211z"/>
<path d="M11338 8783 c7 -3 16 -2 19 1 4 3 -2 6 -13 5 -11 0 -14 -3 -6 -6z"/>
<path d="M13205 8768 c-82 -11 -154 -25 -158 -31 -6 -9 -10 -9 -14 1 -5 13
-22 12 -135 -10 -46 -8 -58 -15 -61 -32 -4 -20 -4 -20 -6 2 0 12 -6 22 -11 22
-11 0 -3 -153 9 -157 3 -2 5 -24 4 -50 -1 -27 3 -66 9 -88 6 -22 11 -52 12
-67 0 -16 5 -28 10 -28 5 0 6 -13 3 -29 -8 -38 2 -73 19 -67 8 3 14 -1 14 -10
0 -8 -4 -12 -10 -9 -5 3 -10 1 -10 -4 0 -10 5 -13 31 -15 12 -1 49 97 49 131
0 13 5 23 11 23 7 0 9 -9 6 -22 -15 -60 -19 -128 -8 -128 6 0 11 -4 11 -10 0
-5 -6 -10 -14 -10 -11 0 -26 -20 -26 -35 0 -6 78 4 188 23 92 16 105 21 121
46 13 19 20 24 24 14 3 -7 6 3 6 23 1 20 8 52 16 71 12 30 17 54 30 148 1 8 5
22 8 30 10 25 36 162 43 228 5 49 3 62 -7 61 -8 -1 -81 -10 -164 -21z m-328
-500 c-3 -8 -6 -5 -6 6 -1 11 2 17 5 13 3 -3 4 -12 1 -19z m156 -75 c-7 -2
-19 -2 -25 0 -7 3 -2 5 12 5 14 0 19 -2 13 -5z"/>
<path d="M15707 8773 c-2 -5 -2 -14 -1 -20 1 -7 2 -98 3 -203 1 -181 2 -190
20 -190 19 0 20 10 21 210 1 203 0 210 -19 210 -11 0 -22 -3 -24 -7z"/>
<path d="M14531 8760 c0 -8 4 -22 9 -30 12 -18 12 -2 0 25 -6 13 -9 15 -9 5z"/>
<path d="M15152 8745 c0 -16 2 -22 5 -12 2 9 2 23 0 30 -3 6 -5 -1 -5 -18z"/>
<path d="M15533 8753 c-10 -3 -13 -56 -13 -214 0 -202 1 -209 20 -209 19 0 20
7 20 215 0 118 -3 215 -7 214 -5 0 -14 -3 -20 -6z"/>
<path d="M15330 8509 c1 -200 3 -220 18 -217 15 3 17 26 20 221 2 213 2 217
-18 217 -20 0 -21 -4 -20 -221z"/>
<path d="M12335 8700 c4 -6 11 -8 16 -5 14 9 11 15 -7 15 -8 0 -12 -5 -9 -10z"/>
<path d="M12245 8695 c23 -8 83 -10 79 -3 -3 4 -24 8 -47 7 -23 0 -37 -2 -32
-4z"/>
<path d="M14522 8675 c-7 -14 -12 -34 -11 -43 0 -9 7 1 15 22 16 45 13 59 -4
21z"/>
<path d="M15130 8678 c0 -10 5 -18 10 -18 6 0 10 -72 10 -197 0 -108 2 -194 5
-192 8 9 13 359 5 392 -5 17 -8 25 -9 17 -1 -13 -2 -13 -11 0 -8 13 -10 12
-10 -2z"/>
<path d="M11908 8653 c-16 -2 -28 -8 -28 -12 0 -8 110 6 119 14 5 6 -51 4 -91
-2z"/>
<path d="M14938 8653 c7 -3 16 -2 19 1 4 3 -2 6 -13 5 -11 0 -14 -3 -6 -6z"/>
<path d="M12302 8625 c0 -16 2 -22 5 -12 2 9 2 23 0 30 -3 6 -5 -1 -5 -18z"/>
<path d="M15133 8570 c0 -47 2 -66 4 -42 2 23 2 61 0 85 -2 23 -4 4 -4 -43z"/>
<path d="M14942 8608 c-1 -20 -5 -45 -8 -55 -5 -17 -5 -17 6 0 6 9 9 34 7 55
l-4 37 -1 -37z"/>
<path d="M11248 8623 c6 -2 18 -2 25 0 6 3 1 5 -13 5 -14 0 -19 -2 -12 -5z"/>
<path d="M11170 8606 c0 -2 9 -6 20 -9 11 -3 18 -1 14 4 -5 9 -34 13 -34 5z"/>
<path d="M11920 8590 c14 -4 39 -8 55 -8 l30 0 -30 8 c-16 4 -41 8 -55 8 l-25
0 25 -8z"/>
<path d="M14500 8589 c0 -5 5 -7 10 -4 6 3 10 8 10 11 0 2 -4 4 -10 4 -5 0
-10 -5 -10 -11z"/>
<path d="M11408 8583 c6 -2 18 -2 25 0 6 3 1 5 -13 5 -14 0 -19 -2 -12 -5z"/>
<path d="M11898 8555 c2 -14 9 -28 15 -32 6 -4 8 4 5 21 -3 16 -1 26 6 26 13
0 9 -82 -5 -90 -4 -3 -6 -16 -2 -28 3 -12 9 -20 13 -17 5 3 6 14 3 25 -3 11
-1 20 5 20 6 0 12 -8 15 -17 2 -10 2 9 -1 41 -5 52 -3 59 11 53 10 -4 17 -3
17 2 0 8 -47 21 -75 21 -8 0 -10 -9 -7 -25z"/>
<path d="M14525 8571 c-3 -5 -2 -12 3 -15 5 -3 9 1 9 9 0 17 -3 19 -12 6z"/>
<path d="M14380 8558 c0 -9 5 -20 10 -23 13 -8 13 5 0 25 -8 13 -10 13 -10 -2z"/>
<path d="M14525 8530 c3 -5 8 -10 11 -10 2 0 4 5 4 10 0 6 -5 10 -11 10 -5 0
-7 -4 -4 -10z"/>
<path d="M11338 8503 c7 -3 16 -2 19 1 4 3 -2 6 -13 5 -11 0 -14 -3 -6 -6z"/>
<path d="M14510 8500 c0 -5 -9 -10 -19 -10 -12 0 -20 -7 -20 -17 0 -10 -4 -34
-9 -53 -5 -19 -5 -62 -1 -95 4 -33 8 -86 8 -117 1 -31 6 -60 11 -63 6 -3 10
-1 10 5 0 7 7 10 15 6 10 -3 15 1 15 12 0 13 2 14 9 4 16 -27 22 21 20 175 -1
84 -3 153 -6 153 -2 0 -8 -10 -14 -22 -9 -22 -9 -21 -6 5 3 15 0 27 -4 27 -5
0 -9 -4 -9 -10z"/>
<path d="M14931 8494 c0 -11 3 -14 6 -6 3 7 2 16 -1 19 -3 4 -6 -2 -5 -13z"/>
<path d="M15132 8460 c0 -14 2 -19 5 -12 2 6 2 18 0 25 -3 6 -5 1 -5 -13z"/>
<path d="M14412 8404 c-10 -19 -43 -214 -41 -245 1 -26 21 36 44 136 13 56 20
106 15 114 -6 11 -10 10 -18 -5z"/>
<path d="M16075 8402 c-6 -4 -10 -22 -9 -39 1 -18 2 -107 3 -198 1 -139 3
-165 16 -165 13 0 15 29 15 205 0 113 -3 205 -7 205 -5 0 -13 -4 -18 -8z"/>
<path d="M15890 8164 c0 -190 1 -205 18 -202 15 3 17 22 20 206 2 197 2 202
-18 202 -19 0 -20 -6 -20 -206z"/>
<path d="M15723 8343 c-20 -7 -18 -423 1 -423 8 0 16 6 19 14 8 21 7 416 -1
415 -4 0 -13 -3 -19 -6z"/>
<path d="M14440 8305 c0 -14 -4 -33 -9 -43 -16 -29 -32 -102 -26 -112 3 -6 1
-10 -4 -10 -6 0 -11 -4 -11 -9 0 -5 9 -7 19 -4 13 3 18 12 16 26 -4 20 -3 21
9 4 12 -15 14 -4 15 78 1 52 -1 95 -4 95 -3 0 -5 -11 -5 -25z"/>
<path d="M15527 8303 c-7 -13 -1 -413 6 -413 4 0 12 0 17 0 6 0 10 77 10 210
0 176 -2 210 -14 210 -8 0 -17 -3 -19 -7z"/>
<path d="M15340 8255 c-10 -18 -11 -60 -6 -172 3 -81 8 -161 10 -178 3 -16 5
-36 5 -42 1 -7 6 -13 11 -13 12 0 14 416 2 424 -5 3 -15 -6 -22 -19z"/>
<path d="M15150 8192 c0 -18 5 -32 10 -32 6 0 8 11 4 28 -10 39 -14 40 -14 4z"/>
<path d="M13250 8199 c0 -5 5 -7 10 -4 6 3 10 8 10 11 0 2 -4 4 -10 4 -5 0
-10 -5 -10 -11z"/>
<path d="M13220 8151 c0 -5 -7 -12 -16 -15 -8 -3 -12 -2 -9 4 8 12 7 12 -80
-1 -72 -12 -103 -15 -143 -18 -13 0 -21 -5 -18 -10 3 -4 -1 -17 -9 -27 -8 -10
-14 -28 -14 -39 0 -18 1 -18 7 -2 4 9 7 -13 7 -50 -1 -78 4 -105 16 -98 4 3
20 -13 34 -36 28 -43 27 -63 0 -35 -27 26 -30 18 -4 -10 13 -14 25 -21 27 -15
2 7 12 7 30 0 29 -11 72 -4 72 12 0 6 4 8 9 5 4 -3 6 7 4 22 -3 24 -2 25 7 7
8 -16 9 -9 6 29 -2 27 0 43 4 36 5 -9 9 -9 14 -1 4 6 12 8 18 5 7 -4 8 -2 4 5
-10 16 13 83 26 75 8 -5 9 1 4 17 -4 13 -10 35 -12 49 -4 23 -3 22 11 -5 l15
-30 -5 28 c-4 22 -3 27 7 21 7 -4 10 -4 6 0 -3 4 0 23 8 41 17 41 17 45 3 45
-5 0 -8 -4 -5 -9 3 -5 -3 -20 -14 -32 -17 -21 -19 -22 -20 -6 0 10 5 15 10 12
6 -3 10 3 10 14 0 12 -2 21 -5 21 -3 0 -5 -4 -5 -9z m-263 -163 c-3 -8 -6 -5
-6 6 -1 11 2 17 5 13 3 -3 4 -12 1 -19z"/>
<path d="M15164 7995 c0 -66 1 -92 3 -57 2 34 2 88 0 120 -2 31 -3 3 -3 -63z"/>
<path d="M16070 7768 c0 -162 3 -199 12 -190 9 9 14 68 17 202 3 169 1 190
-13 190 -14 0 -16 -23 -16 -202z"/>
<path d="M15897 7933 c-10 -9 -7 -363 2 -387 17 -43 25 14 29 201 4 164 2 193
-10 193 -8 0 -18 -3 -21 -7z"/>
<path d="M13160 7884 c0 -8 5 -12 10 -9 6 4 8 11 5 16 -9 14 -15 11 -15 -7z"/>
<path d="M15710 7711 c0 -170 6 -221 24 -192 5 7 11 328 7 369 0 6 -8 12 -16
12 -13 0 -15 -28 -15 -189z"/>
<path d="M15530 7656 c0 -113 4 -207 9 -210 15 -10 21 53 21 235 0 152 -2 179
-15 179 -13 0 -15 -29 -15 -204z"/>
<path d="M801 7824 c0 -11 3 -14 6 -6 3 7 2 16 -1 19 -3 4 -6 -2 -5 -13z"/>
<path d="M15155 7820 c-3 -5 -1 -10 4 -10 6 0 11 5 11 10 0 6 -2 10 -4 10 -3
0 -8 -4 -11 -10z"/>
<path d="M15349 7710 c-1 -60 -2 -133 -3 -161 -1 -47 0 -48 10 -23 15 36 18
294 4 294 -6 0 -10 -42 -11 -110z"/>
<path d="M15163 7720 c0 -25 2 -35 4 -22 2 12 2 32 0 45 -2 12 -4 2 -4 -23z"/>
<path d="M510 7590 c0 -5 5 -10 10 -10 6 0 10 5 10 10 0 6 -4 10 -10 10 -5 0
-10 -4 -10 -10z"/>
<path d="M15347 7483 c-11 -10 -8 -63 3 -63 6 0 10 16 10 35 0 36 -2 40 -13
28z"/>
<path d="M240 7423 c0 -10 -3 -28 -6 -40 -5 -17 -2 -23 10 -23 12 0 16 10 16
40 0 22 -4 40 -10 40 -5 0 -10 -8 -10 -17z"/>
<path d="M15147 7416 c-4 -10 -5 -21 -2 -24 9 -9 17 6 13 25 -3 17 -4 17 -11
-1z"/>
<path d="M12475 7380 c-3 -6 1 -7 9 -4 18 7 21 14 7 14 -6 0 -13 -4 -16 -10z"/>
<path d="M14931 7380 c0 -8 4 -24 9 -35 l9 -20 0 20 c0 11 -4 27 -9 35 -9 13
-10 13 -9 0z"/>
<path d="M15160 7360 c0 -5 5 -10 11 -10 5 0 7 5 4 10 -3 6 -8 10 -11 10 -2 0
-4 -4 -4 -10z"/>
<path d="M12567 7334 c-10 -11 5 -34 22 -34 13 1 13 3 -4 12 -19 11 -19 11 0
19 15 6 16 8 4 8 -9 1 -18 -2 -22 -5z"/>
<path d="M14735 7313 c3 -8 5 -17 5 -19 0 -2 5 -4 10 -4 6 0 10 8 10 18 0 10
-7 19 -15 19 -10 0 -14 -6 -10 -14z"/>
<path d="M14960 7320 c0 -5 -7 -10 -15 -10 -8 0 -15 -4 -15 -9 0 -5 9 -7 20
-4 17 5 30 33 15 33 -3 0 -5 -4 -5 -10z"/>
<path d="M14510 7248 c0 -13 4 -29 9 -37 7 -11 10 -10 15 6 7 23 -2 53 -15 53
-5 0 -9 -10 -9 -22z"/>
<path d="M14728 7253 c7 -3 16 -2 19 1 4 3 -2 6 -13 5 -11 0 -14 -3 -6 -6z"/>
<path d="M11928 6663 c7 -3 16 -2 19 1 4 3 -2 6 -13 5 -11 0 -14 -3 -6 -6z"/>
<path d="M14628 6072 c-39 -12 -48 -20 -48 -38 0 -13 -8 -28 -18 -33 -17 -9
-23 -43 -11 -56 3 -2 36 5 75 18 l69 22 3 53 c3 59 3 59 -70 34z m-28 -87 c0
-8 -7 -15 -15 -15 -26 0 -18 20 13 29 1 1 2 -6 2 -14z"/>
<path d="M5139 5972 c-20 -15 -55 -45 -77 -66 -23 -21 -51 -45 -62 -53 -11 -8
-20 -20 -20 -27 0 -13 56 -68 110 -108 19 -14 53 -43 76 -64 43 -41 179 -169
233 -219 25 -24 34 -27 41 -16 11 19 2 41 -17 41 -9 0 -13 6 -10 14 4 10 -5
19 -24 28 -16 7 -29 16 -29 20 0 5 -7 8 -15 8 -8 0 -15 7 -15 15 0 8 -6 15
-12 15 -10 0 -10 2 0 9 11 6 10 10 -5 16 -22 10 -29 12 -47 14 -12 1 -25 26
-30 55 0 5 -10 12 -21 17 -11 4 -16 8 -12 8 5 1 -1 14 -13 31 -20 29 -20 50 1
50 6 0 17 7 25 15 21 21 295 15 374 -8 85 -25 101 -27 375 -47 77 -6 160 -12
185 -15 25 -2 88 -7 140 -10 52 -4 129 -15 170 -25 41 -10 116 -20 165 -23 50
-3 108 -12 130 -20 23 -8 90 -22 150 -31 61 -9 143 -21 184 -27 40 -6 89 -8
108 -4 19 3 40 2 46 -3 7 -5 57 -17 112 -26 55 -10 104 -21 109 -27 6 -5 52
-9 103 -9 66 0 120 -7 185 -24 99 -26 257 -55 323 -61 198 -17 198 -17 237 2
21 10 38 21 38 25 0 11 -92 58 -115 58 -12 0 -25 3 -29 7 -11 11 -80 33 -106
33 -14 0 -31 9 -38 20 -7 11 -19 20 -27 20 -8 0 -15 4 -15 9 0 5 -15 14 -32
21 -18 7 -39 20 -46 29 -10 13 -14 13 -21 3 -7 -11 -9 -11 -14 2 -4 9 -12 16
-20 16 -18 0 -67 23 -67 32 0 11 -61 38 -87 38 -12 0 -23 -4 -23 -10 0 -5 -6
-10 -14 -10 -8 0 -17 -6 -19 -12 -4 -10 -6 -9 -6 1 -1 10 -4 11 -15 2 -11 -9
-30 -9 -82 0 -38 7 -80 12 -94 12 -120 -3 -151 -3 -195 1 -251 24 -338 35
-347 44 -7 7 -46 12 -97 12 -51 0 -81 -4 -73 -9 10 -6 7 -10 -12 -13 -15 -3
-29 -1 -32 3 -3 5 -19 9 -37 9 -48 0 -118 31 -154 67 -17 18 -40 33 -52 33
-11 0 -27 10 -35 22 -14 19 -18 20 -40 9 -13 -7 -30 -11 -38 -9 -7 3 -33 -6
-57 -20 l-43 -25 -57 19 c-31 10 -60 20 -66 20 -5 1 -15 2 -21 3 -5 0 -20 10
-33 22 -17 16 -29 19 -49 14 -55 -14 -111 -16 -131 -6 -17 10 -26 8 -49 -9
-25 -18 -38 -20 -98 -15 -38 3 -123 8 -189 11 -66 3 -138 10 -160 16 -22 5
-49 12 -60 14 -32 6 -75 26 -75 34 0 4 -12 12 -27 18 -57 23 -77 22 -114 -6z"/>
<path d="M14619 5940 l-76 -25 -2 -130 c-1 -71 3 -136 8 -144 7 -11 20 -10 76
9 36 12 68 27 71 34 3 7 3 72 2 146 l-3 135 -76 -25z m61 -9 c0 -9 -26 -21
-56 -25 -7 -1 -17 -5 -20 -9 -11 -11 -26 -8 -22 4 2 6 7 10 11 10 3 0 19 6 34
14 32 17 53 19 53 6z m-5 -41 c-6 -10 -69 -30 -94 -30 -24 0 0 17 39 28 47 13
62 14 55 2z m5 -29 c0 -5 -21 -16 -47 -25 -56 -19 -56 -19 -51 -4 7 21 98 48
98 29z m0 -35 c0 -14 -96 -43 -107 -32 -3 3 0 8 8 11 25 9 94 34 97 34 1 1 2
-5 2 -13z m6 -35 c-7 -12 -98 -43 -104 -36 -8 8 4 16 45 30 45 17 66 19 59 6z
m-11 -70 c-8 -13 -35 -15 -35 -2 0 5 8 11 18 13 21 5 26 2 17 -11z"/>
<path d="M14992 5830 c0 -19 2 -27 5 -17 2 9 2 25 0 35 -3 9 -5 1 -5 -18z"/>
<path d="M10997 5833 c-10 -10 -30 -19 -45 -20 -173 -9 -197 -13 -209 -29 -7
-9 -10 -20 -8 -24 3 -4 -11 -23 -30 -43 -19 -20 -35 -40 -35 -45 0 -5 -13 -22
-30 -38 -16 -16 -30 -33 -30 -38 0 -13 -53 -51 -67 -48 -25 6 -13 -14 15 -25
l27 -11 -28 -1 c-18 -1 -42 -15 -68 -40 l-40 -38 25 -7 c14 -3 46 -1 71 5 24
6 57 8 72 5 22 -6 11 -12 -78 -42 -57 -19 -108 -39 -113 -45 -6 -5 -20 -9 -32
-9 -13 0 -26 -5 -30 -11 -4 -8 1 -9 16 -4 12 4 20 3 17 -2 -3 -4 22 -9 54 -10
64 -1 117 -18 135 -42 10 -13 19 -13 64 -3 28 7 64 12 78 12 25 -1 23 -2 -13
-19 -32 -15 -37 -20 -23 -26 10 -4 16 -10 14 -14 -4 -6 76 -65 109 -81 6 -3
20 -13 30 -24 11 -10 62 -45 114 -78 l95 -60 73 4 c40 3 73 1 73 -4 0 -4 -5
-8 -12 -8 -6 0 -9 -2 -6 -5 10 -10 37 7 32 19 -3 8 13 20 43 31 63 23 70 30
94 83 20 43 27 76 54 242 19 116 19 120 -7 120 -18 1 -13 6 21 24 46 24 71 69
71 130 l0 29 -77 -6 -78 -6 48 25 c41 21 48 29 43 47 -3 12 -6 27 -6 34 0 7
-7 10 -16 6 -13 -5 -15 -2 -10 15 5 14 1 25 -12 34 -10 7 -21 21 -25 30 -9 25
-76 31 -202 19 -69 -6 -111 -6 -113 0 -6 14 -26 11 -45 -8z m299 -2 c-3 -5
-15 -7 -26 -4 -28 7 -25 13 6 13 14 0 23 -4 20 -9z m-208 -67 c22 -15 39 -47
47 -87 2 -10 7 -27 10 -38 4 -13 1 -21 -12 -25 -10 -3 -26 -10 -35 -15 -29
-15 -101 -10 -124 9 -25 21 -38 86 -22 116 27 53 91 72 136 40z m-348 -304
c-36 -11 -52 -11 -45 0 3 6 21 10 38 9 31 -1 31 -1 7 -9z m-68 -22 c-9 -9 -15
-9 -24 0 -9 9 -7 12 12 12 19 0 21 -3 12 -12z m96 -40 c17 -17 15 -26 -7 -37
-13 -7 -24 -6 -37 3 -15 12 -16 16 -5 30 16 19 33 20 49 4z"/>
<path d="M15013 5815 c0 -22 2 -30 4 -17 2 12 2 30 0 40 -3 9 -5 -1 -4 -23z"/>
<path d="M15211 5774 c0 -11 3 -14 6 -6 3 7 2 16 -1 19 -3 4 -6 -2 -5 -13z"/>
<path d="M15053 5600 c0 -47 2 -66 4 -42 2 23 2 61 0 85 -2 23 -4 4 -4 -43z"/>
<path d="M14794 5598 l-111 -39 1 -187 c1 -167 3 -187 18 -190 12 -2 26 14 47
56 21 42 37 61 55 66 13 3 31 9 39 12 12 4 16 -3 19 -33 2 -21 8 -37 13 -36 6
2 11 63 13 150 2 117 6 149 17 156 15 8 22 88 8 86 -5 -1 -58 -19 -119 -41z"/>
<path d="M14951 5594 c0 -11 3 -14 6 -6 3 7 2 16 -1 19 -3 4 -6 -2 -5 -13z"/>
<path d="M14978 5603 c7 -3 16 -2 19 1 4 3 -2 6 -13 5 -11 0 -14 -3 -6 -6z"/>
<path d="M14490 5495 c-97 -35 -792 -273 -890 -305 -47 -15 -150 -51 -230 -80
-80 -29 -163 -59 -185 -66 -22 -8 -47 -18 -55 -21 -15 -7 -22 -9 -50 -13 -23
-4 40 -17 85 -19 30 -1 36 -4 25 -11 -11 -7 -11 -10 -2 -10 7 0 10 -4 7 -10
-3 -6 1 -7 10 -4 9 4 25 -2 35 -11 19 -17 33 -15 36 6 1 5 2 14 3 19 2 19 31
10 31 -9 0 -26 18 -37 26 -17 10 26 24 18 24 -13 0 -18 6 -31 17 -35 12 -5 14
-9 5 -18 -15 -15 -15 -28 -1 -28 5 0 7 5 4 10 -3 6 -1 10 4 10 6 0 11 -8 12
-17 0 -11 3 -13 6 -5 2 6 15 12 28 12 13 0 27 5 30 10 4 6 10 8 15 5 5 -3 12
0 15 6 4 5 13 8 20 5 7 -2 16 2 19 9 3 8 12 12 21 9 8 -3 15 -1 15 5 0 6 10
10 22 8 18 -1 24 4 26 23 7 50 52 72 52 25 0 -22 3 -24 19 -16 22 12 31 5 31
-25 0 -13 4 -25 9 -29 11 -6 9 34 -2 52 -8 12 10 29 20 19 3 -3 12 1 19 9 8 8
21 12 29 9 8 -4 15 -1 15 6 0 21 20 -1 21 -23 0 -18 3 -16 15 12 18 40 21 38
28 -17 5 -46 7 -45 -42 -25 -8 3 -10 0 -6 -10 3 -8 1 -18 -5 -22 -7 -4 -11 7
-11 29 0 34 -8 44 -23 29 -4 -3 -2 -12 5 -20 15 -19 -6 -67 -27 -59 -8 3 -15
1 -15 -4 0 -6 -7 -10 -16 -10 -18 0 -44 -23 -44 -39 0 -6 4 -11 9 -11 13 0
212 68 376 129 77 29 172 64 210 78 39 14 93 36 120 49 28 12 77 31 110 42
l60 21 3 190 c2 150 0 191 -10 190 -7 -1 -42 -11 -78 -24z m-560 -290 c0 -8
-4 -15 -10 -15 -5 0 -10 7 -10 15 0 8 5 15 10 15 6 0 10 -7 10 -15z m69 -22
c0 -25 -1 -26 -9 -8 -12 27 -12 35 0 35 6 0 10 -12 9 -27z m-2 -190 c-2 -16
-4 -5 -4 22 0 28 2 40 4 28 2 -13 2 -35 0 -50z m-832 17 c-11 -5 -27 -9 -35
-9 -9 0 -8 4 5 9 11 5 27 9 35 9 9 0 8 -4 -5 -9z m220 -90 c3 -5 1 -10 -4 -10
-6 0 -11 5 -11 10 0 6 2 10 4 10 3 0 8 -4 11 -10z"/>
<path d="M15081 5513 c0 -6 -4 -20 -7 -30 -5 -14 -4 -15 5 -7 7 7 11 20 8 30
-3 11 -5 14 -6 7z"/>
<path d="M2535 5490 c3 -5 8 -10 11 -10 2 0 4 5 4 10 0 6 -5 10 -11 10 -5 0
-7 -4 -4 -10z"/>
<path d="M8365 5400 c-18 -8 -17 -9 8 -9 15 -1 27 4 27 9 0 12 -8 12 -35 0z"/>
<path d="M5450 5396 c0 -2 7 -6 15 -10 8 -3 15 -1 15 4 0 6 -7 10 -15 10 -8 0
-15 -2 -15 -4z"/>
<path d="M14965 5330 c3 -5 16 -10 28 -9 21 0 21 1 2 9 -28 12 -37 12 -30 0z"/>
<path d="M7453 5323 c-7 -2 -13 -13 -13 -24 0 -10 -4 -20 -10 -20 -5 -1 -14
-3 -20 -4 -5 -1 -14 -3 -18 -4 -5 0 -26 -17 -48 -36 -21 -19 -48 -35 -58 -35
-11 0 -27 -7 -37 -16 -9 -8 -41 -17 -70 -20 -29 -3 -58 -9 -63 -13 -6 -5 -22
-11 -36 -14 -14 -3 -43 -10 -65 -16 -152 -41 -503 -95 -585 -90 -55 3 -112 -8
-165 -32 -22 -10 -49 -19 -60 -21 -11 -2 -20 -9 -20 -16 0 -8 -24 -22 -52 -32
-29 -10 -53 -16 -53 -12 0 3 -6 -3 -14 -13 -13 -18 -13 -18 -24 1 -6 10 -13
17 -15 14 -8 -8 -12 -134 -4 -146 10 -16 12 -65 3 -91 -9 -28 -43 -27 -69 2
-18 19 -18 18 -12 -70 3 -49 8 -137 11 -195 8 -135 19 -184 42 -175 65 25 160
32 193 14 11 -5 111 -12 225 -14 112 -2 212 -6 222 -9 9 -3 71 -10 137 -16 68
-7 130 -18 142 -26 12 -8 33 -14 46 -14 12 0 28 -5 34 -11 15 -15 194 -15 231
-1 15 6 99 20 187 31 88 12 194 26 235 32 41 5 93 11 115 13 22 2 67 9 100 15
130 23 344 54 455 65 120 12 126 15 156 70 50 92 121 188 80 108 -7 -15 -16
-38 -20 -52 -6 -23 -6 -24 6 -5 7 11 19 20 26 21 38 3 43 5 37 14 -3 6 1 7 9
4 10 -4 16 -1 16 7 0 11 2 11 9 -1 6 -8 7 -18 5 -22 -3 -5 7 -3 21 4 24 11 29
10 42 -7 12 -15 14 -16 10 -3 -4 13 2 18 26 24 18 3 37 9 42 13 6 3 47 6 92 6
60 0 83 -4 83 -12 0 -8 15 -13 40 -13 22 0 40 -4 40 -10 0 -5 18 -10 40 -10
22 0 40 5 40 10 0 6 7 10 15 10 8 0 15 -4 15 -10 0 -5 -5 -10 -12 -10 -6 0 -3
-9 7 -20 10 -11 26 -20 37 -20 20 0 25 -26 6 -33 -8 -3 -6 -6 5 -6 10 -1 22
10 27 24 12 30 30 32 37 4 4 -14 10 -18 22 -13 9 4 48 16 86 27 83 25 84 25
65 38 -12 8 -10 9 7 4 12 -3 38 -2 58 4 30 8 35 7 35 -7 0 -13 -20 -22 -84
-37 -47 -10 -83 -22 -81 -25 5 -9 -40 -30 -63 -30 -9 0 -24 -5 -32 -10 -19
-13 39 -2 92 16 23 8 40 9 43 3 4 -5 -3 -9 -14 -9 -12 0 -21 -4 -21 -9 0 -6
17 -7 38 -4 53 8 32 -8 -25 -18 -26 -5 -52 -14 -58 -21 -7 -8 -5 -9 10 -3 11
4 36 11 55 14 20 4 44 12 54 18 17 9 17 11 1 16 -9 4 -13 12 -9 18 4 7 9 8 13
1 3 -6 20 -13 36 -16 25 -5 26 -5 9 3 -20 9 -42 31 -31 31 3 0 18 -7 33 -15
37 -19 68 -19 34 0 -14 8 -20 14 -13 15 6 0 14 8 16 18 4 13 5 12 6 -4 1 -17
18 -34 35 -34 1 0 2 15 3 33 0 19 -1 23 -4 10 -7 -38 -22 -26 -17 15 3 28 2
32 -5 17 -9 -18 -10 -18 -10 5 -1 15 -6 31 -13 38 -9 9 -9 12 0 12 7 0 12 -4
12 -10 0 -5 12 -10 26 -10 19 0 25 4 21 15 -4 8 -2 17 3 20 4 3 10 0 12 -5 2
-7 34 -4 93 10 50 12 102 24 118 27 15 3 27 9 27 14 0 5 18 12 40 15 44 7 52
19 19 29 -16 5 -18 9 -8 15 7 5 -15 8 -54 8 -37 0 -64 -4 -61 -9 3 -5 2 -14
-2 -20 -5 -8 -9 -8 -14 1 -5 9 -18 7 -48 -8 -37 -18 -41 -18 -45 -3 -3 14 -5
14 -12 -3 -5 -11 -3 -21 5 -26 8 -5 -1 -7 -23 -5 -20 2 -37 -1 -37 -6 0 -5 15
-9 33 -10 32 -1 32 -1 6 -10 -34 -13 -77 4 -89 33 -9 22 -9 22 -9 -4 -1 -14 5
-28 12 -31 6 -2 8 -8 4 -13 -4 -5 -11 -4 -15 2 -8 12 -102 6 -102 -7 0 -5 -54
-9 -120 -9 -73 0 -120 4 -120 10 0 6 -18 10 -40 10 -36 0 -40 3 -40 25 0 14
-3 26 -7 26 -5 1 -19 3 -32 4 -24 2 -40 20 -41 45 -1 9 -5 6 -10 -7 -5 -13
-18 -23 -29 -23 -11 0 -25 -9 -32 -21 -9 -17 -18 -20 -50 -17 -21 2 -39 0 -39
-5 0 -13 -89 52 -100 73 -6 11 -9 25 -8 32 5 20 -45 17 -75 -4 -16 -11 -31
-18 -33 -15 -3 3 7 14 23 24 15 10 34 24 42 32 8 7 43 26 77 42 35 16 65 33
68 38 3 4 18 6 34 3 36 -5 204 47 195 61 -3 5 1 14 8 19 10 6 1 7 -24 3 -28
-4 -37 -3 -32 5 4 7 1 10 -6 9 -21 -4 -59 11 -59 23 0 6 -11 7 -27 3 -16 -4
-38 -8 -51 -10 -13 -1 -34 -13 -47 -25 -24 -22 -25 -22 -26 -4 -1 10 -1 22 0
27 0 4 -11 7 -25 7 -14 0 -23 -3 -21 -7 3 -5 -32 -9 -77 -11 -83 -3 -149 12
-187 45 -9 7 -23 11 -32 7 -16 -6 -87 22 -98 39 -7 10 -58 5 -93 -9 -17 -6
-18 -3 -11 34 4 28 3 42 -4 42 -6 0 -11 -9 -11 -20 0 -28 -20 -25 -21 3 0 21
-1 21 -9 2 -7 -17 -9 -17 -9 -2 -1 9 -8 17 -17 17 -9 0 -27 9 -41 20 -14 11
-29 17 -34 14 -14 -8 -69 19 -69 33 0 7 -4 13 -10 13 -5 0 -10 7 -10 15 0 17
-16 20 -25 5 -5 -8 -11 -8 -20 0 -9 7 -14 7 -17 0 -4 -13 -158 -26 -158 -13 0
11 -52 28 -117 38 -27 4 -43 12 -43 21 0 9 -12 14 -35 14 -25 0 -44 8 -60 24
-13 14 -32 27 -42 31 -10 3 -27 20 -38 37 -21 33 -32 40 -52 31z m292 -772 c3
-5 1 -12 -5 -16 -5 -3 -10 1 -10 9 0 18 6 21 15 7z m1408 -38 c-7 -2 -19 -2
-25 0 -7 3 -2 5 12 5 14 0 19 -2 13 -5z"/>
<path d="M10025 5236 c-59 -22 -78 -47 -42 -54 9 -2 17 1 17 7 0 6 8 11 18 12
15 0 14 2 -3 10 -14 6 -7 7 25 3 32 -4 41 -2 30 5 -18 13 -10 21 32 31 27 7
29 8 8 8 -14 1 -52 -9 -85 -22z m-28 -32 c-3 -3 -12 -4 -19 -1 -8 3 -5 6 6 6
11 1 17 -2 13 -5z"/>
<path d="M14868 5213 c7 -3 16 -2 19 1 4 3 -2 6 -13 5 -11 0 -14 -3 -6 -6z"/>
<path d="M14794 5142 c3 -5 0 -13 -6 -15 -9 -4 -10 -6 -1 -6 17 -1 25 16 12
25 -7 4 -9 3 -5 -4z"/>
<path d="M14830 5139 c0 -5 5 -7 10 -4 6 3 10 8 10 11 0 2 -4 4 -10 4 -5 0
-10 -5 -10 -11z"/>
<path d="M14550 4929 c0 -140 3 -180 13 -177 9 4 13 51 15 181 2 153 0 177
-13 177 -13 0 -15 -26 -15 -181z"/>
<path d="M14690 5100 c-9 -6 -10 -10 -3 -10 6 0 15 5 18 10 8 12 4 12 -15 0z"/>
<path d="M14690 5061 c0 -5 7 -12 16 -15 14 -5 15 -4 4 9 -14 17 -20 19 -20 6z"/>
<path d="M14638 5053 c7 -3 16 -2 19 1 4 3 -2 6 -13 5 -11 0 -14 -3 -6 -6z"/>
<path d="M14338 5027 l-58 -22 0 -77 c0 -76 0 -77 23 -69 20 7 22 15 23 77 l1
69 37 14 c20 7 36 18 36 22 0 5 -1 9 -2 8 -2 0 -29 -10 -60 -22z"/>
<path d="M14633 4975 c0 -27 2 -38 4 -22 2 15 2 37 0 50 -2 12 -4 0 -4 -28z"/>
<path d="M14612 4985 c0 -16 2 -22 5 -12 2 9 2 23 0 30 -3 6 -5 -1 -5 -18z"/>
<path d="M14130 4951 c-30 -10 -73 -27 -95 -37 -22 -10 -44 -19 -50 -19 -19
-1 -135 -48 -141 -56 -3 -5 -14 -9 -25 -9 -11 0 -39 -8 -62 -19 -23 -10 -50
-21 -59 -24 -14 -5 -18 -18 -18 -57 0 -45 -3 -52 -26 -60 -32 -12 -44 -6 -44
24 0 12 -6 28 -12 35 -11 10 -10 11 5 6 10 -5 17 -2 17 5 0 13 -32 9 -81 -11
-25 -10 -26 -14 -23 -66 3 -61 22 -85 64 -80 18 1 26 9 28 27 2 14 8 30 14 35
8 7 8 6 3 -4 -6 -11 -4 -13 8 -8 20 7 22 -4 5 -21 -9 -9 -7 -12 10 -12 17 0
22 6 22 24 0 13 -6 27 -12 29 -8 4 -7 6 4 6 9 1 21 -11 26 -26 6 -17 11 -21
11 -11 1 11 6 15 16 12 11 -4 16 6 21 45 4 34 11 51 21 51 8 0 11 4 8 10 -3 5
0 7 8 5 7 -3 29 1 49 9 19 8 38 12 42 9 3 -4 6 -42 6 -85 0 -78 0 -78 25 -74
60 11 65 16 65 57 0 33 4 41 26 49 48 19 59 13 62 -32 3 -50 5 -52 31 -43 17
5 21 15 21 50 0 59 45 152 77 160 21 5 23 11 23 65 0 33 -3 60 -7 59 -5 0 -33
-8 -63 -18z m-131 -128 l-2 -48 -6 40 c-7 38 -5 55 5 55 2 0 3 -21 3 -47z"/>
<path d="M13754 4924 c3 -8 6 -18 6 -20 0 -3 5 -2 10 1 15 9 12 22 -6 29 -12
5 -15 2 -10 -10z"/>
<path d="M14492 4910 c0 -19 2 -27 5 -17 2 9 2 25 0 35 -3 9 -5 1 -5 -18z"/>
<path d="M14985 4860 c-16 -11 -26 -20 -22 -20 11 0 67 29 67 35 0 10 -16 4
-45 -15z"/>
<path d="M14775 4820 c-3 -6 1 -7 9 -4 18 7 21 14 7 14 -6 0 -13 -4 -16 -10z"/>
<path d="M13586 4813 c-3 -4 -17 -8 -29 -10 -25 -4 -107 -40 -107 -48 0 -3 24
4 54 16 34 12 65 17 83 14 19 -5 24 -4 14 3 -7 5 -10 15 -7 21 8 12 3 15 -8 4z"/>
<path d="M1280 4769 c0 -5 5 -7 10 -4 6 3 10 8 10 11 0 2 -4 4 -10 4 -5 0 -10
-5 -10 -11z"/>
<path d="M13520 4765 c-14 -8 -19 -14 -10 -14 8 0 26 6 40 14 14 8 19 14 10
14 -8 0 -26 -6 -40 -14z"/>
<path d="M14773 4765 c0 -7 6 -11 14 -8 7 3 13 6 13 8 0 2 -6 5 -13 8 -8 3
-14 -1 -14 -8z"/>
<path d="M5920 4735 c0 -8 4 -15 10 -15 5 0 7 7 4 15 -4 8 -8 15 -10 15 -2 0
-4 -7 -4 -15z"/>
<path d="M9615 4590 c-3 -5 -1 -10 4 -10 6 0 11 5 11 10 0 6 -2 10 -4 10 -3 0
-8 -4 -11 -10z"/>
<path d="M13923 4593 c-12 -2 -27 -11 -33 -19 -10 -11 -5 -11 26 2 57 24 58
27 7 17z"/>
<path d="M13668 4583 c7 -3 16 -2 19 1 4 3 -2 6 -13 5 -11 0 -14 -3 -6 -6z"/>
<path d="M9890 4569 c-86 -23 -205 -64 -208 -71 -2 -4 -13 -8 -25 -8 -18 0
-19 -2 -7 -10 10 -6 3 -8 -22 -3 -26 4 -38 2 -38 -6 0 -7 4 -10 9 -6 6 3 7 -9
4 -30 -5 -31 -3 -35 16 -35 12 0 33 7 46 16 13 9 29 13 35 9 5 -3 36 3 67 14
32 11 85 27 117 36 44 12 56 19 45 26 -10 7 -6 8 14 3 17 -4 27 -2 27 5 0 6
12 11 28 12 15 0 36 4 47 8 17 7 15 8 -10 14 -17 3 -41 4 -55 3 -14 -2 -16 -1
-6 1 16 4 17 7 5 15 -10 7 -5 8 16 4 22 -5 26 -4 15 4 -18 12 -73 12 -120 -1z
m-215 -126 c-11 -3 -26 -10 -33 -16 -7 -5 -16 -7 -19 -3 -11 11 19 26 47 25
21 -1 21 -2 5 -6z"/>
<path d="M10027 4493 c-9 -3 -14 -9 -11 -15 4 -7 2 -8 -5 -4 -12 8 -237 -58
-258 -76 -7 -5 -17 -7 -23 -3 -6 4 -16 3 -23 -3 -7 -5 -34 -15 -60 -22 -33 -9
-44 -16 -35 -21 10 -7 9 -9 -4 -9 -10 0 -18 -4 -18 -8 0 -4 -9 -8 -19 -8 -11
0 -17 4 -15 8 3 4 0 8 -5 8 -6 0 -11 -5 -11 -10 0 -6 -3 -9 -8 -8 -4 2 -18 -7
-32 -19 -13 -13 -33 -24 -44 -25 -12 0 -37 -3 -56 -4 -19 -2 -46 -4 -60 -5
-20 -1 -21 -2 -8 -10 10 -6 27 -5 43 1 34 13 35 13 35 -6 0 -10 -7 -14 -22
-12 -11 2 -23 -3 -25 -9 -3 -7 2 -13 11 -13 9 0 16 -8 16 -20 0 -11 -7 -20
-15 -20 -8 0 -15 -5 -15 -12 0 -6 3 -9 6 -6 3 4 14 -2 25 -13 10 -10 26 -19
34 -19 8 0 15 -4 15 -10 0 -5 18 -10 40 -10 28 0 40 -4 40 -14 0 -8 -6 -16
-12 -19 -7 -2 -5 -3 4 -2 9 2 19 -2 22 -9 2 -6 5 -1 5 12 1 12 4 22 9 22 15
-1 41 -27 34 -35 -4 -5 1 -5 10 -2 9 3 33 1 52 -4 27 -8 36 -15 36 -32 0 -16
3 -18 9 -9 4 8 17 12 27 10 16 -3 19 4 22 45 2 28 -1 47 -7 47 -7 0 -11 24
-11 59 0 67 10 80 67 88 l38 5 3 -66 c3 -55 1 -66 -13 -66 -13 0 -15 -7 -9
-37 4 -21 8 -41 10 -44 5 -8 109 16 157 36 34 14 36 18 43 75 3 33 10 57 15
54 5 -3 9 0 9 5 0 6 -5 11 -11 11 -5 0 -7 5 -3 11 4 8 9 7 15 -2 8 -12 11 -11
19 1 7 11 5 16 -5 18 -24 5 -17 19 16 32 28 12 30 16 24 48 -4 23 -3 32 5 27
5 -3 7 -11 4 -17 -4 -6 1 -6 14 1 15 8 23 7 33 -5 7 -9 23 -20 35 -24 16 -6
24 -21 29 -51 4 -25 10 -37 15 -29 5 8 9 5 13 -9 3 -12 1 -21 -4 -21 -5 0 -9
-5 -9 -11 0 -7 14 -10 35 -7 43 5 44 -2 5 -25 -34 -21 -40 -42 -9 -34 16 4 18
3 8 -9 -9 -12 -6 -14 19 -14 17 0 34 -4 37 -10 3 -5 11 -10 16 -10 6 0 8 4 4
9 -3 6 15 13 40 16 25 4 43 11 40 15 -3 4 15 11 38 14 40 6 45 10 62 51 10 25
22 45 27 45 4 0 8 5 8 10 0 13 -36 13 -59 0 -28 -14 -102 -29 -95 -19 3 5 13
9 23 9 9 0 21 4 27 8 5 5 29 14 54 21 36 11 42 15 30 25 -8 6 -15 20 -15 31 0
13 -6 19 -16 17 -9 -1 -28 9 -42 22 -23 21 -56 32 -127 39 -14 2 -62 11 -107
22 -62 15 -82 24 -80 35 1 9 -6 15 -18 15 -11 0 -19 -6 -17 -12 2 -15 -8 -16
-28 -3 -12 8 -12 12 -2 18 14 10 -28 13 -61 5z m73 -47 c0 -8 -5 -18 -11 -22
-14 -8 -33 11 -25 25 10 16 36 13 36 -3z m40 -6 c0 -5 -4 -10 -10 -10 -5 0
-10 5 -10 10 0 6 5 10 10 10 6 0 10 -4 10 -10z m-420 -70 c-20 -13 -33 -13
-25 0 3 6 14 10 23 10 15 0 15 -2 2 -10z m-57 -17 c-7 -2 -19 -2 -25 0 -7 3
-2 5 12 5 14 0 19 -2 13 -5z m127 -54 c-9 -16 -14 -18 -26 -8 -19 16 -18 36 3
48 24 13 38 -11 23 -40z m-295 -39 c-3 -5 -23 -9 -43 -9 l-37 2 35 7 c52 11
52 11 45 0z m105 -61 c0 -41 -4 -59 -11 -57 -7 2 -11 25 -11 56 1 65 0 62 12
62 6 0 10 -27 10 -61z m753 14 c-7 -2 -19 -2 -25 0 -7 3 -2 5 12 5 14 0 19 -2
13 -5z"/>
<path d="M8666 4454 c-5 -14 -4 -15 9 -4 17 14 19 20 6 20 -5 0 -12 -7 -15
-16z"/>
<path d="M2082 4340 c0 -14 2 -19 5 -12 2 6 2 18 0 25 -3 6 -5 1 -5 -13z"/>
<path d="M9465 4310 c-4 -6 -12 -10 -18 -9 -7 1 -21 1 -32 0 -17 -1 -18 -3 -4
-11 17 -10 79 8 79 22 0 12 -18 10 -25 -2z"/>
<path d="M10715 4300 c-3 -6 1 -7 9 -4 18 7 21 14 7 14 -6 0 -13 -4 -16 -10z"/>
<path d="M10560 4279 c0 -4 12 -15 27 -24 25 -17 27 -17 40 1 19 27 17 29 -27
29 -22 0 -40 -3 -40 -6z"/>
<path d="M10748 4283 c7 -3 16 -2 19 1 4 3 -2 6 -13 5 -11 0 -14 -3 -6 -6z"/>
<path d="M2160 4270 c0 -5 7 -10 15 -10 8 0 15 -4 15 -10 0 -5 7 -10 15 -10
18 0 19 12 3 28 -15 15 -48 16 -48 2z"/>
<path d="M2232 4225 c0 -16 2 -22 5 -12 2 9 2 23 0 30 -3 6 -5 -1 -5 -18z"/>
<path d="M9798 4213 c5 -59 10 -63 11 -10 1 26 -3 47 -7 47 -4 0 -6 -17 -4
-37z"/>
<path d="M2250 4200 c0 -5 9 -10 20 -10 11 0 20 5 20 10 0 6 -9 10 -20 10 -11
0 -20 -4 -20 -10z"/>
<path d="M10731 4179 c10 -6 10 -9 2 -9 -7 0 -13 -6 -13 -13 0 -11 -88 -47
-205 -83 -37 -12 -45 -39 -13 -48 41 -11 88 -6 151 14 34 11 67 20 72 21 6 0
15 5 22 11 9 7 13 -1 15 -29 2 -30 7 -38 23 -38 13 0 20 6 19 18 -1 9 4 17 11
17 8 0 5 15 -11 48 -26 52 -30 82 -12 82 26 0 -3 12 -38 15 -25 2 -33 0 -23
-6z m56 -141 c-3 -7 -5 -2 -5 12 0 14 2 19 5 13 2 -7 2 -19 0 -25z"/>
<path d="M10031 4144 c0 -11 3 -14 6 -6 3 7 2 16 -1 19 -3 4 -6 -2 -5 -13z"/>
<path d="M9772 4105 c0 -16 2 -22 5 -12 2 9 2 23 0 30 -3 6 -5 -1 -5 -18z"/>
<path d="M10463 4111 c-48 -19 -64 -31 -40 -31 9 0 18 4 22 10 3 6 15 6 30 0
15 -6 27 -6 30 0 4 6 -2 10 -12 10 -14 1 -13 4 7 15 33 19 15 17 -37 -4z"/>
<path d="M10280 4100 c0 -13 11 -13 30 0 12 8 11 10 -7 10 -13 0 -23 -4 -23
-10z"/>
<path d="M10355 4075 c-22 -13 -35 -25 -30 -25 6 0 21 7 33 16 12 8 26 13 30
10 5 -3 9 1 9 9 0 8 -1 15 -1 15 -1 0 -19 -11 -41 -25z"/>
<path d="M9561 4064 c0 -11 3 -14 6 -6 3 7 2 16 -1 19 -3 4 -6 -2 -5 -13z"/>
<path d="M9961 4076 c2 -2 18 -6 34 -10 22 -5 26 -4 15 4 -14 9 -59 15 -49 6z"/>
<path d="M4670 4045 c-7 -9 -11 -18 -8 -20 3 -3 11 1 18 10 7 9 11 18 8 20 -3
3 -11 -1 -18 -10z"/>
<path d="M9920 4050 c0 -5 -7 -10 -17 -10 -9 0 -14 -2 -11 -5 8 -8 68 6 68 16
0 5 -9 9 -20 9 -11 0 -20 -4 -20 -10z"/>
<path d="M10360 4044 c-17 -9 -20 -14 -9 -14 9 0 22 7 29 15 15 18 13 18 -20
-1z"/>
<path d="M9542 4025 c0 -16 2 -22 5 -12 2 9 2 23 0 30 -3 6 -5 -1 -5 -18z"/>
<path d="M10265 4040 c-3 -6 1 -7 9 -4 18 7 21 14 7 14 -6 0 -13 -4 -16 -10z"/>
<path d="M9560 4035 c0 -5 5 -17 10 -25 5 -8 10 -10 10 -5 0 6 -5 17 -10 25
-5 8 -10 11 -10 5z"/>
<path d="M10385 4020 c-3 -5 -1 -10 4 -10 6 0 11 5 11 10 0 6 -2 10 -4 10 -3
0 -8 -4 -11 -10z"/>
<path d="M10690 4015 l-25 -15 34 3 c19 2 37 9 39 15 5 16 -18 15 -48 -3z"/>
<path d="M9868 3983 c6 -2 18 -2 25 0 6 3 1 5 -13 5 -14 0 -19 -2 -12 -5z"/>
<path d="M3787 3953 c-13 -13 -7 -21 13 -16 11 3 20 9 20 14 0 10 -24 12 -33
2z"/>
<path d="M3761 3904 c0 -11 3 -14 6 -6 3 7 2 16 -1 19 -3 4 -6 -2 -5 -13z"/>
<path d="M5313 3895 c-41 -29 -163 -189 -161 -210 8 -54 158 -101 297 -93 81
5 141 22 141 39 0 10 -45 40 -91 61 -31 14 -132 125 -135 147 0 3 -7 21 -15
39 -13 31 -15 32 -36 17z"/>
<path d="M12176 3888 c5 -7 2 -9 -9 -5 -11 4 -18 -1 -23 -16 -7 -21 -7 -21
-15 -2 -7 19 -8 19 -8 -2 -1 -25 -17 -31 -24 -10 -2 7 -3 6 -3 -3 1 -16 56
-24 56 -9 0 5 11 9 24 9 25 0 36 15 29 38 -3 6 -11 12 -19 12 -9 0 -12 -5 -8
-12z"/>
<path d="M12485 3865 c-25 -12 -26 -14 -5 -9 14 4 29 10 35 15 12 12 5 11 -30
-6z"/>
<path d="M12226 3845 c-3 -8 -16 -15 -30 -15 -14 0 -28 -5 -31 -10 -4 -6 -11
-8 -16 -5 -5 4 -9 -4 -9 -16 0 -22 0 -22 15 -3 10 12 14 14 12 4 -2 -8 -2 -12
0 -8 2 4 11 4 19 1 8 -3 14 0 14 6 0 6 8 11 18 11 21 0 42 18 42 37 0 18 -27
16 -34 -2z"/>
<path d="M12411 3837 c-6 -8 -8 -17 -4 -20 11 -12 19 -7 20 13 2 24 -1 25 -16
7z"/>
<path d="M9367 3809 c7 -7 15 -10 18 -7 3 3 -2 9 -12 12 -14 6 -15 5 -6 -5z"/>
<path d="M9400 3816 c0 -7 40 -14 44 -7 3 4 -6 8 -20 9 -13 1 -24 0 -24 -2z"/>
<path d="M11376 3805 c4 -9 0 -15 -10 -15 -9 0 -16 6 -16 13 0 19 -20 -15 -20
-36 0 -20 30 -16 94 14 43 20 60 16 53 -12 -3 -12 0 -19 9 -19 8 0 14 -8 14
-17 0 -14 2 -15 9 -5 4 8 5 28 2 45 -8 36 -56 60 -73 36 -7 -11 -11 -11 -15
-1 -7 18 -54 16 -47 -3z"/>
<path d="M14285 3799 c-22 -10 -48 -19 -58 -19 -10 0 -34 -8 -55 -19 -20 -10
-57 -19 -80 -20 -24 0 -48 -4 -53 -7 -6 -3 -17 0 -25 7 -13 11 -15 10 -14 -2
5 -31 -1 -49 -15 -49 -8 0 -12 6 -9 13 2 7 0 24 -5 38 l-10 24 0 -25 c-1 -22
-2 -23 -17 -8 -15 15 -21 14 -78 -4 -33 -11 -74 -26 -91 -33 -88 -39 -125 -55
-149 -61 -14 -3 -26 -10 -26 -16 0 -5 -5 -6 -11 -3 -16 11 51 55 93 62 21 3
38 9 38 14 0 5 7 9 16 9 23 0 90 43 75 48 -6 2 -17 0 -24 -5 -15 -12 -107 -4
-107 9 0 5 -10 -3 -23 -18 -20 -23 -26 -25 -44 -15 -34 18 -107 14 -131 -8
-12 -10 -19 -21 -15 -25 3 -3 -4 -6 -16 -6 -19 0 -20 3 -11 20 9 16 8 20 -6
20 -9 0 -18 -9 -21 -20 -4 -14 -14 -20 -33 -20 -16 0 -41 -6 -57 -14 -15 -8
-49 -22 -75 -31 -36 -13 -48 -22 -48 -37 0 -11 -11 -29 -25 -40 -14 -11 -25
-25 -25 -31 0 -22 -111 -56 -203 -63 -48 -4 -90 -11 -93 -15 -3 -5 2 -9 10 -9
9 0 16 -7 16 -16 0 -14 -9 -16 -50 -12 -27 3 -50 2 -50 -2 0 -4 -15 -13 -32
-20 -18 -6 -46 -19 -61 -27 -15 -8 -35 -12 -44 -9 -10 4 -27 -4 -45 -21 -19
-18 -31 -24 -36 -16 -5 8 -17 7 -44 -4 -29 -12 -38 -21 -38 -39 0 -21 4 -24
40 -24 22 0 40 -4 40 -10 0 -15 -77 -12 -84 3 -3 8 -15 1 -34 -20 -31 -36 -42
-41 -42 -18 0 8 -7 15 -15 15 -8 0 -15 -5 -15 -12 0 -6 -3 -8 -7 -5 -3 4 -11
3 -17 -2 -6 -5 -28 -14 -48 -20 -21 -7 -38 -16 -38 -20 0 -10 72 -41 96 -42
18 0 18 -1 -1 -9 -30 -13 2 -12 49 1 53 15 162 65 171 78 3 6 19 11 36 11 27
0 33 8 30 36 -2 15 18 30 53 38 26 6 27 5 13 -9 -9 -8 -23 -15 -31 -15 -9 0
-16 -4 -16 -10 0 -11 23 -14 33 -3 8 8 137 52 152 53 18 0 -148 -77 -205 -95
-30 -10 -62 -23 -70 -30 -8 -7 -26 -16 -40 -20 -14 -4 -49 -20 -77 -36 -29
-16 -55 -28 -57 -27 -2 2 -8 0 -12 -4 -4 -5 -2 -8 4 -8 7 0 12 -5 12 -10 0 -6
-12 -8 -27 -5 -23 4 -25 4 -8 -4 20 -9 20 -10 -1 -10 -11 -1 -24 -4 -28 -8 -4
-5 -11 -8 -14 -9 -4 0 -19 -4 -33 -8 -14 -4 -33 -8 -42 -10 -23 -3 -34 -16
-13 -16 22 0 33 -29 15 -41 -10 -7 -6 -8 12 -3 16 3 30 1 34 -6 5 -8 1 -11
-11 -9 -11 2 -25 0 -31 -4 -12 -8 -15 -4 -17 26 -1 13 -16 27 -29 27 -5 0 -5
-5 -1 -12 5 -8 -2 -9 -25 -5 -20 4 -30 3 -26 -3 3 -6 17 -10 30 -10 18 0 23
-4 18 -16 -4 -10 -14 -14 -30 -11 -21 4 -24 2 -19 -19 6 -23 -14 -48 -22 -26
-2 7 -8 12 -14 12 -6 0 -8 -6 -5 -14 3 -8 -2 -16 -15 -19 -11 -3 -17 -10 -13
-16 4 -8 -2 -8 -19 -1 -31 11 -156 -8 -135 -21 11 -6 11 -11 1 -21 -9 -9 -12
-9 -12 0 0 7 -5 12 -11 12 -8 0 -7 -5 1 -15 7 -9 20 -13 29 -10 10 3 9 0 -4
-10 -12 -10 -21 -12 -23 -5 -6 17 -19 11 -26 -12 -5 -18 -8 -20 -15 -9 -7 11
-11 10 -20 -7 -10 -18 -75 -49 -93 -44 -5 1 -8 -2 -8 -8 0 -5 -13 -16 -30 -25
-37 -19 -50 -19 -24 0 10 8 15 15 11 15 -4 0 -21 -10 -37 -21 -20 -15 -46 -22
-82 -24 -58 -2 -126 -25 -95 -32 43 -11 8 -33 -51 -33 -27 0 -33 -3 -22 -9 8
-6 18 -7 24 -4 5 3 6 1 2 -6 -4 -6 -11 -9 -16 -6 -11 7 -41 -5 -36 -14 3 -4
-18 -15 -45 -24 -27 -10 -47 -22 -45 -26 3 -4 -8 -8 -23 -9 -16 0 -48 -10 -71
-21 -24 -11 -46 -18 -50 -16 -4 2 -52 5 -107 6 -76 1 -107 -2 -136 -16 -20 -9
-37 -21 -37 -26 0 -6 7 -6 18 0 11 6 24 6 35 -1 10 -5 30 -7 45 -4 21 5 24 4
12 -5 -15 -11 0 -9 65 7 11 3 7 -3 -10 -12 -16 -10 -35 -24 -42 -33 -8 -11
-12 -12 -13 -3 0 6 -5 12 -11 12 -6 0 -8 -7 -5 -15 3 -10 1 -15 -7 -13 -6 1
-32 -8 -56 -20 -24 -12 -48 -19 -54 -15 -6 3 -7 1 -3 -5 3 -6 -2 -12 -11 -14
-10 -2 -13 -6 -8 -10 6 -3 33 4 60 17 123 55 215 95 220 95 6 0 220 95 246
109 8 5 76 35 150 66 74 32 176 77 227 101 51 24 95 44 99 44 3 0 43 18 89 40
46 22 88 40 94 40 5 0 42 16 82 35 40 19 192 87 338 150 146 64 306 135 355
157 50 22 124 55 165 73 41 19 116 52 165 74 50 22 169 74 265 116 96 43 198
87 225 100 56 25 110 49 240 107 50 22 118 53 152 69 35 16 65 29 68 29 7 0
146 64 230 105 28 14 43 24 35 24 -8 0 -33 -9 -55 -20z m-355 -73 c0 -3 -4 -8
-10 -11 -5 -3 -10 -1 -10 4 0 6 5 11 10 11 6 0 10 -2 10 -4z m145 -6 c-3 -5
-14 -10 -23 -10 -15 0 -15 2 -2 10 20 13 33 13 25 0z m-508 -116 c-3 -3 -12
-4 -19 -1 -8 3 -5 6 6 6 11 1 17 -2 13 -5z m-192 -84 c-44 -22 -84 -40 -88
-40 -9 0 -116 -49 -200 -91 -32 -16 -63 -29 -68 -29 -6 0 -34 -11 -62 -24 -29
-13 -63 -27 -77 -31 -25 -7 -25 -7 -4 9 11 8 41 23 65 32 24 10 55 25 69 35
14 9 30 18 35 19 6 1 24 7 40 14 17 7 46 18 66 25 20 6 68 27 105 46 38 19 76
35 85 35 9 0 22 6 29 14 11 14 33 22 70 24 8 1 -21 -16 -65 -38z m-967 -505
c-3 -3 -9 2 -12 12 -6 14 -5 15 5 6 7 -7 10 -15 7 -18z m-201 -111 c-3 -3 -12
-4 -19 -1 -8 3 -5 6 6 6 11 1 17 -2 13 -5z m-627 -278 c0 -2 -15 -9 -32 -15
-30 -10 -31 -9 -14 4 18 14 46 20 46 11z"/>
<path d="M11547 3803 c-4 -3 -7 -16 -8 -27 -1 -18 -2 -18 -9 4 l-8 25 -1 -26
c-1 -15 10 -38 24 -53 21 -23 25 -24 25 -9 0 11 -6 25 -12 32 -7 8 -8 11 -2 8
7 -4 9 5 6 24 -5 31 -5 32 -15 22z"/>
<path d="M2648 3783 c7 -3 16 -2 19 1 4 3 -2 6 -13 5 -11 0 -14 -3 -6 -6z"/>
<path d="M9320 3780 c0 -12 8 -12 35 0 18 8 17 9 -7 9 -16 1 -28 -3 -28 -9z"/>
<path d="M9500 3780 c8 -5 22 -9 30 -9 10 0 8 3 -5 9 -27 12 -43 12 -25 0z"/>
<path d="M12110 3779 c0 -5 5 -7 10 -4 6 3 10 8 10 11 0 2 -4 4 -10 4 -5 0
-10 -5 -10 -11z"/>
<path d="M12212 3779 c-14 -5 -20 -13 -16 -20 5 -8 1 -10 -13 -7 -12 3 -27 2
-34 -3 -12 -8 -11 -11 1 -19 12 -8 13 -10 1 -10 -8 0 -12 -3 -8 -6 10 -10 48
7 41 18 -5 7 0 9 14 6 12 -4 25 -2 28 3 3 5 10 7 15 4 5 -4 9 -3 10 2 0 4 2
16 4 26 4 19 -8 21 -43 6z"/>
<path d="M13010 3731 c0 -34 3 -61 8 -61 23 1 31 20 29 65 -1 38 -6 51 -19 53
-16 3 -18 -5 -18 -57z"/>
<path d="M9470 3770 c8 -5 20 -10 25 -10 6 0 3 5 -5 10 -8 5 -19 10 -25 10 -5
0 -3 -5 5 -10z"/>
<path d="M11312 3755 c0 -16 2 -22 5 -12 2 9 2 23 0 30 -3 6 -5 -1 -5 -18z"/>
<path d="M11593 3742 c0 -15 2 -21 4 -14 3 6 9 10 14 6 14 -8 11 6 -5 21 -11
12 -13 10 -13 -13z"/>
<path d="M11631 3744 c0 -11 3 -14 6 -6 3 7 2 16 -1 19 -3 4 -6 -2 -5 -13z"/>
<path d="M9180 3741 c-24 -7 -24 -7 9 -14 19 -4 36 -5 39 -2 3 3 0 5 -7 5 -7
0 -9 5 -6 10 7 11 1 11 -35 1z"/>
<path d="M11416 3741 c-3 -5 -22 -12 -41 -15 -20 -4 -36 -13 -36 -21 -1 -8 -2
-21 -3 -27 -4 -23 5 -29 22 -16 14 10 15 10 5 -2 -18 -20 -16 -28 10 -41 20
-11 21 -11 8 5 -17 21 -7 33 14 16 9 -7 18 -10 21 -7 9 9 -6 27 -23 27 -13 0
-13 3 -3 15 7 8 19 15 26 15 7 0 11 6 8 14 -3 8 -1 17 5 21 6 3 11 10 11 16 0
12 -17 12 -24 0z"/>
<path d="M9368 3733 c7 -3 16 -2 19 1 4 3 -2 6 -13 5 -11 0 -14 -3 -6 -6z"/>
<path d="M12115 3730 c-3 -5 -1 -10 4 -10 6 0 11 5 11 10 0 6 -2 10 -4 10 -3
0 -8 -4 -11 -10z"/>
<path d="M11520 3712 c0 -4 7 -16 15 -26 15 -19 15 -19 15 1 0 11 -7 23 -15
27 -8 3 -15 2 -15 -2z"/>
<path d="M9412 3675 c-1 -20 -4 -40 -7 -45 -4 -6 1 -10 9 -10 9 0 16 9 16 21
0 11 5 17 10 14 16 -10 12 11 -5 25 -8 7 -12 16 -9 21 3 5 1 9 -4 9 -5 0 -9
-16 -10 -35z"/>
<path d="M12100 3706 c0 -2 7 -6 15 -10 8 -3 15 -1 15 4 0 6 -7 10 -15 10 -8
0 -15 -2 -15 -4z"/>
<path d="M11415 3670 c3 -5 11 -10 16 -10 6 0 7 5 4 10 -3 6 -11 10 -16 10 -6
0 -7 -4 -4 -10z"/>
<path d="M9332 3663 c-17 -7 -5 -23 19 -23 10 0 19 7 19 15 0 15 -14 18 -38 8z"/>
<path d="M13013 3613 c-1 -21 0 -33 3 -26 3 7 12 9 20 6 10 -4 14 3 14 26 0
23 -5 31 -18 31 -14 0 -18 -9 -19 -37z"/>
<path d="M9272 3615 c-14 -17 -2 -21 14 -5 6 6 21 6 41 1 31 -9 43 -6 43 11 0
14 -84 8 -98 -7z"/>
<path d="M13101 3534 c0 -11 3 -14 6 -6 3 7 2 16 -1 19 -3 4 -6 -2 -5 -13z"/>
<path d="M4095 3510 c3 -5 8 -10 11 -10 2 0 4 5 4 10 0 6 -5 10 -11 10 -5 0
-7 -4 -4 -10z"/>
<path d="M12617 3469 c7 -7 15 -10 18 -7 3 3 -2 9 -12 12 -14 6 -15 5 -6 -5z"/>
<path d="M12275 3210 c-17 -7 -15 -9 13 -9 17 -1 32 4 32 9 0 12 -17 12 -45 0z"/>
<path d="M12038 2913 c7 -3 16 -2 19 1 4 3 -2 6 -13 5 -11 0 -14 -3 -6 -6z"/>
<path d="M12051 2889 c-13 -5 -22 -11 -20 -14 8 -7 49 7 49 16 0 5 -1 9 -2 8
-2 0 -14 -5 -27 -10z"/>
<path d="M12065 2860 c3 -5 8 -10 11 -10 2 0 4 5 4 10 0 6 -5 10 -11 10 -5 0
-7 -4 -4 -10z"/>
<path d="M11825 2820 c-3 -5 -1 -10 4 -10 6 0 11 5 11 10 0 6 -2 10 -4 10 -3
0 -8 -4 -11 -10z"/>
<path d="M11640 2790 c-18 -12 -2 -12 25 0 13 6 15 9 5 9 -8 0 -22 -4 -30 -9z"/>
<path d="M11850 2790 c-24 -15 -7 -18 20 -3 14 7 18 13 10 13 -8 0 -22 -4 -30
-10z"/>
<path d="M8390 2730 c0 -5 5 -10 10 -10 6 0 10 5 10 10 0 6 -4 10 -10 10 -5 0
-10 -4 -10 -10z"/>
<path d="M11715 2710 c-13 -6 -15 -9 -5 -9 8 0 22 4 30 9 18 12 2 12 -25 0z"/>
<path d="M6630 2570 c19 -13 30 -13 30 0 0 6 -10 10 -22 10 -19 0 -20 -2 -8
-10z"/>
<path d="M9168 2513 c18 -25 28 -30 71 -32 45 -2 51 0 51 18 0 26 -5 28 -80
37 l-63 7 21 -30z"/>
<path d="M6739 2476 c-37 -13 -75 -28 -85 -34 -11 -6 -85 -30 -164 -53 -128
-38 -156 -43 -240 -43 -102 1 -197 17 -244 41 -26 14 -35 13 -90 -3 l-61 -19
45 -7 c200 -32 800 -84 914 -79 53 2 20 12 -56 17 -87 6 -188 24 -188 34 0 4
64 29 141 54 165 55 249 91 249 105 0 21 -150 12 -221 -13z"/>
<path d="M10680 2450 c8 -5 28 -10 43 -10 16 0 38 -5 49 -11 16 -9 23 -8 29 2
7 11 11 11 17 2 8 -13 82 -7 82 7 0 14 -23 17 -130 19 -74 1 -101 -1 -90 -9z"/>
<path d="M8515 2389 c-27 -10 -58 -24 -68 -29 -10 -6 -22 -8 -26 -5 -7 4 -258
-79 -396 -131 -22 -9 -92 -33 -155 -54 -63 -21 -203 -68 -310 -105 l-195 -66
-130 -1 c-138 -1 -118 -9 60 -24 174 -14 166 -16 370 67 11 4 83 30 160 58 77
27 176 63 220 79 44 17 139 51 210 76 72 26 141 55 155 64 14 9 27 17 30 18 3
0 18 6 33 12 16 7 34 12 40 12 7 1 32 12 57 25 38 20 41 24 20 24 -14 0 -47
-9 -75 -20z"/>
<path d="M6970 2323 c-64 -17 -87 -33 -47 -33 27 0 105 26 122 42 13 11 -10 9
-75 -9z"/>
<path d="M8600 2332 c0 -5 7 -12 15 -16 16 -6 194 -27 385 -46 63 -6 144 -15
180 -20 77 -10 112 -8 118 8 5 15 -19 19 -198 32 -187 14 -423 37 -467 46 -20
4 -33 3 -33 -4z"/>
<path d="M5595 2290 c-29 -8 -136 -39 -220 -63 -22 -7 -44 -15 -50 -18 -5 -4
-37 -14 -70 -24 -50 -14 -56 -18 -41 -27 20 -11 236 -27 236 -17 0 3 -25 10
-55 15 -31 5 -56 14 -55 19 0 6 19 16 43 23 86 26 142 45 152 52 6 4 19 10 30
13 11 3 38 13 60 21 42 16 21 20 -30 6z"/>
<path d="M10067 2256 c-4 -10 -1 -13 8 -9 8 3 12 9 9 14 -7 12 -11 11 -17 -5z"/>
<path d="M10804 2262 c7 -12 -112 -40 -154 -37 -19 2 -84 6 -145 9 -60 3 -157
10 -215 15 -99 8 -120 7 -109 -3 3 -3 79 -12 169 -21 91 -9 176 -19 190 -24
14 -5 41 -6 60 -4 l35 4 -25 -15 c-14 -8 -34 -20 -45 -25 l-20 -10 20 0 c24
-1 174 57 196 76 8 7 22 13 30 13 8 0 20 4 27 9 11 7 10 9 -3 14 -9 4 -14 3
-11 -1z"/>
<path d="M6715 2251 c-16 -15 -475 -161 -509 -162 -74 -1 -68 -16 11 -23 77
-6 86 -5 194 34 259 91 344 126 344 140 0 17 -26 25 -40 11z"/>
<path d="M10673 2155 c-21 -12 -55 -28 -75 -34 -21 -7 -38 -16 -38 -20 0 -4
-6 -8 -13 -8 -26 0 -217 -87 -214 -97 6 -18 35 -18 69 -2 17 9 39 16 50 16 10
0 18 4 18 8 0 4 10 8 21 9 21 2 56 16 129 52 32 16 82 33 103 35 10 1 37 36
37 47 0 18 -52 14 -87 -6z"/>
<path d="M9205 2138 c-44 -16 -90 -32 -103 -35 -19 -5 -23 -11 -20 -37 2 -17
8 -30 13 -29 37 8 199 83 206 95 19 35 -14 37 -96 6z"/>
<path d="M10537 2139 c7 -7 15 -10 18 -7 3 3 -2 9 -12 12 -14 6 -15 5 -6 -5z"/>
<path d="M5518 2133 c12 -2 30 -2 40 0 9 3 -1 5 -23 4 -22 0 -30 -2 -17 -4z"/>
<path d="M5598 2123 c12 -2 30 -2 40 0 9 3 -1 5 -23 4 -22 0 -30 -2 -17 -4z"/>
<path d="M6078 2083 c7 -3 16 -2 19 1 4 3 -2 6 -13 5 -11 0 -14 -3 -6 -6z"/>
<path d="M6400 2060 c0 -5 5 -10 11 -10 5 0 7 5 4 10 -3 6 -8 10 -11 10 -2 0
-4 -4 -4 -10z"/>
<path d="M9026 2054 c-10 -25 -7 -34 9 -34 9 0 15 9 15 25 0 28 -15 34 -24 9z"/>
<path d="M8977 2049 c-21 -12 -24 -61 -3 -53 8 3 16 17 19 32 6 33 6 33 -16
21z"/>
<path d="M9658 2033 c7 -3 16 -2 19 1 4 3 -2 6 -13 5 -11 0 -14 -3 -6 -6z"/>
<path d="M8885 2020 c-42 -16 -213 -79 -272 -100 -66 -24 -81 -45 -38 -56 38
-9 80 2 226 60 116 45 134 56 137 77 2 13 1 21 -4 17 -4 -4 -12 -4 -18 1 -6 5
-20 5 -31 1z"/>
<path d="M9728 2023 c12 -2 32 -2 45 0 12 2 2 4 -23 4 -25 0 -35 -2 -22 -4z"/>
<path d="M6868 2013 c7 -3 16 -2 19 1 4 3 -2 6 -13 5 -11 0 -14 -3 -6 -6z"/>
<path d="M9848 2013 c18 -2 45 -2 60 0 15 2 0 4 -33 4 -33 0 -45 -2 -27 -4z"/>
<path d="M7003 2003 c15 -2 37 -2 50 0 12 2 0 4 -28 4 -27 0 -38 -2 -22 -4z"/>
<path d="M10026 1996 c33 -7 69 -16 79 -20 16 -6 16 -4 4 11 -13 15 -12 16 6
9 11 -5 26 -9 33 -9 7 0 -1 -13 -18 -29 -17 -15 -30 -28 -28 -28 2 0 30 14 62
30 32 17 65 30 72 30 7 0 15 3 17 8 3 4 -61 8 -142 9 -140 1 -144 1 -85 -11z"/>
<path d="M7535 1962 c6 -5 134 -20 285 -31 151 -12 334 -28 406 -36 152 -17
202 -19 189 -6 -9 8 -83 15 -620 56 -110 9 -216 18 -235 21 -24 4 -32 3 -25
-4z"/>
<path d="M10050 1884 c-80 -37 -167 -76 -195 -88 -43 -19 -71 -46 -47 -46 22
0 186 61 224 84 25 14 48 23 51 19 4 -3 7 -1 7 5 0 6 7 9 16 5 9 -3 20 0 25 8
8 12 11 12 20 -1 9 -13 10 -13 6 0 -2 9 10 23 31 35 35 20 44 38 20 42 -7 1
-78 -27 -158 -63z"/>
<path d="M9960 1875 c-14 -8 -20 -14 -15 -14 6 0 21 6 35 14 14 8 21 14 15 14
-5 0 -21 -6 -35 -14z"/>
<path d="M8748 1863 c7 -3 16 -2 19 1 4 3 -2 6 -13 5 -11 0 -14 -3 -6 -6z"/>
<path d="M9855 1835 c-16 -8 -23 -14 -15 -14 8 0 26 6 40 14 32 18 15 18 -25
0z"/>
<path d="M9798 1810 c-2 -6 -17 -13 -33 -16 -40 -7 -48 -17 -8 -11 40 6 69 22
55 31 -6 3 -12 1 -14 -4z"/>
<path d="M1448 1543 c6 -2 18 -2 25 0 6 3 1 5 -13 5 -14 0 -19 -2 -12 -5z"/>
<path d="M1178 1533 c7 -3 16 -2 19 1 4 3 -2 6 -13 5 -11 0 -14 -3 -6 -6z"/>
<path d="M1040 1510 c-86 -24 -55 -24 40 0 41 10 64 18 50 18 -14 0 -54 -8
-90 -18z"/>
<path d="M9026 1494 c-9 -24 -7 -77 4 -94 11 -16 11 -16 15 20 2 14 4 30 5 35
9 42 -11 74 -24 39z"/>
<path d="M895 1475 c-22 -8 -31 -13 -20 -13 11 0 38 5 60 13 22 7 31 13 20 13
-11 0 -38 -6 -60 -13z"/>
<path d="M2008 1473 c6 -2 18 -2 25 0 6 3 1 5 -13 5 -14 0 -19 -2 -12 -5z"/>
<path d="M8934 1446 c-8 -33 -1 -91 11 -89 15 2 28 58 21 87 -8 32 -24 33 -32
2z"/>
</g>
</svg>
